<svg xmlns="http://www.w3.org/2000/svg" viewBox="0 0 308.53 71.21"><defs><style>.cls-1{fill:#282c61;}.cls-2{fill:#3f4372;}</style></defs><title>Fichier 6</title><g id="Calque_2" data-name="Calque 2"><g id="Calque_1-2" data-name="Calque 1"><rect class="cls-1" x="2.1" y="2.89" width="303.86" height="66.32"/><path class="cls-2" d="M307.79,68.35c0,1.09.29.7.34.87C308.06,67.39,307.71,68.4,307.79,68.35Z"/><polygon class="cls-2" points="307.08 50.31 307.2 50.63 306.89 47.97 307.08 50.31"/><path class="cls-2" d="M307.08,33.43c-.53,1.6.09,6.12-.1,9.12l-.12.5.43,1.36C307.22,40.75,306.93,36,307.08,33.43Z"/><path class="cls-2" d="M308.24,24.44c-.21.55-.18-2-.06,2.09l.05-.38C308.23,25.79,308.23,25.29,308.24,24.44Z"/><path class="cls-2" d="M308.23,26.15c0,1.78.17-1.16,0,0Z"/><path class="cls-2" d="M308.11,18l.18,2.34c.13-.49.16-2.57.24-1.8C308.43,16.09,308.31,16.58,308.11,18Z"/><path class="cls-2" d="M307.72,15.73l.08,1.21A2.69,2.69,0,0,0,307.72,15.73Z"/><path class="cls-2" d="M308,19.51l-.16-2.57c-.09.34-.26.38.06,1.18C307.7,17.91,307.85,18.42,308,19.51Z"/><path class="cls-2" d="M307.88,21c-.12,1.31-.19,3-.37.66C307.58,26.11,308,25.45,307.88,21Z"/><path class="cls-2" d="M306.53,32.57l-.16,1.76.18,1.52C306.46,35.09,306.7,32.46,306.53,32.57Z"/><path class="cls-2" d="M308.39,1.34c-.12-.15-.31,1.65-.45,2l.13,2.73V5.88l0-.26,0-.72.06-1.53A10.65,10.65,0,0,1,308.39,1.34Z"/><path class="cls-2" d="M307.94,3.33,307.83,1l-1.95.09h1.86C307.76,3.21,307.84,3.58,307.94,3.33Z"/><polygon class="cls-2" points="307.12 15.31 307.53 19.56 307.12 14.49 307.12 15.31"/><polygon class="cls-2" points="296.56 0.46 298.02 0.19 295.41 0.59 296.56 0.46"/><path class="cls-2" d="M290,.5c1.09-.21-1.48-.37-.34-.5A43.92,43.92,0,0,0,285,.4,32,32,0,0,1,290,.5Z"/><path class="cls-2" d="M282.7.64c.72-.05,1.48-.15,2.3-.24C284.22.45,283.46.52,282.7.64Z"/><path class="cls-2" d="M300.41,1.06a5.92,5.92,0,0,0-2-.32l1,.32Z"/><path class="cls-2" d="M299.42,1.07h0l-2.2,0Z"/><path class="cls-2" d="M300.66,1.06h-.25A.31.31,0,0,0,300.66,1.06Z"/><path class="cls-2" d="M307.41,8.53c-.09-.76-.18-1.93-.28-2.53-.06-.27-.11-.57-.17-.39a6.79,6.79,0,0,0-.19,1.3C307,8,307.14,6.24,307.41,8.53Z"/><path class="cls-2" d="M301.93,1.46l3.5.08c0-.09-.75-.21.48-.3l-2.33.11-.55,0-.37,0Z"/><polygon class="cls-2" points="300.58 1.56 301.93 1.46 300.91 1.44 300.58 1.56"/><path class="cls-2" d="M287.4.94a39.28,39.28,0,0,1-3.95.17c1.57.07,3.2.1,4.74.1C288.41,1.11,289.09.93,287.4.94Z"/><path class="cls-2" d="M293.24,1l-.26,0C293.14,1.08,293.27,1.08,293.24,1Z"/><path class="cls-2" d="M269,1.11l.24.06.05-.06Z"/><path class="cls-2" d="M288.46,1.27A12.54,12.54,0,0,0,291,1.16c-.89,0-1.82.05-2.83.05C288.09,1.26,288.08,1.29,288.46,1.27Z"/><path class="cls-2" d="M278.67.79c.61.07,1.31.12,2.05.18A9.54,9.54,0,0,0,278.67.79Z"/><path class="cls-2" d="M292.58,1h.18C292.37.88,292.42.91,292.58,1Z"/><path class="cls-2" d="M292.58,1c-.61.05-1.08.12-1.56.2.72,0,1.38-.06,2-.11A3,3,0,0,1,292.58,1Z"/><path class="cls-2" d="M264.64,3.17c.21-.3,3.31-.57,6-.25,2.63-.23.91-1.2-1.39-1.75-.09.13-.09.25-2.8.43.95.16,6,.37,3.73.64A16.07,16.07,0,0,1,265.49,2c1.48.37-4.58.54-3.8,1.08l3.16-.19C264.91,3,263.76,3.09,264.64,3.17Z"/><path class="cls-2" d="M274.42,1.2l1.12,0a36.37,36.37,0,0,1-3.87-.4,7.09,7.09,0,0,0-2.37.35l5.5,0Z"/><path class="cls-2" d="M280.55,1.16c-.87.33-3.55.46-1.91.81,3.28,0,2.3-.27,4.26-.41-5.29.08,1.52-.18-2.31-.36,1-.06,2-.07,2.86-.09-.95,0-1.87-.08-2.73-.14l.12,0h0c.22,0,.3.07,0,0h-.11a.65.65,0,0,1-.24.12c-1.53-.07-.24-.08.24-.12,0,0,.06,0,.07-.05h0l-5.3.17C276.66,1.21,278.06,1.2,280.55,1.16Z"/><path class="cls-2" d="M306.07,4c0-.19.06-.2.08-.23C306.11,3.45,306.08,3.35,306.07,4Z"/><path class="cls-2" d="M305.17,2.59c.3,0,.61-.1,1.23-.13,0,.24,0,.61,0,1.1-.1,1.3-.15.08-.26.23,0,.37.1,1.07.17,1.36s.14.18.22-1.28l-.05-.42c0-.37,0-.76.07-1.15-1.08-.08-2.24-.19-3.15-.29l-.32,0-.22,0-.34-.06c-.17,0-.23-.07-.15-.07A11.57,11.57,0,0,0,305.17,2.59Z"/><path class="cls-2" d="M292.61,2l-4.41.16,2.24.28-.11-.17C292.84,2.29,292.3,2.09,292.61,2Z"/><polygon class="cls-2" points="268.51 0.95 269.1 0.61 266.55 1.09 268.51 0.95"/><polygon class="cls-2" points="262.77 0.99 262.99 0.69 261.47 0.88 262.77 0.99"/><path class="cls-2" d="M3.88,65.89a3.47,3.47,0,0,0,.09.74l0-.27Z"/><path class="cls-2" d="M3.9,56.5l-.14-.23C3.84,56.71,3.9,56.88,3.9,56.5Z"/><path class="cls-2" d="M121.91,1c-1.89-.28-4-.71-3.77-.38l.58.33A24.47,24.47,0,0,1,121.91,1Z"/><path class="cls-2" d="M25.43,3l.56.1,1.27-.31Z"/><path class="cls-2" d="M24.1,4.31l-2.49-.2C22.17,4.18,23,4.25,24.1,4.31Z"/><path class="cls-2" d="M50.05,67.09l1.52-.33C49.2,66.76,50.24,66.93,50.05,67.09Z"/><path class="cls-2" d="M204,1.11C202.4,1,201.1.93,200,.92,201.93,1.1,203.51,1.38,204,1.11Z"/><path class="cls-2" d="M.43,62.2c.06.79.12,1.13.2,1.1C.57,62.49.51,62,.43,62.2Z"/><path class="cls-2" d="M195.25.92l.87.07C197.31.94,198.51.9,200,.92A20,20,0,0,0,195.25.92Z"/><path class="cls-2" d="M236,67.36l.42,0C236.49,67.35,236.31,67.35,236,67.36Z"/><path class="cls-2" d="M290.21,70.64c-.53,0-1.4,0-2.22,0C288.39,70.69,289.06,70.69,290.21,70.64Z"/><path class="cls-2" d="M239.7.85c1.21,0,.19,0,0,0Z"/><path class="cls-2" d="M245.61,2.14c-.26,0-.45.08-.48.16A1,1,0,0,1,245.61,2.14Z"/><path class="cls-2" d="M183.14,2.94H183C183.39,3,183.33,3,183.14,2.94Z"/><path class="cls-2" d="M241.53,1c-.46,0-1-.07-1.56-.1C240.22.93,240.69,1,241.53,1Z"/><path class="cls-2" d="M241.28.84l1.06,0C242.5.82,242.36.79,241.28.84Z"/><path class="cls-2" d="M238,.87c.7,0,1.35,0,2,0-.24,0-.34,0-.27-.05Z"/><path class="cls-2" d="M136.38,68.23l.26,0C137.87,68.13,137.33,68.15,136.38,68.23Z"/><path class="cls-2" d="M90.25,4.4h0Z"/><path class="cls-2" d="M85.88,4.65a13.32,13.32,0,0,1,4.33-.27l-1.45-.94Z"/><path class="cls-2" d="M21.26,67.34l-3.07-.29c3.7-.48,6.38-.32,3.5-.73-.43,1-11.93.11-12.35,1.12l-2-.21c.58,0,.68,0,1.25,0a7.85,7.85,0,0,0-3.27.09L5,67.35l-.11.08-.31.15a3.74,3.74,0,0,1-1,.2,4.9,4.9,0,0,1,0-.77c0-.23,0-.44.07-.61s0-.25,0-.38l0-.35c.07-.38.13-.38.19.22L3.63,62c0-1.14.2-.86.18.28l-.08-6,0,0c-.16-.86-.41-2.8-.52-3.74.15-1.53.11.76.24.37l-.25-3.32c.27-1.36.52,1.4.49,3.69,1-3.1-.26-2.75.33-9.45L4.18,47c.58-2,.37-4.47.73-8-.19.84-.91,7.11-1.16,3.5a23.09,23.09,0,0,0-.09-4.3c.36,0,.27-1.92.25-4.3l.48.16a20.68,20.68,0,0,0-.6-3.88c0-2.86.42-3.46.73-4.13.08-4.59-.59,3.17-.68-2.26a92.63,92.63,0,0,0-.3-11.06c.16-2.67.29.46.43-.49L3.59,9.8c0-.58.12-.39.18-.3-.15-2-.48-.16-.61-3.3a1.07,1.07,0,0,1-.11-.43,2.66,2.66,0,0,1,0-.5A10.36,10.36,0,0,1,3.21,4l1.1.15a8.8,8.8,0,0,0,1.27.11,19.52,19.52,0,0,0,3.54-.13c1,.13-.47.29-.17.48,5.32-.4,4.56-.29,8.93-.82l3.73.32c-2.74-.37.76-.79,3.82-1.14-1-.18-1.8-.33-2.35-.4L28,2.31c.59.08.1.25-.7.45l.9-.12c1.75.18.84.46-.41.72L26,3.07c-1.21.29-2.34.61-2.09.89.32,0,.93-.1,1.6-.13-.31.08-.51.15-.37.2a7.17,7.17,0,0,0,1.48-.18l1.11.54L28,4.17l6.39.34A143.13,143.13,0,0,1,50.2,3c-1.8.39-.39.64-.48,1.1-2-.49-5.63.21-9.39.11,2,0,1.53.28,1,.35l6.71-.44c-.15.38,1.43.28,3.18.44-1.32-.75,5-.5,7.74-.73.17.25-.49.51-3.82.45,3.68.56,4.75-.89,8.36-.41a5.21,5.21,0,0,0-1.57.1c1.9-.22,6.54-.05,5.45.17H66.6c5.4.09,16.44,0,17.25-.63.05.08-.71.76-1,.89l9.63-2.14c-.84.54,2.42,1.85-2.06,2.16a36.76,36.76,0,0,0,5.58,0c-.87-.07-2.18-.79-1-.84,3.29.61,2.28.33,6.34.85-1.32-.12.14-1,2.22-1-.32.13.18.85-.58.94l5.17-.85c-1.29.16-.23.72.93,1-.54-.17,4.47,0,5.85-.07l-2.19-.2c5.84.13,5.77-1.18,11.56-1.14-.7.18-1.73,1.07,1.22,1.18a45.3,45.3,0,0,1,11.1-2.41l1,.25,3.93-.28c-2.45.65-9.32,2-13.08,2.54a16,16,0,0,0,3.89.27c1.15.24-1.79.36-2.75.37l7.62.15c-.34-.51,5.83-.51,5.54-.93l-8.28.52c-.33-.5,4.79-1.43,10.19-1.34,1.37.2-1,.9-.92,1.07a36.14,36.14,0,0,1,5.62-.21l-2.29.27c3,.19,4.91-.67,8.52-.19,1.25,0,3.72.65,3.94.35-2-.57-2.43-2.35-1.08-2.78.44,0,6.55.55,8,.83,2,.45-3.09,1.08-1.34,1.46a6.41,6.41,0,0,1,1.68-.36c1.31.12-.54.43,2.31.37.47-.52,5.78,0,1.34-.44,2.79-.14,3,.11,6.23.09-1-.33,2.93-1.13,5.72-1.27-.16.13.46.29.77.37,5.7.05,8.76.28,14.09.28.49.13,3.05.28,2,.5a19.63,19.63,0,0,1,3.11-.28c3.17.44-3.66.07-1.24.6.21-.29,4.25-.41,6.58-.59-.72-.46-5.4-.09-7.74.09,0-.63,4.07-1.29,9.63-1.58,4.42-.16,1.91.4,2.68.31,8.3.12,7.07-1.1,14-.64,2.74.4.13.8.73,1.09-3.6.15-5.52-.26-8-.24l3,.19a31,31,0,0,1-4.86.12c2.3.36,14,.07,20.43.4,1.14-.13,3.1-.27,2.17-.43l-2,.05c-1.86-.32,3.81-.45,1.25-.6a65.52,65.52,0,0,1,9.59-.4l.72.46a12.91,12.91,0,0,0-3.58-.14c1.6-.2,5.87.63,7.62,0l-2.68-.32a73.46,73.46,0,0,1,9.49-.57c-1.54-.45-.78.05-3.19-.48,2.09.66-8.68,0-5.32.67-2.47-.62-4.28-.26-7.51-.79.1.15,1.14.29-1.71.22a6,6,0,0,1-.62.13h-.19l.15,0c-.12,0-.13,0,.06,0a8.32,8.32,0,0,1,1.45.23c-1.41.35-5.94.34-7.47.52-1.69-.07.71-.17-.21-.34l-2.29.27c-.23-.33-4.49-.56-.51-.75l-3.58,0a47.54,47.54,0,0,0-6.8-.12c-1.69-.07-4.27.37-2.8.11l-5.62.21,0-.09c-5.54,0-11.41.56-17.74-.05-1.87.09-3.8.19-6.92.1L188.59.8c-2.4.1-7.19-.3-8.22,0C177.78,0,168.74.64,164.52.5l-.16.38c-2.9,0-5.68.08-9.28.24l.22.33c-3.1.28-8-.24-12.89-.2a9.2,9.2,0,0,1,2.46,0c-5.86-.76-12.37.55-17.69,0a17.17,17.17,0,0,1-3.22,0l.33,0h-.54L121.91,1c.55.08,1.08.14,1.55.18-1,0-2.58,0-4.1.13L118.72,1h-.36c-1.49-.14-1.19.17-.4.44-.76.06-1.47.13-2,.22-1.21-.58-4,.19-5.64-.43-1,.31-7.64.23-8.45.87,0-.08-.5-.12.32-.13a32,32,0,0,0-4.91,0l-.72-.46-3.7.61c-2.24-.28-3.18-.44-.94-.79-5.39.54-4.38.2-9,.74l.22-.3c-1.64,0-4.25.41-5.24.17-3.67-.57-18.14-.08-27.54-.6,1.82.87-4.38-.4-4.75.28-.55-.2-1.86-.32-.33-.5-4.8.2-7.22-.33-10.53.24-.55-.21,1-.3.54-.42a8,8,0,0,1-2,.05C32.8.9,34,.85,34.76.76,29.85.79,29.36,1.43,29,2a14.76,14.76,0,0,0-5.52.15c-.87-.2-2.31-.4.74-.47-1.72,0-10.47-.29-10.65.19a15,15,0,0,0-2.85,0l-4,0H2L3.43,2a6.23,6.23,0,0,1-1.95.3c0,.7,0,1.43-.06,2.32L1.38,6c0,.43,0,.88,0,1.37l-.06-.09c-.42,7,.2,3-.28,9.91l.36-.38c.78.65-.45,6.11-.16,10.1l.21-1.44c.26,2.18-1.06,6.1-1.15,8.3-.07.47-.11-.76-.16-1.43-.46,5.75.47.75.58,5-.25.79-.65-1-.69,1.86-.21,1.43.82,8.35.34,12.28.19-.87.39-1.73.53.26.07,3-.74,8.23-.12,11-.05.39-.1.54-.15.55L.76,66,.92,70.4a38.6,38.6,0,0,0,4.24-.31c2.15,1.24,14.47-.6,14.42.54l7.16-.06-.19.12a35.46,35.46,0,0,0,7.81-.48c1.06.08.28.19.2.25a67.25,67.25,0,0,0,13-.39l.58.37c1.52-.21,9.67.59,16.23.15a1.53,1.53,0,0,1-.72.17c7.38-.44,17.67,1,20.37-.32l4.87-.34c-6.3-.1.94-.59-1.65-.81,2.48-.08,6.41.41,3.36.48l-.48-.07c-1.11.71,7.83.25,7.67.73,12.39,0,24.48.36,36.09.39l-1.33-.55,4.05,0c1.06.13,1.42.43-1.47.41a14.54,14.54,0,0,0,4.93-.38c5.66.22-2.21.64-.47.65l2.35,0-.53-.07a26.86,26.86,0,0,1,5.56-.43c2.2.11,1.12.34,2,.36,0,0,.29.06,1.33,0l5.1,0-2-.43c2.26-.22,4.8,0,2.44-.47,3.46.76,19,.27,21.17.51a93.22,93.22,0,0,1,10.17-.28c-1-.09-1.54-.57,1.8-.51-1.22,1,6.12.43,8.82,1.16-2.41-.48,9.5-.12,5.71-.8,2.79.08.17.37,2.29.61,6.63-.39,14.62.25,22.83.12.12-.13-1.25-.33.51-.53l4.33.66c1.62-.06,1.49-.76,4.45-.3-.42-.11-1-.28,0-.32,16.07.64,32.84-.53,49.16.68-2.21-.26-.74-.28.95-.29-1.1-.06,0-.33-.19-.51l6.83.5c1.24-.5,7.32,0,8-.51l-2.17.09c2.88-.56-4-1.25-3.6-2-3.22.64-8.5-.94-13.78,0-1.17-.14,1-.23.37-.4a22.09,22.09,0,0,1-6,.24l.34-.08c-8.43.08-12-.23-21.5-.43l.7.36a31.47,31.47,0,0,1-3.42-.25c-2.33.54,5.72,0,3.59.62-2.7-.72-14.34,0-16.16-.83-3.13,0,.91.41-2.22.41l-.82-.22-.8.28c-2.05,0-3.08-.32-3.16-.51.5,0,1.42-.05,1.95-.07-2.66-.26-7.5.09-8.41,0l3,.14c-8.54.21-19-.08-27.21.37L204,68c-6.3.31-5-.19-12,0l.25,0a43,43,0,0,1-5.12.23c1.75-.2-3.29-.38-1-.6-6.83.33-3.37.26-7.89.88l-1-.27a23.4,23.4,0,0,1-5.12.45c2.84-.24-2.2-.42,1-.74-7.25-.61-10.76.62-14.09-.27-3.33.77,6.28.42,4.41.59,1.56.25-2.75.57-5,.5s-3.94-1-9.76-1c.58,0,.62-.06,1.19-.05-2.18-.2-4.27.26-6.94-.06-1.5.47-3.47,0-3.9.57l5.34-.14c-3,.16-5.87.85-10.86.52a25.14,25.14,0,0,1,2.89-.37c-1.46-.17-2.81.12-4.32-.06.43-.6,6.49-.13,9.74-.59-1.57-.25-6.14.43-4.51-.21-2.34.82-5.74-.1-9.68.52l.26-.35c-.63,0-1.92.22-3.07.21l2.08-.46c-3.19.39-6.15-.34-9.22-.13,6.42,0,1.44.43,4.15.69-7.91.48-4.55-.93-13.4-.76,1.2,0,4.5.21,2.62.38-1.68-.08-3.91-.21-4.94-.4-5.87.07.9.37-1.6.59-2-.44-2.88.17-5.45.31l0-.36c-6.69-.23-1.77.75-7.79.47l2.54-.5-3.14.13.65-.41a48.74,48.74,0,0,1-7.82.11c.77.25-.44.66-3.4.67-2-.22,1.13-.35-3.07-.29a7.85,7.85,0,0,1,3.81-.18c.19-.12.94-.23,1.13-.35a68.72,68.72,0,0,0-7-.05c.58,0,1.28,0,1.64.09l-6.09.5c-1-.14-.19-.25.56-.35-1.23,0-2.09.2-3.9.23.47-.29.36-.6,2.92-.73l-5.8.32c-.38-.13-3-.35-2.22-.46-3.21-.17-7.88.57-12.15.35a9.82,9.82,0,0,1-1.57.15,106.75,106.75,0,0,0-12.3,0l-2.69-.52c-3.72.12,3.64.66-2.55.86-4.38.17-1.63-.45-3.17-.6a42.71,42.71,0,0,1-10,.38C19,67.3,20,67.38,21.26,67.34ZM3.74,42.52a13,13,0,0,1,.1,3.31C3.42,44.81,3.62,44,3.74,42.52ZM32.18,3.66a11.09,11.09,0,0,1-2.83-.07A23.22,23.22,0,0,1,32.18,3.66ZM226.36,1.14l-.09,0C224.29,1,225,1.08,226.36,1.14Zm4.12.16c.41-.05.38-.1.21-.15a11.23,11.23,0,0,1-2.27.07A5.87,5.87,0,0,0,230.48,1.3Zm-81.1,69.37-.8-.1C150.38,70.47,149.88,70.56,149.38,70.67Z"/><path class="cls-2" d="M24.28,4.16A.6.6,0,0,1,23.9,4C23.55,4,23.54,4.09,24.28,4.16Z"/><path class="cls-2" d="M49.77,67.15h.14a.43.43,0,0,0,.14-.07Z"/><path class="cls-2" d="M166.73,4.37a10.62,10.62,0,0,1-1.64-.19C165.05,4.27,165.43,4.35,166.73,4.37Z"/><path class="cls-2" d="M252.29.69l-2.64.09A16.07,16.07,0,0,1,252,.9C252,.82,251.46.69,252.29.69Z"/><path class="cls-2" d="M275.17,2.93c.38-.05.82,0,1.2-.05l-.11-.17C274.62,2.72,273.47,2.85,275.17,2.93Z"/><path class="cls-2" d="M254.73,1.89c.21.3,1.86.2,3.71.14h-.33C258.65,1.61,256.69,1.75,254.73,1.89Z"/><path class="cls-2" d="M258.87,2c.56,0,1.15,0,1.7,0C260.79,1.85,259.88,2,258.87,2Z"/><path class="cls-2" d="M235.7,1.1c.87.08.55-.39,1-.27C237.72.45,230.9,1.3,235.7,1.1Z"/><polygon class="cls-2" points="256.22 2.89 255.56 2.52 254.53 2.82 256.22 2.89"/><path class="cls-2" d="M241.64,2.62l3,.1c0-.06.33-.1.79-.13A27.61,27.61,0,0,0,241.64,2.62Z"/><path class="cls-2" d="M245.38,2.59a23.06,23.06,0,0,0,2.38-.06C247.25,2.53,246.14,2.55,245.38,2.59Z"/><polygon class="cls-2" points="252.19 3 251.32 2.93 249.23 2.9 252.19 3"/><path class="cls-2" d="M209.92,2.54l-3.22.11c-.33.13.55.21,1.75.16C209.22,2.72,210.42,2.67,209.92,2.54Z"/><path class="cls-2" d="M219.66,3.57a6,6,0,0,1-1.42-.28l-.1.46Z"/><path class="cls-2" d="M210.27,3.68c-.32.13-4.67.37-.59.34C210,3.9,213.23,3.79,210.27,3.68Z"/><polygon class="cls-2" points="161.75 3.09 162.56 3.09 162.45 2.32 161.75 3.09"/><path class="cls-2" d="M119,4.92c3.81.18.9-.47,4.35-.24.9-.18-2.82-.19-1.9-.35C119.13,4.52,117.92,4.42,119,4.92Z"/><path class="cls-2" d="M121.43,4.33c.37,0,.76-.06,1.18-.11C121.94,4.27,121.63,4.3,121.43,4.33Z"/><polygon class="cls-2" points="299.2 71.05 301.65 71.21 300.07 70.96 299.2 71.05"/><path class="cls-2" d="M303.91,70.49l.58.48,1.47-.44A10.58,10.58,0,0,1,303.91,70.49Z"/><path class="cls-2" d="M4.72,35.7l-.11-.19a8.28,8.28,0,0,0-.16,2.11Z"/><path class="cls-2" d="M4.36,66.91v-.14a3.77,3.77,0,0,0-.33.51.41.41,0,0,0,0,.11,1.34,1.34,0,0,1,.13-.23Z"/><path class="cls-2" d="M29.8,66.4c-1.14,0-2.48.08-3.63.06C28.66,66.38,30.11,67,29.8,66.4Z"/></g></g></svg>