<?xml version="1.0" encoding="utf-8"?>
<!-- Generator: Adobe Illustrator 22.1.0, SVG Export Plug-In . SVG Version: 6.00 Build 0)  -->
<svg version="1.1" id="Calque_1" xmlns="http://www.w3.org/2000/svg" xmlns:xlink="http://www.w3.org/1999/xlink" x="0px" y="0px"
	 viewBox="0 0 37 31" style="enable-background:new 0 0 37 31;" xml:space="preserve">
<style type="text/css">
	.st0{fill:#EDEDED;}
	.st1{fill:#FFFFFF;}
</style>
<g>
	<path class="st0" d="M31.2,3c1.3-0.4,2.5,1,1.8,2.3l-6.4,11.3L19.7,29c-0.6,1-2.1,1.1-2.7,0L9.8,16.8L3.1,5.6
		C2.4,4.4,3.5,3,4.9,3.3l12.7,3.4c0.3,0.1,0.6,0.1,0.8,0L31.2,3z"/>
	<g>
		<g>
			<g>
				<g>
					<path class="st1" d="M30.6,1.3c0.1,0,0-0.3,0-0.4C30.4,1.1,30.6,1.4,30.6,1.3z"/>
					<polygon class="st1" points="28.6,2.6 28.6,2.5 28.4,2.9 					"/>
					<path class="st1" d="M26.6,3.2c0.3,0.5,0.7-0.3,1.1-0.2l0.1,0.1l0-0.5C27.4,2.8,26.9,3.3,26.6,3.2z"/>
					<path class="st1" d="M25.2,2.4c0.1,0.2-0.2,0.2,0.3,0c0,0,0,0-0.1,0C25.4,2.4,25.3,2.4,25.2,2.4z"/>
					<path class="st1" d="M25.4,2.4C25.6,2.3,25.2,2.2,25.4,2.4L25.4,2.4z"/>
					<path class="st1" d="M24.4,2.8l0.2-0.3c-0.1-0.1-0.3-0.1-0.3-0.2C24.1,2.5,24.2,2.6,24.4,2.8z"/>
					<path class="st1" d="M24.3,3.2l0.1-0.1C24.4,3,24.3,3,24.3,3.2z"/>
					<path class="st1" d="M24.7,2.8l-0.3,0.2c0.1,0.1,0.1,0.2,0.1-0.1C24.6,3.1,24.6,3,24.7,2.8z"/>
					<path class="st1" d="M24.9,2.9c0.2,0.1,0.4,0.1,0.2,0.3C25.6,3,25.4,2.6,24.9,2.9z"/>
					<path class="st1" d="M26.6,3.8l0.3,0.1L27,3.6C27,3.7,26.6,3.6,26.6,3.8z"/>
					<path class="st1" d="M22.6,3c0,0.1,0.2,0.3,0.2,0.4L23,3.2C22.9,3.2,22.7,3.1,22.6,3z"/>
					<path class="st1" d="M22.9,3.4l-0.3,0.3C22.9,3.6,22.9,3.5,22.9,3.4z"/>
					<polygon class="st1" points="24.4,3.8 24.8,3.2 24.3,3.8 					"/>
					<polygon class="st1" points="21.4,3.3 21.5,3 21.3,3.5 					"/>
					<path class="st1" d="M20.7,3.6c0.1-0.2-0.3-0.3-0.2-0.5c-0.2,0.1-0.3,0.3-0.4,0.5C20.2,3.5,20.4,3.5,20.7,3.6z"/>
					<path class="st1" d="M19.8,4C19.9,3.9,20,3.8,20,3.7C20,3.7,19.9,3.8,19.8,4z"/>
					<path class="st1" d="M22.1,3.8c0-0.1-0.1-0.2-0.3-0.2l0.2,0.3C22,3.8,22,3.8,22.1,3.8z"/>
					<path class="st1" d="M22,3.8L22,3.8c-0.1,0-0.2,0-0.3,0.1C21.7,3.8,21.8,3.8,22,3.8z"/>
					<path class="st1" d="M22.1,3.8L22.1,3.8C22.1,3.8,22.1,3.8,22.1,3.8z"/>
					<path class="st1" d="M23.5,3.7c-0.1,0.2-0.5,0.5,0,0.7C23.6,4.2,23.3,4.1,23.5,3.7z"/>
					<path class="st1" d="M22.4,4.1l0.3,0c0-0.1-0.1-0.2-0.1-0.3L22.4,4.1z"/>
					<polygon class="st1" points="22.2,4.2 22.4,4.1 22.2,4.1 					"/>
					<path class="st1" d="M20.5,4.1c-0.1,0.2-0.3,0.2-0.4,0.3c0.2,0,0.4,0,0.6-0.1C20.6,4.2,20.7,4,20.5,4.1z"/>
					<path class="st1" d="M21.2,4L21.2,4C21.2,4,21.2,4,21.2,4z"/>
					<polygon class="st1" points="18.3,4.9 18.4,5 18.4,4.9 					"/>
					<path class="st1" d="M20.7,4.4c0.2,0,0.2-0.1,0.3-0.2C20.9,4.2,20.8,4.3,20.7,4.4C20.6,4.4,20.7,4.4,20.7,4.4z"/>
					<path class="st1" d="M19.4,4.3c0.1,0,0.2,0.1,0.3,0.1C19.6,4.3,19.4,4.2,19.4,4.3z"/>
					<path class="st1" d="M21.1,3.9L21.1,3.9C21.1,3.9,21.1,3.9,21.1,3.9z"/>
					<path class="st1" d="M21.1,3.9C21,4,21,4.1,21,4.2C21,4.1,21.1,4.1,21.1,3.9C21.2,4,21.1,4,21.1,3.9z"/>
					<path class="st1" d="M18.3,7c0-0.3,0.3-0.7,0.7-0.5c0.3-0.3-0.2-1.2-0.7-1.6c0,0.1,0,0.3-0.1,0.5c0.1,0.1,0.1,0.1,0.3,0.2
						c0.2,0.1,0.3,0.2,0.2,0.3c-0.4,0.3-0.3,0-0.5-0.1c0.1,0.2,0,0.3-0.1,0.5c-0.1,0.2-0.3,0.4-0.2,0.6c0.1-0.1,0.3-0.1,0.4-0.2
						C18.3,6.8,18.2,7,18.3,7z"/>
					<path class="st1" d="M19,4.8l0.1-0.1c-0.2,0-0.3-0.1-0.6-0.3c-0.2,0.2-0.2,0.3-0.2,0.4L19,4.8L19,4.8z"/>
					<path class="st1" d="M19.7,4.6c0,0.3-0.3,0.6,0,0.8c0.4-0.1,0.2-0.3,0.4-0.5C19.5,5.1,20.2,4.6,19.7,4.6
						c0.1-0.1,0.2-0.1,0.3-0.1c-0.1,0-0.2,0-0.4,0l0,0l0,0l0,0c0,0,0.1,0.1,0,0l0,0C19.7,4.5,19.7,4.5,19.7,4.6
						c-0.2,0-0.1-0.1,0-0.1l0,0l0,0l-0.6,0.4C19.3,4.7,19.4,4.7,19.7,4.6z"/>
					<path class="st1" d="M23.4,5.2C23.3,5.2,23.3,5.1,23.4,5.2C23.3,5.2,23.3,5.2,23.4,5.2z"/>
					<path class="st1" d="M23,5.1c0-0.1,0-0.2,0.2-0.2c0.2,0.1,0,0.1,0.1,0.2c0.1-0.1,0.3-0.3-0.1-0.4l0,0.1c-0.3,0-0.7-0.3-0.7-0.4
						C22.7,4.7,22.8,4.9,23,5.1z"/>
					<path class="st1" d="M21.4,4.9l-0.5,0.3l0.3,0.2l-0.1-0.2C21.5,5.2,21.4,5,21.4,4.9z"/>
					<path class="st1" d="M18.2,4.8c0-0.1,0-0.2,0-0.3c0,0.2,0,0.3,0,0.5C18.2,4.9,18.2,4.8,18.2,4.8z"/>
					<path class="st1" d="M18,4.9l0-0.3c0,0.1,0,0.1-0.1,0.2L18,4.9z"/>
					<path class="st1" d="M16.4,24.5l0.2,0.1C16.5,24.6,16.4,24.5,16.4,24.5z"/>
					<path class="st1" d="M15.8,23.5l-0.1,0C15.8,23.5,15.8,23.5,15.8,23.5z"/>
					<path class="st1" d="M1.2,5.2C0.9,5.4,0.5,5.7,0.9,5.7l0.4,0C1.1,5.5,1.1,5.3,1.2,5.2z"/>
					<path class="st1" d="M9.4,16.1l0-0.1c-0.1,0-0.2,0-0.3,0C9.2,16.1,9.3,16.1,9.4,16.1z"/>
					<path class="st1" d="M10.7,15.6l0,0.4C10.7,15.9,10.7,15.7,10.7,15.6z"/>
					<path class="st1" d="M18.4,26.6c0-0.2,0-0.3,0-0.5C18.4,26.2,18.4,26.4,18.4,26.6z"/>
					<path class="st1" d="M11.4,3.2C11.3,3.1,11.1,3,11,2.9C11.2,3.2,11.3,3.5,11.4,3.2z"/>
					<path class="st1" d="M13.2,25.9c0.1,0.1,0.2,0.1,0.2,0C13.3,25.8,13.2,25.8,13.2,25.9z"/>
					<path class="st1" d="M10.4,2.8c0,0,0.1,0.1,0.1,0.1c0.2,0,0.3,0,0.5,0C10.9,2.7,10.7,2.6,10.4,2.8z"/>
					<path class="st1" d="M28.9,8.8C28.9,8.8,28.9,8.7,28.9,8.8C28.9,8.7,28.9,8.7,28.9,8.8z"/>
					<path class="st1" d="M34.1,2.8c0.1,0.1,0.2,0.3,0.3,0.4C34.3,3.2,34.3,3,34.1,2.8z"/>
					<path class="st1" d="M15.8,4.1C16,4.2,15.8,4.1,15.8,4.1L15.8,4.1z"/>
					<path class="st1" d="M16.2,5.6c0,0-0.1,0.1-0.1,0.1C16.1,5.6,16.2,5.6,16.2,5.6z"/>
					<path class="st1" d="M8.5,4.3C8.5,4.3,8.5,4.3,8.5,4.3C8.5,4.4,8.5,4.4,8.5,4.3z"/>
					<path class="st1" d="M16,4.3c0-0.1-0.1-0.1-0.2-0.1C15.8,4.2,15.9,4.3,16,4.3z"/>
					<path class="st1" d="M16,4.2c0,0,0.1,0,0.1,0.1C16.2,4.2,16.1,4.2,16,4.2z"/>
					<path class="st1" d="M15.6,4.1c0.1,0,0.2,0.1,0.2,0.1c0,0,0,0,0-0.1C15.8,4.1,15.7,4.1,15.6,4.1z"/>
					<path class="st1" d="M23.6,20C23.6,20,23.6,20,23.6,20C23.6,19.8,23.6,19.9,23.6,20z"/>
					<path class="st1" d="M6.6,8.5C6.5,8.4,6.5,8.4,6.6,8.5L6.6,8.5L6.6,8.5z"/>
					<path class="st1" d="M7,8.8c-0.5,0-0.5-0.1-0.5-0.3L5.8,9.1L7,8.8z"/>
					<path class="st1" d="M17.6,26.3c0-0.1,0.1-0.2,0.2-0.3c0.4-0.2,0.3-0.2,0.6-0.5c-0.3,0.4-0.4,0.4-0.5,0.3c0,0,0,0-0.1-0.1
						c-0.1-0.1-0.1-0.1-0.2-0.2c-0.1-0.1-0.3-0.1-0.5,0l0.1-0.3c0,0.1,0.1,0,0.1,0.1c0.2-0.7-0.8,0.1-1-0.6c0-0.2,0-0.4,0.2-0.4
						l-0.5-0.3c-0.1-0.1,0.1-0.2,0.2-0.1l-0.5-0.6l0,0c-0.2,0-0.5-0.1-0.7-0.1c0-0.2,0.1,0,0.2-0.1l-0.4-0.2
						c0.1-0.3,0.5-0.1,0.6,0.2c0.7-0.9-0.4-0.2-0.3-1.2l0.3,0.3c0.4-0.5,0-0.7,0.1-1.2c-0.1,0.2-0.3,1.2-0.8,1
						c0-0.1-0.1-0.3-0.4-0.4c0.3-0.2,0.1-0.3-0.1-0.6l0.4-0.2c-0.3-0.2-0.5-0.1-0.8-0.1c-0.1-0.3,0.1-0.6,0.4-0.8
						c-0.2-0.5-0.3,0.6-0.7,0.1c-0.1-0.5-0.4-0.7-1-1c0-0.4,0.3-0.1,0.3-0.3l-0.5-0.1c0-0.1,0.1-0.1,0.1-0.1c-0.3-0.1-0.4,0.2-0.7,0
						c-0.5,0.2,0.3-1.1-0.5-1.2c0.1-0.2,0.3-0.1,0.4-0.2c-0.7-0.4-0.5-0.3-1.3-0.5l0-0.6c-0.1,0.5-0.7,0.3-1.2,0.2
						c-0.1,0.2-0.2,0.4-0.2,0.5l-0.5-0.4c0-0.1,0.2-0.1,0.4-0.2C9.1,16,9,16,9,16c0-0.3,0.3-0.3,0.6-0.3c0,0.1-0.1,0.2-0.1,0.3
						c0.3,0,0.7-0.1,0.9-0.2c-0.1,0-0.1,0-0.2-0.1c0.1,0,0.2,0,0.2-0.1c0,0-0.1,0-0.2-0.1l0.4-0.4l-0.2,0.1l-0.1-0.9
						c-0.8-0.2-1.7-0.2-2.3-0.9c0.5,0,0.6-0.3,1-0.5c-0.3,0.5,0.5,0.5,0.7,1c-0.1-0.2,0.1-0.3,0.2-0.3l-0.8-0.5
						c0.3-0.2,0.2-0.3,0.2-0.6c-0.6,0.5-0.7-0.3-1.1-0.5c0.2-0.1,0.5-0.2,0.6,0.2c0.3-0.7-1.1-0.1-0.9-0.7c0.1,0.1,0.1,0.2,0.2,0.1
						c-0.3-0.1-0.5-0.7-0.2-0.7l0.1,0.1c-0.3-0.6-1-1.8-1.6-1.5c0.1,0,0.7-0.3,0.8-0.3L4.5,9.3c0.5-0.2,1.4-1.2,2-0.9
						c0-0.2,0-0.4-0.4-0.6c0,0.1-0.5,0.6-0.7,0.5c0.3-0.7,0.1-0.4,0.5-0.9C5.9,7.6,5,7.9,4.9,7.6c0.1,0,0.8-0.2,1-0.2
						c-0.3,0-0.7-0.1-1.1-0.2c0.2,0.1,0.8-0.1,1-0.2c-0.2,0-0.1-0.2-0.3-0.3c-0.1,0-0.1,0.1-0.2,0.1c0-0.3-1.8-0.6-2.1-1.2
						C3.6,5.8,4.9,6.3,5,6.2C4.7,6,3.9,5.6,3.1,5C2.7,4.7,2.6,4.5,2.4,4.2C2.3,4,2.2,3.7,2.2,3.5l0.3,0c0-0.2,0.1-0.4,0.2-0.6
						c0.1,0.2,0.1,0.4,0.2,0.6C2.9,3.7,3,3.8,3,3.9c0,0.1,0.2,0.3,0.3,0.5C4,5.2,4.7,5.8,5.1,6c0.3,0,0.4,0.2,0.4,0
						C5.9,6.2,6,6.4,6.1,6.4c0.1-0.1,0.2-0.1,0.3-0.1C5.6,5.8,5.8,5.6,5.3,5.1C5.3,5.4,5.5,5.7,5.7,6C5.3,5.8,4.8,5.4,4.5,5
						C4.2,4.6,4.1,4.1,4.4,4c0.3,0.2,1,1.1,1.2,1.3C5.4,5.1,5.6,4.8,5.7,5c0,0.1,0.1,0.2,0.1,0.4c0.2,0.1,0.1-0.1,0-0.3
						c0-0.2,0-0.2,0.3,0.1C6.3,5.2,6.8,6,6.7,5.7C6.4,5.3,6,4.6,5.6,3.9C5.4,3.5,5.3,3.2,5.2,3C5,2.7,5,2.5,5,2.4
						c0.1,0,1.2,0.8,1.5,1.1c0.2,0.3,0.2,0.6,0.2,0.8c0,0.3,0,0.5,0.2,0.8c0-0.2,0-0.3,0-0.4C6.9,5,6.8,5.3,7,5.2
						C7,4.7,7.4,5.4,7,4.8C7.3,4.7,7.3,5,7.6,5c0-0.2,0.1-0.4,0.3-0.7C8,4.2,8.3,4,8.5,4c-0.1,0.1,0,0.3,0,0.4
						c0.7,0.2,1,0.6,1.6,0.7c0,0.1,0.3,0.4,0.1,0.5c0.1-0.1,0.2-0.2,0.4-0.2C10.9,6,10.2,5.4,10.3,6c0.1-0.3,0.6-0.3,0.9-0.4
						c0-0.5-0.6-0.3-1-0.2c0.2-0.6,0.8-1.1,1.6-1.2c0.6,0,0.1,0.5,0.2,0.4c1,0.4,1.1-0.8,1.8-0.2c0.2,0.5-0.2,0.8-0.2,1.1
						c-0.5,0-0.6-0.4-0.9-0.5l0.3,0.3c-0.2,0.1-0.5,0.1-0.6,0c0.2,0.4,1.7,0.5,2.4,1c0.2-0.1,0.4-0.2,0.4-0.4l-0.3,0
						c-0.1-0.4,0.6-0.3,0.3-0.5c0.4-0.1,0.8-0.4,1.3-0.1l0,0.5c0-0.1-0.2-0.3-0.4-0.2c0.2-0.1,0.5,0.8,0.9,0.3l-0.2-0.4
						c0.2-0.1,0.4-0.2,0.7-0.3c0.2-0.1,0.3-0.2,0.4-0.1c0-0.5-0.1,0-0.1-0.5c0,0.2,0,0.2-0.1,0.3c0,0-0.2,0-0.3,0
						c-0.2-0.1-0.5-0.1-0.4,0.3c-0.1-0.7-0.4-0.4-0.7-1c0,0.1,0.1,0.3-0.3,0.2c0,0-0.1,0.1-0.1,0.1c0,0,0,0,0,0l0,0c0,0,0,0,0,0
						c0.1,0.1,0.1,0.2,0.1,0.3c-0.3,0.3-0.8,0.1-1,0.3c-0.2-0.1,0.1-0.1,0.1-0.3l-0.3,0.2c0.1-0.3-0.4-0.7,0.1-0.7l-0.4-0.1
						c-0.2-0.3-0.5-0.4-0.8-0.3c-0.2-0.1-0.6,0.2-0.4,0l-0.7,0l0-0.1c-0.7-0.2-1.5,0.2-2.1-0.6c-0.2,0-0.5,0.1-0.9-0.1l0-0.3
						c-0.3,0-0.8-0.5-1-0.3c0-0.2-0.2-0.4-0.5-0.5c-0.3-0.1-0.6-0.2-1-0.3C6.5,1.3,5.8,1.2,5.4,1l0.1,0.4c-0.6-0.1-1,0-1.4,0.2
						L4.3,2C4.1,2.1,3.8,2,3.5,2.1c-0.4,0-0.8,0.1-1.1,0.4C2.3,2.3,2.5,2.2,2.7,2.2c-0.7,0-1,0.5-1.1,1c-0.1,0.5,0,1.1-0.3,1.3
						c0.1,0.2,0.1,0.4,0,0.5c0,0,0,0,0-0.1c0,0,0,0,0,0.1c0,0.1-0.1,0.1-0.2,0.2c0.1-0.1,0.1-0.1,0.2-0.2c0,0.1,0.1,0.4,0.3,0.6
						l-0.4,0c0,0,0,0,0,0.1C1.1,6,1.5,6,1.8,5.9C1.9,6,2,6.2,2.1,6.3C1.5,6.4,2.6,6.9,2.1,7.1c0.4,0.2,1,1.2,1.7,1.1
						c-0.1,0-0.1,0.1-0.1,0C3.7,8.5,3.8,8.8,4,8.9L3.7,9.2l0.8,0.1C4.4,9.7,4.3,9.9,3.8,9.8c0.8,0.3,0.5,0.4,1.2,0.6l-0.3,0.1
						c0.1,0.2,0.6,0.2,0.5,0.5c-0.3,0.7,1.1,2,1.2,3.3c0.6-0.6-0.1,0.7,0.5,0.4c-0.1,0.2-0.2,0.4-0.4,0.3c0.5,0.4,0.2,0.9,0.9,1
						c-0.1,0.2-0.3,0-0.4,0.2c0.1,0,0.3,0.1,0.2,0.2c-0.1,0.1-0.2,0-0.3,0c0.3,0.5,0.9,0.2,1.5,0c-0.1,0.4,0,0.5,0.5,0.5
						c-0.1,0.2-0.2,0.5-0.5,0.2c0.1,0.2,0.4,1.3,0.8,1c-0.1,0.1,0.1,0.3,0.2,0.3c0.2,0.4,0.2,0.5,0.5,0.9l0-0.2
						c0.6-0.1,0.3,0.3,0.6,0.6l-0.1,0c0.1,1,0.4,0.2,0.4,1.2l0.3-0.2c0.7-0.3,0,0.9,0.5,1.2l0.1-0.3c0.4,0.1-0.5,1.2-0.5,1.5
						c0,0.1-0.1,0-0.2-0.1c0,0.8,0.5-0.2,0.8,0.2c-0.2,0.2-0.6,0.2-0.5,0.6c-0.1,0.3,1.2,0.5,1.1,1.1c0.1-0.2,0.2-0.4,0.5-0.2
						c0.3,0.3-0.1,1.3,0.6,1.2c0,0.1-0.1,0.1-0.1,0.1c0.3,0.2,0.7,0.7,1.1,0.7c-0.5,0.4-0.1,0.7,0.2,1c0.4,0.4,0.8,0.7,0.4,1.1
						c0.2,0.4,0.5,0.7,0.7,1l-0.1,0.1c0.5,0.7,0.8,0.5,1,0.4c0.1,0.2,0,0.2-0.1,0.3c0.4,0.4,0.7,0.5,1,0.6c0.3,0,0.6-0.1,1-0.5
						l0.1,0.4c0.1-0.1,0.5-0.1,0.9-0.2c0.4-0.1,0.9-0.5,1.1-1.1c0,0,0,0.1,0,0.3c0.3-0.7,0.8-1.2,1.3-1.8c0.1-0.1,0.2-0.2,0.3-0.3
						c0.1-0.1,0.1-0.2,0.1-0.3c0-0.2,0-0.4-0.3-0.6l0-0.7c-0.5,0.6-0.5-0.4-0.8-0.2c0.1-0.3,0.7-0.5,0.6-0.1l-0.1,0
						c0.5,0.5,0.7-0.7,1.1-0.5c0.7-1.4,1.8-2.5,2.5-3.7l-0.6-0.1l0.3-0.4c0.2-0.1,0.5,0.1,0.3,0.4c0.4,0,0.1-0.7,0-0.7
						c0.5-0.5,0.4,0.6,0.5,0.4l0.1-0.3l-0.1,0c-0.1-0.3-0.3-0.5,0-0.8c0.2-0.2,0.4,0,0.4,0c0,0,0.1,0,0.1-0.1l0.4-0.5l-0.5,0
						c0-0.4,0.3-0.5-0.3-0.5c0.9,0,1.4-1.9,1.7-2c-0.1-0.5,0.1-0.8,0.4-1.2c-0.1,0.1-0.6-0.1-0.3-0.4c0.8,0.6,0.8-0.5,1.5-0.4
						c-0.6,0,0.5-1.1-0.3-1c0.2-0.3,0.3,0.2,0.7,0.1c0.1-0.9,1.1-1.5,1.5-2.4c-0.1-0.1-0.4,0-0.4-0.3l0.8-0.1c0-0.2-0.6-0.5,0-0.6
						c-0.1,0-0.3,0-0.3-0.2c0.8-0.7,1.2-1.7,1.6-2.6c0.2-0.5,0.5-0.9,0.8-1.3l0.1-0.2l0.2-0.3c0.1-0.2,0.2-0.4,0.3-0.7
						c0.2-0.5,0.2-1,0.2-1.6c-0.1,0.6-0.2,0.2-0.4-0.1c0.1,0.3-0.3,0.1-0.4,0.2c0-0.5-0.2-1-0.5-1.4c-0.3,0.1-0.6-0.1-1-0.2
						C32,1.8,31.6,1.8,31.6,2C31.7,2,31.8,2,32,2c-0.3,0.2-0.1,0.6,0,0.9C32.1,3.3,32,3.7,31.9,4C32.1,3.7,32.1,4,32,4.2
						c-0.1,0.2-0.3,0.2,0.2,0.3c-0.1,0-0.2,0-0.4,0c0.3,0,0.4,0.1,0.2,0.2l-0.1,0l0,0.1l-0.1,0.1C31.8,5,31.7,5,31.7,5.1
						c-0.1,0.2-0.2,0.3-0.4,0.5c-0.3,0.3-0.6,0.6-1,1.1l0.4,0.1c-0.2,0.2-0.3,0.2-0.4,0.2c0.3,0.5,0.4-0.6,0.8-0.1
						c-0.8-0.1-0.9,1.6-1.7,1.3c-0.2,0.3,0.4,0.1,0.2,0.4l-0.2,0l0.2,0.2C29.3,9.1,29,9.1,28.8,9c0,0,0-0.2,0.1-0.2
						c-0.4,0.2-0.4,0.9-0.5,0.9l0.3-0.3c-0.3,1-1.2,2-1.3,3.1l0.2,0c-0.1,0.8-0.5,0.5-0.8,1.3l0,0c0.1,0.2,0,0.5-0.1,0.7
						c-0.1-0.3-0.5,0.2-0.6-0.2c-0.1,0.9,0,0.5,0.3,1.3l-0.3,0c0.1,0.3,0.2,0.4,0.1,0.8c0-0.4-0.5,0-0.6-0.5c-1,0.5-0.1,1.5-1.1,1.4
						c0.5,0.7,0.8-0.5,0.8-0.2c0.3,0,0.3,0.6,0.1,0.8c-0.2,0.2-1.1-0.1-1.4,0.6c0-0.1,0-0.1,0-0.2c-0.3,0.1,0,0.6-0.5,0.7
						c0.3,0.4-0.2,0.4,0.3,0.7l0.2-0.6c0,0.4,0.4,1.1-0.2,1.4c-0.1-0.1-0.1-0.3-0.1-0.5c-0.2,0.1-0.1,0.4-0.3,0.4
						c-0.5-0.3,0.3-0.8,0.1-1.3c-0.3,0,0,0.9-0.5,0.4c0.6,0.7-0.4,0.6-0.1,1.3l-0.3-0.2c0,0.1,0.1,0.3,0,0.4l-0.3-0.5
						c0.1,0.5-0.7,0.5-0.7,0.9c0.4-0.7,0.5,0.1,0.9-0.1c-0.1,1.1-1.1,0-1.5,1.1c0-0.2,0.5-0.4,0.5-0.1c-0.2,0.1-0.4,0.3-0.6,0.3
						c-0.3,0.7,0.4,0.1,0.4,0.5c-0.5,0,0,0.4-0.1,0.7l-0.3-0.2c-0.6,0.6,0.5,0.6-0.1,1.1l-0.3-0.5l-0.1,0.4L20,24.4
						c0.1,0.5-0.1,0.6-0.4,0.9c0.3,0,0.5,0.4,0.4,0.7c-0.3,0.1-0.2-0.3-0.4,0.2c-0.1-0.2-0.3-0.5,0.1-0.5c-0.1-0.1-0.1-0.2-0.2-0.3
						C19.1,25.5,19,26.1,19,26c0,0,0.1,0,0.1,0c0.1,0.2,0.2,0.4,0.2,0.6c-0.1,0-0.2-0.2-0.2-0.3c0,0.1,0.1,0.2,0.1,0.4
						c-0.2-0.3-0.4-0.5-0.5-0.7c0.1,0.1,0.1,0.3,0.1,0.4c-0.1-0.1-0.3-0.3-0.3-0.4c-0.1-0.1,0,0.1,0,0.3c0,0.2,0,0.5-0.1,0.3
						c0,0.1,0,0.2,0,0.2c-0.2-0.1-0.2-0.6-0.5-0.1c0-0.3,0.1-0.5,0.1-0.7c0,0-0.1,0.3-0.2,0.5c-0.1,0.2-0.1,0.5-0.3,0.5
						c-0.2,0,0.2-0.6,0.2-0.8c-0.1,0.1-0.2,0.3-0.4,0.3c-0.1,0-0.2-0.1-0.1-0.3C17.6,26.2,17.5,26.3,17.6,26.3z M14.8,22.1
						c0.1,0.1,0.4,0.1,0.3,0.3C14.7,22.5,14.8,22.3,14.8,22.1z M9.6,15c0.1,0,0.2,0.1,0.1,0.3C9.6,15.3,9.6,15.2,9.6,15z M14.1,4
						L14.1,4C13.9,3.8,14,3.9,14.1,4z M14.6,4.3c0.1,0,0.1-0.1,0.1-0.1c-0.1,0.1-0.2,0.1-0.3,0C14.4,4.2,14.4,4.3,14.6,4.3z
						 M26.5,19.8l-0.1,0C26.4,19.6,26.4,19.7,26.5,19.8z"/>
					<path class="st1" d="M10.5,15.6c0,0.1-0.1,0.1-0.1,0.1C10.5,15.8,10.5,15.8,10.5,15.6z"/>
					<polygon class="st1" points="18.5,26.7 18.5,26.7 18.4,26.6 					"/>
					<path class="st1" d="M6.9,5.4C6.8,5.3,6.8,5.3,6.7,5.2C6.8,5.3,6.8,5.4,6.9,5.4z"/>
					<path class="st1" d="M17.4,4.4l-0.3,0c0.2,0,0.2,0.1,0.3,0.2C17.3,4.5,17.3,4.4,17.4,4.4z"/>
					<path class="st1" d="M19.6,6.4c0-0.1,0.1,0,0.1-0.1l-0.1-0.2C19.4,6.3,19.3,6.4,19.6,6.4z"/>
					<path class="st1" d="M17.3,5.6c0,0.2,0,0.2,0.1,0.2c0.1,0,0.1,0,0.2,0c0,0,0,0,0,0C17.7,5.4,17.6,5.6,17.3,5.6z"/>
					<path class="st1" d="M17.7,5.9c0,0,0.1,0,0.1,0C17.9,5.7,17.8,5.8,17.7,5.9z"/>
					<path class="st1" d="M15.3,4.3c0.1,0.1,0.2-0.4,0.2-0.2C15.7,3.7,14.6,4.3,15.3,4.3z"/>
					<polygon class="st1" points="17.3,6.6 17.3,6.3 17.1,6.5 					"/>
					<path class="st1" d="M15.6,5.9l0.3,0.2C15.9,6,16,6,16,6C15.8,5.9,15.6,5.8,15.6,5.9z"/>
					<path class="st1" d="M16,6c0.1,0,0.2,0.1,0.3,0C16.3,6,16.1,6,16,6z"/>
					<polygon class="st1" points="16.8,6.6 16.7,6.5 16.4,6.4 					"/>
					<path class="st1" d="M11.8,4.8l-0.4,0c-0.1,0.1,0,0.2,0.2,0.2C11.7,5,11.8,5,11.8,4.8z"/>
					<path class="st1" d="M12.7,6.1c-0.1-0.1-0.1-0.2-0.1-0.3l-0.1,0.4L12.7,6.1z"/>
					<path class="st1" d="M11.5,5.9c-0.1,0.1-0.7,0.2-0.2,0.3C11.4,6.1,11.9,6.1,11.5,5.9z"/>
					<path class="st1" d="M6,3.8L6,3.8L5.7,3C5.8,3.3,5.9,3.5,6,3.8z"/>
					<path class="st1" d="M6.1,6.7c0.2-0.1-0.7-0.2-0.4-0.2C5.4,6.4,5.5,6.5,5.3,6.4C5.6,6.6,5.5,6.6,6.1,6.7z"/>
					<path class="st1" d="M5.3,6.4c-0.1,0-0.1-0.1-0.2-0.1C5.2,6.4,5.2,6.4,5.3,6.4z"/>
					<path class="st1" d="M32.5,1.2C32.3,1.1,32,1.1,31.8,1c0.1,0.1,0.3,0.2,0.4,0.3L32.5,1.2z"/>
					<path class="st1" d="M31.3,1.7c-0.1-0.2-0.1-0.3-0.2-0.5c-0.1,0.2-0.2,0.3-0.2,0.5C30.9,1.7,31.2,1.6,31.3,1.7z"/>
					<path class="st1" d="M15.2,20.8l-0.1,0c-0.1,0.1-0.1,0.2,0,0.3L15.2,20.8z"/>
					<polygon class="st1" points="17,24.6 17,24.5 16.7,24.9 					"/>
					<path class="st1" d="M18.2,25.6C18.3,25.6,18.2,25.7,18.2,25.6C18.2,25.6,18,26.2,18.2,25.6z"/>
				</g>
			</g>
		</g>
	</g>
</g>
</svg>
