<svg id="Calque_1" data-name="Calque 1" xmlns="http://www.w3.org/2000/svg" viewBox="0 0 34.87 30.08"><defs><style>.cls-1{fill:#4261aa;}.cls-2{fill:#3d4e93;}</style></defs><title>fleche-down</title><path class="cls-1" d="M31.49,2A1.58,1.58,0,0,1,33.34,4.3L26.8,15.64,19.71,28a1.62,1.62,0,0,1-2.77,0L9.56,15.83,2.78,4.65A1.57,1.57,0,0,1,4.57,2.34l13,3.4a1.67,1.67,0,0,0,.86,0Z" transform="translate(-0.24 0.08)"/><path class="cls-2" d="M30.89.29c.14,0,0-.31,0-.37C30.69.05,30.91.36,30.89.29Z" transform="translate(-0.24 0.08)"/><polygon class="cls-2" points="28.65 1.68 28.66 1.54 28.42 1.94 28.65 1.68"/><path class="cls-2" d="M26.85,2.17c.34.47.71-.29,1.13-.21l.1.1,0-.46C27.7,1.79,27.2,2.23,26.85,2.17Z" transform="translate(-0.24 0.08)"/><path class="cls-2" d="M25.44,1.35c.12.19-.19.25.27,0l-.06,0Z" transform="translate(-0.24 0.08)"/><path class="cls-2" d="M25.65,1.31c.21-.08-.19-.13,0,0Z" transform="translate(-0.24 0.08)"/><path class="cls-2" d="M24.69,1.71l.23-.27c-.09-.1-.35-.05-.29-.17C24.37,1.45,24.47,1.56,24.69,1.71Z" transform="translate(-0.24 0.08)"/><path class="cls-2" d="M24.53,2.16,24.65,2S24.57,2,24.53,2.16Z" transform="translate(-0.24 0.08)"/><path class="cls-2" d="M24.92,1.79,24.65,2c.07.08.12.24.13-.1C24.8,2.11,24.82,1.94,24.92,1.79Z" transform="translate(-0.24 0.08)"/><path class="cls-2" d="M25.12,1.82c.19.07.41.08.18.35C25.82,1.94,25.64,1.6,25.12,1.82Z" transform="translate(-0.24 0.08)"/><path class="cls-2" d="M26.9,2.74l.25.09.14-.22C27.22,2.72,26.84,2.58,26.9,2.74Z" transform="translate(-0.24 0.08)"/><path class="cls-2" d="M22.84,1.94c0,.11.18.26.24.4l.18-.19C23.13,2.11,22.9,2.1,22.84,1.94Z" transform="translate(-0.24 0.08)"/><path class="cls-2" d="M23.08,2.34l-.26.28C23.11,2.56,23.14,2.46,23.08,2.34Z" transform="translate(-0.24 0.08)"/><polygon class="cls-2" points="24.4 2.83 24.8 2.29 24.3 2.87 24.4 2.83"/><polygon class="cls-2" points="21.4 2.34 21.5 2.03 21.3 2.51 21.4 2.34"/><path class="cls-2" d="M20.86,2.53c.07-.25-.28-.31-.18-.48a1.25,1.25,0,0,0-.46.55A.58.58,0,0,1,20.86,2.53Z" transform="translate(-0.24 0.08)"/><path class="cls-2" d="M20,2.92a2.22,2.22,0,0,0,.21-.32A.81.81,0,0,0,20,2.92Z" transform="translate(-0.24 0.08)"/><path class="cls-2" d="M22.27,2.72a.48.48,0,0,0-.33-.25l.21.28Z" transform="translate(-0.24 0.08)"/><path class="cls-2" d="M22.16,2.76h0l-.27,0Z" transform="translate(-0.24 0.08)"/><path class="cls-2" d="M22.3,2.71h0S22.3,2.75,22.3,2.71Z" transform="translate(-0.24 0.08)"/><path class="cls-2" d="M23.74,2.71c-.14.22-.47.52,0,.68C23.79,3.14,23.53,3.05,23.74,2.71Z" transform="translate(-0.24 0.08)"/><path class="cls-2" d="M22.57,3.06l.35,0c0-.08-.12-.18-.06-.29Z" transform="translate(-0.24 0.08)"/><polygon class="cls-2" points="22.19 3.28 22.33 3.13 22.2 3.14 22.19 3.28"/><path class="cls-2" d="M20.66,3.05a.77.77,0,0,1-.43.3,1.68,1.68,0,0,0,.6-.07C20.83,3.18,20.86,3,20.66,3.05Z" transform="translate(-0.24 0.08)"/><path class="cls-2" d="M21.4,2.93l0,0S21.41,3,21.4,2.93Z" transform="translate(-0.24 0.08)"/><polygon class="cls-2" points="18.24 3.92 18.28 3.97 18.27 3.92 18.24 3.92"/><path class="cls-2" d="M20.88,3.33c.16,0,.23-.08.28-.2a1.66,1.66,0,0,1-.33.15C20.83,3.33,20.84,3.36,20.88,3.33Z" transform="translate(-0.24 0.08)"/><path class="cls-2" d="M19.56,3.2l.3.1C19.76,3.22,19.57,3.11,19.56,3.2Z" transform="translate(-0.24 0.08)"/><path class="cls-2" d="M21.3,2.89v0C21.25,2.81,21.26,2.84,21.3,2.89Z" transform="translate(-0.24 0.08)"/><path class="cls-2" d="M21.3,2.89a1,1,0,0,0-.14.24A1.2,1.2,0,0,0,21.37,3Z" transform="translate(-0.24 0.08)"/><path class="cls-2" d="M18.49,6a.46.46,0,0,1,.69-.46c.25-.31-.22-1.2-.65-1.66,0,.12,0,.26-.17.5.05.15.8.17.57.52-.39.27-.38,0-.56-.12.1.16,0,.33-.08.52a1,1,0,0,0-.21.65,1.7,1.7,0,0,0,.38-.26C18.49,5.78,18.36,6,18.49,6Z" transform="translate(-0.24 0.08)"/><path class="cls-2" d="M19.16,3.74l.13-.07a1.22,1.22,0,0,1-.58-.26c-.19.21-.21.33-.19.43l.68-.15Z" transform="translate(-0.24 0.08)"/><path class="cls-2" d="M19.89,3.5c0,.34-.3.57,0,.85.39-.13.2-.34.4-.54-.62.26.13-.23-.38-.28a1.16,1.16,0,0,1,.32-.18,2.35,2.35,0,0,1-.37-.05l0,0h0s.06.05,0,0h0a.28.28,0,0,1,0,.13c-.2,0-.05-.08,0-.13V3.32h0l-.59.35A1.49,1.49,0,0,0,19.89,3.5Z" transform="translate(-0.24 0.08)"/><path class="cls-2" d="M23.57,4.16a.13.13,0,0,1-.05-.06C23.49,4.15,23.49,4.18,23.57,4.16Z" transform="translate(-0.24 0.08)"/><path class="cls-2" d="M23.25,4.05c0-.06,0-.2.2-.21s0,.15.07.26c.07-.11.26-.32-.07-.39l0,0c-.29,0-.74-.33-.7-.39A2.41,2.41,0,0,0,23.25,4.05Z" transform="translate(-0.24 0.08)"/><path class="cls-2" d="M21.58,3.86l-.5.3.35.2-.06-.16C21.7,4.18,21.57,4,21.58,3.86Z" transform="translate(-0.24 0.08)"/><path class="cls-2" d="M18.38,3.7l0-.35a1.41,1.41,0,0,0-.11.54C18.24,3.84,18.3,3.78,18.38,3.7Z" transform="translate(-0.24 0.08)"/><path class="cls-2" d="M18.06,3.83l0-.3a1.16,1.16,0,0,1,0,.18Z" transform="translate(-0.24 0.08)"/><path class="cls-2" d="M16.23,23.34l.16.09A.54.54,0,0,0,16.23,23.34Z" transform="translate(-0.24 0.08)"/><path class="cls-2" d="M15.63,22.32l-.14.05C15.59,22.37,15.65,22.36,15.63,22.32Z" transform="translate(-0.24 0.08)"/><path class="cls-2" d="M.73,3.91c-.26.16-.73.36-.35.42H.75A.44.44,0,0,1,.73,3.91Z" transform="translate(-0.24 0.08)"/><path class="cls-2" d="M9.11,14.93l.05-.11-.36,0Z" transform="translate(-0.24 0.08)"/><path class="cls-2" d="M10.36,14.37l0,.38A.91.91,0,0,0,10.36,14.37Z" transform="translate(-0.24 0.08)"/><path class="cls-2" d="M18.42,25.65a3.87,3.87,0,0,0,0-.48S18.39,25.42,18.42,25.65Z" transform="translate(-0.24 0.08)"/><path class="cls-2" d="M11.49,2.28A1.26,1.26,0,0,0,11,2C11.23,2.21,11.36,2.53,11.49,2.28Z" transform="translate(-0.24 0.08)"/><path class="cls-2" d="M13,24.75a.22.22,0,0,0,.24,0C13.14,24.71,13.06,24.69,13,24.75Z" transform="translate(-0.24 0.08)"/><path class="cls-2" d="M10.47,1.81a.76.76,0,0,1,.08.11A.92.92,0,0,1,11,2C10.9,1.78,10.72,1.64,10.47,1.81Z" transform="translate(-0.24 0.08)"/><path class="cls-2" d="M29.18,7.76l.06,0S29.19,7.72,29.18,7.76Z" transform="translate(-0.24 0.08)"/><path class="cls-2" d="M34.43,1.8a2,2,0,0,1,.29.45A1.09,1.09,0,0,0,34.43,1.8Z" transform="translate(-0.24 0.08)"/><path class="cls-2" d="M15.9,3.16c.16,0,0,0,0,0Z" transform="translate(-0.24 0.08)"/><path class="cls-2" d="M16.3,4.61a.26.26,0,0,0-.1.14A.27.27,0,0,1,16.3,4.61Z" transform="translate(-0.24 0.08)"/><path class="cls-2" d="M8.47,3.41h0C8.49,3.48,8.48,3.47,8.47,3.41Z" transform="translate(-0.24 0.08)"/><path class="cls-2" d="M16.09,3.36a.79.79,0,0,0-.17-.14A1,1,0,0,0,16.09,3.36Z" transform="translate(-0.24 0.08)"/><path class="cls-2" d="M16.1,3.21l.12.06S16.25,3.19,16.1,3.21Z" transform="translate(-0.24 0.08)"/><path class="cls-2" d="M15.69,3.13a.58.58,0,0,1,.23.09s0-.05,0-.06Z" transform="translate(-0.24 0.08)"/><path class="cls-2" d="M23.67,19.08h0C23.68,18.86,23.66,18.93,23.67,19.08Z" transform="translate(-0.24 0.08)"/><path class="cls-2" d="M6.11,7.2h0v0Z" transform="translate(-0.24 0.08)"/><path class="cls-2" d="M6.61,7.54c-.47,0-.5-.13-.52-.32l-.72.64Z" transform="translate(-0.24 0.08)"/><path class="cls-2" d="M17.54,25.31a2.11,2.11,0,0,1,.16-.3c.44-.21.29-.13.59-.45-.37.39-.43.35-.49.29-.22-.31-.44-.61-.89-.37l.05-.33c0,.07.09.05.12.11.16-.68-.83.08-1-.55,0-.23,0-.44.19-.37l-.48-.29a.09.09,0,1,1,.17-.07l-.46-.6h0a3.51,3.51,0,0,1-.69-.14c0-.24.15,0,.23-.08l-.43-.23c.14-.28.54-.12.66.15.67-.87-.4-.17-.33-1.2l.32.27c.37-.52,0-.68.1-1.25-.1.19-.32,1.25-.77,1,0-.15-.06-.31-.36-.42.31-.19.11-.35-.06-.59l.42-.24c-.29-.2-.48-.05-.77-.1-.15-.33.14-.59.36-.83-.23-.53-.31.66-.74.12-.09-.51-.43-.7-1-1,0-.37.28-.1.34-.28l-.49-.05c0-.07.09-.11.14-.13-.25-.14-.42.23-.74,0-.51.18.25-1.1-.52-1.21.05-.17.28-.1.42-.23a3.46,3.46,0,0,0-1.29-.53l0-.57c-.13.48-.73.33-1.23.18a3,3,0,0,0-.19.47L8.37,15c0-.11.21-.14.43-.16l-.15,0c0-.28.33-.33.65-.33l-.14.34a1.76,1.76,0,0,0,.91-.24.46.46,0,0,1-.22-.11.34.34,0,0,0,.2-.06c0-.05-.1-.05-.26-.07l.39-.4L10,14l-.13-.87a4.67,4.67,0,0,1-2.37-.89c.46,0,.58-.29,1-.53-.3.47.54.5.7,1a.22.22,0,0,1,.24-.3l-.83-.49c.34-.18.16-.3.18-.57-.56.54-.76-.28-1.14-.45.21-.15.47-.22.64.17.25-.69-1.08,0-.9-.68.06.08.06.15.19.11-.32-.08-.47-.68-.21-.67l.06.08c-.28-.63-1.07-1.77-1.67-1.53.06,0,.71-.32.84-.36L4.08,8.1c.53-.19,1.45-1.23,2-.91A.82.82,0,0,0,6,6.9c0-.1-.16-.22-.27-.22s-.6.55-.71.48c.19-.29.25-.35.29-.43a1,1,0,0,1,.25-.33c-.07.11-1,.27-1.08.06.15,0,.9-.17,1-.15a4.86,4.86,0,0,1-1.1-.24l-.06,0,.06,0a1.86,1.86,0,0,0,.62,0L5.45,6c-.18,0-.12-.22-.26-.31A.76.76,0,0,0,5,5.77c0-.16-.47-.31-1-.54S3,4.72,2.88,4.4A4.88,4.88,0,0,0,4.65,5a10,10,0,0,1-1.92-1.3,1.37,1.37,0,0,1-.36-.41,1.93,1.93,0,0,1-.21-.4,1.11,1.11,0,0,1-.09-.72l.3.05a2.35,2.35,0,0,1,.23-.57c0,.17.1.39.16.64a3.18,3.18,0,0,0,.11.38,1.51,1.51,0,0,0,.29.5A8.23,8.23,0,0,0,4.8,4.9c.32,0,.44.2.45,0a1.19,1.19,0,0,1,.53.44.58.58,0,0,1,.32-.07c-.74-.55-.48-.74-1-1.25a2.09,2.09,0,0,0,.34.9A4.19,4.19,0,0,1,4.3,3.82C4,3.39,4,3,4.33,3A14.75,14.75,0,0,1,5.47,4.32c-.18-.25,0-.47.13-.29s.07.22.12.34.08-.09.06-.24,0-.23.29.1c.12.06.56.82.41.47L5.58,3A5.64,5.64,0,0,1,5,1.46,5.58,5.58,0,0,1,6.41,2.64a1.19,1.19,0,0,1,.1.82,1.4,1.4,0,0,0,.11.76.54.54,0,0,1,0-.36c.13.15,0,.45.23.44,0-.54.44.16.07-.44.25-.08.25.18.52.23-.06-.37.61-1,1-1.07a.74.74,0,0,0,0,.39c.69.23,1,.55,1.65.73,0,.13.3.36.11.54.12-.06.25-.21.45-.17.28.53-.46,0-.3.55.1-.29.62-.27.95-.38,0-.47-.63-.25-1-.15a1.91,1.91,0,0,1,1.58-1.25c.58,0,.13.47.25.4,1,.37,1.14-.86,1.87-.19.23.48-.19.79-.19,1.1-.48,0-.61-.43-.91-.49l.31.28c-.17.09-.49.12-.62,0,.19.43,1.69.52,2.39,1,.17-.1.45-.17.38-.36h-.27c-.14-.38.58-.32.31-.55.39-.14.85-.39,1.27-.09l0,.47c0-.13-.23-.35-.4-.24.25-.15.56.79.93.26L17,4.47c.12,0,.26-.11.4-.17l.22-.09a.74.74,0,0,0,.12-.09c.09,0,.15-.07.21,0,0-.47-.06,0-.08-.51,0,.17,0,.25-.08.28s-.24,0-.4-.07-.26,0-.17.31c-.15-.68-.46-.39-.72-1,0,.16.07.32-.26.16a.57.57,0,0,1-.11.11l0,0v0s0,0,0,0a.5.5,0,0,1,.12.27c-.26.29-.81.14-1.05.27-.18-.13.14-.15.06-.34l-.34.19c0-.34-.41-.69.13-.76l-.44-.12a.8.8,0,0,0-.79-.34c-.19-.13-.62.23-.37,0l-.74,0,0-.08c-.67-.22-1.54.18-2.16-.61a1.33,1.33,0,0,1-.86-.13V1.48c-.32,0-.81-.51-1-.25A.59.59,0,0,0,8.41.79a3.76,3.76,0,0,0-1-.29A13.32,13.32,0,0,1,5.54.09l.08.42A2.37,2.37,0,0,0,4,.6L4.26,1c-.16.14-.45.06-.82,0a1.64,1.64,0,0,0-1.12.22c0-.13.15-.2.33-.2a1.08,1.08,0,0,0-1.2.88c-.18.51-.17,1.05-.49,1.33.09.26.05.38,0,.48s0,0,0,0a.19.19,0,0,0,0,.08,1.62,1.62,0,0,0-.17.19.47.47,0,0,0,.18-.15,1.46,1.46,0,0,0,.23.61l-.39,0,0,.06c-.11.18.25.22.52.18a2.32,2.32,0,0,0,.35.35c-.65.05.46.6-.16.8a1.47,1.47,0,0,1,.47.4c.36.37.78.85,1.27.81-.09,0-.09.11-.16,0a.92.92,0,0,0,.45.68l-.35.31a4.29,4.29,0,0,0,.44.13c.14,0,.26,0,.39,0-.09.39-.17.57-.62.52.82.29.46.36,1.23.57l-.28.13c.12.18.64.25.49.48-.25.69,1.12,2,1.28,3.29.64-.66,0,.67.56.36-.15.17-.16.37-.42.3.49.41.19.95.9,1-.14.17-.33.05-.4.17s.25.07.18.19-.2,0-.32,0c.35.51.93.23,1.47-.05-.08.42,0,.53.49.52-.11.2-.19.46-.45.17.08.2.43,1.28.86,1-.07.12.12.28.2.3a4.38,4.38,0,0,0,.5.87v-.15c.6-.15.32.27.57.56l-.05,0c.09,1,.37.22.41,1.21l.28-.23c.71-.33,0,.9.52,1.18l.09-.27c.37.1-.51,1.21-.45,1.5,0,.09-.15,0-.23-.07,0,.86.45-.17.83.23-.17.22-.63.23-.48.57-.09.26,1.26.47,1.09,1.15.12-.2.23-.4.49-.26.26.29-.1,1.28.61,1.25a.26.26,0,0,1-.1.14c.29.17.73.67,1.11.65-.47.44-.1.75.26,1a2.73,2.73,0,0,1,.25.2.87.87,0,0,1,.22.27.4.4,0,0,1-.13.55c.25.37.49.74.75,1.07l-.09.08c.46.74.79.59,1.05.49.08.19,0,.22-.07.27a1.41,1.41,0,0,0,.94.62,1.48,1.48,0,0,0,1-.39l.11.36c.11-.12.51,0,1-.13a1.58,1.58,0,0,0,1.18-1.08.41.41,0,0,1,0,.26,6.58,6.58,0,0,1,1.35-1.81c.28-.35.39-.45.44-.65a.7.7,0,0,0-.29-.65l0-.7c-.49.64-.46-.39-.82-.23.09-.31.76-.49.63-.12l-.09,0c.55.48.71-.73,1.12-.47.75-1.37,1.85-2.49,2.61-3.75l-.56-.13.28-.43c.18-.05.47.07.26.37.37,0,.08-.66,0-.73.55-.51.42.56.54.38l.12-.28-.09,0c-.08-.32-.28-.46,0-.83.24-.18.37.05.44,0s.07,0,.1-.14l.36-.53h-.5c-.05-.35.32-.51-.26-.5.88,0,1.43-1.94,1.77-2.06a1.67,1.67,0,0,1,.41-1.25c-.14.06-.61-.12-.35-.45.81.64.77-.45,1.58-.38-.58,0,.49-1.1-.35-1,.25-.26.34.17.69.06.07-.92,1.14-1.47,1.54-2.43-.11-.08-.37,0-.43-.32l.85-.14c0-.21-.58-.55,0-.64-.12,0-.31,0-.28-.17A8.2,8.2,0,0,0,33.5,6.42a9.18,9.18,0,0,1,.81-1.34l.12-.15.19-.29a4.23,4.23,0,0,0,.3-.68,3.84,3.84,0,0,0,.17-1.6c-.07.64-.2.25-.37-.11.06.26-.3.13-.44.26a2.71,2.71,0,0,0-.59-1.46c-.26.12-.6-.08-1-.17s-.77-.1-.82.15A3.11,3.11,0,0,1,32.32,1c-.33.26-.11.59,0,1A1.37,1.37,0,0,1,32.21,3c.23-.25.27.07.16.27s-.28.21.19.26c-.15,0-.24,0-.4,0,.31,0,.37.11.2.15l-.07,0v0l-.08.15a2.75,2.75,0,0,1-.19.28,4.42,4.42,0,0,1-.39.47c-.27.29-.59.59-1,1l.36.11a.79.79,0,0,1-.43.24c.32.53.38-.6.77-.07-.8-.07-.91,1.56-1.75,1.34-.2.34.42.11.22.45l-.25,0,.2.23a.55.55,0,0,1-.65.08c.06,0,.05-.18.07-.24-.4.16-.4.86-.53.92L29,8.42c-.35,1-1.27,2-1.39,3.16h.19c-.13.85-.48.46-.79,1.29l0-.05a.82.82,0,0,1-.12.68c-.06-.29-.54.16-.59-.2-.13.92,0,.51.28,1.31l-.31,0c.13.29.24.37.08.79,0-.43-.51,0-.58-.48-1,.48-.14,1.48-1.13,1.4.46.75.77-.47.79-.19.32,0,.34.59.13.8s-1.12-.06-1.47.58c0-.06,0-.1,0-.16-.31.14,0,.6-.48.73.31.4-.24.37.25.72l.21-.66c-.05.41.38,1.07-.23,1.45a1.27,1.27,0,0,1-.14-.5c-.24.07-.07.36-.32.44-.5-.35.29-.78.1-1.36-.32.05,0,.89-.47.39.57.66-.45.57-.15,1.32l-.3-.21c0,.09.08.32,0,.44l-.28-.46c.15.55-.69.5-.69.94.39-.7.46.06.86-.1-.08,1.1-1.1,0-1.51,1.08,0-.16.47-.39.5-.1a1.31,1.31,0,0,1-.66.34c-.3.68.38.09.41.47-.5,0,0,.4-.06.76l-.32-.19c-.63.62.55.58-.08,1.1l-.28-.54-.08.41L20,23.53c.05.53-.08.61-.39.91a.51.51,0,0,1,.37.71c-.31.11-.24-.28-.44.17-.16-.18-.33-.46.07-.49-.09-.08-.14-.21-.23-.29a.6.6,0,0,0-.34.34A.37.37,0,0,0,19,25a.06.06,0,0,1,0,.06.17.17,0,0,1,.11,0,2.16,2.16,0,0,1,.23.61.61.61,0,0,1-.24-.29c0,.07.09.25.06.37a5.18,5.18,0,0,1-.44-.72,1.83,1.83,0,0,1,.11.46,1.79,1.79,0,0,1-.3-.42c-.06-.07,0,.13,0,.35s0,.45-.13.31a.46.46,0,0,1-.05.23c-.21-.09-.2-.6-.47-.19a3.88,3.88,0,0,1,.18-.71,1.48,1.48,0,0,0-.2.46c-.07.23-.14.48-.28.44s.21-.54.26-.74a.75.75,0,0,1-.38.26c-.12,0-.21-.08-.09-.29C17.52,25.2,17.48,25.29,17.54,25.31Zm-3-4.42c.12.06.44.13.3.31C14.45,21.31,14.57,21.12,14.58,20.89Zm-5.31-7c.14,0,.16.15.12.35A.43.43,0,0,1,9.27,13.84ZM14.2,3h0C14,2.84,14.05,2.92,14.2,3Zm.47.28a.13.13,0,0,0,.06-.14c-.06.08-.17.06-.3,0C14.45,3.27,14.49,3.35,14.67,3.31Zm12,15.58-.14,0C26.52,18.68,26.57,18.78,26.63,18.89Z" transform="translate(-0.24 0.08)"/><path class="cls-2" d="M10.21,14.43a.66.66,0,0,1-.14.15C10.14,14.58,10.2,14.55,10.21,14.43Z" transform="translate(-0.24 0.08)"/><polygon class="cls-2" points="18.18 25.82 18.18 25.83 18.18 25.73 18.18 25.82"/><path class="cls-2" d="M6.76,4.46a.72.72,0,0,1-.14-.24A.35.35,0,0,0,6.76,4.46Z" transform="translate(-0.24 0.08)"/><path class="cls-2" d="M17.48,3.4h-.34c.16,0,.19.12.26.19C17.41,3.52,17.38,3.38,17.48,3.4Z" transform="translate(-0.24 0.08)"/><path class="cls-2" d="M19.73,5.4c0-.06.1,0,.13-.09l-.06-.16C19.6,5.22,19.5,5.39,19.73,5.4Z" transform="translate(-0.24 0.08)"/><path class="cls-2" d="M17.47,4.66c0,.18,0,.23.1.24l.19,0h0c.07-.3,0-.34-.1-.29Z" transform="translate(-0.24 0.08)"/><path class="cls-2" d="M17.8,4.88a.26.26,0,0,1,.15,0C18,4.71,17.89,4.85,17.8,4.88Z" transform="translate(-0.24 0.08)"/><path class="cls-2" d="M15.35,3.28c.09.1.17-.36.2-.23C15.77,2.7,14.72,3.33,15.35,3.28Z" transform="translate(-0.24 0.08)"/><path class="cls-2" d="M17.4,5.69V5.3l-.19.26Z" transform="translate(-0.24 0.08)"/><path class="cls-2" d="M15.69,5l.33.2a.14.14,0,0,1,.13-.1C15.93,5,15.71,4.84,15.69,5Z" transform="translate(-0.24 0.08)"/><path class="cls-2" d="M16.15,5.05a.37.37,0,0,0,.31,0A1,1,0,0,0,16.15,5.05Z" transform="translate(-0.24 0.08)"/><polygon class="cls-2" points="16.64 5.75 16.55 5.64 16.3 5.55 16.64 5.75"/><path class="cls-2" d="M11.84,3.87h-.42c-.07.11,0,.22.17.2S11.87,4,11.84,3.87Z" transform="translate(-0.24 0.08)"/><path class="cls-2" d="M12.77,5.19c-.09-.1-.08-.19-.1-.32l-.14.45Z" transform="translate(-0.24 0.08)"/><path class="cls-2" d="M11.59,5c-.07.11-.66.21-.16.31C11.51,5.2,11.93,5.2,11.59,5Z" transform="translate(-0.24 0.08)"/><path class="cls-2" d="M6,2.91l.09,0-.29-.87C5.82,2.34,5.88,2.62,6,2.91Z" transform="translate(-0.24 0.08)"/><path class="cls-2" d="M5.8,5.68c.19,0-.71-.25-.45-.28-.3-.15-.21,0-.46-.08A1.8,1.8,0,0,0,5.8,5.68Z" transform="translate(-0.24 0.08)"/><path class="cls-2" d="M4.89,5.32l-.21-.13A1.53,1.53,0,0,0,4.89,5.32Z" transform="translate(-0.24 0.08)"/><path class="cls-2" d="M32.79.22A3.81,3.81,0,0,0,32.13,0a4.4,4.4,0,0,1,.41.31Z" transform="translate(-0.24 0.08)"/><path class="cls-2" d="M31.59.71,31.38.24a4,4,0,0,0-.25.51C31.24.7,31.48.61,31.59.71Z" transform="translate(-0.24 0.08)"/><path class="cls-2" d="M15,19.64l-.11.05c-.09.1-.06.17,0,.3Z" transform="translate(-0.24 0.08)"/><polygon class="cls-2" points="16.6 23.5 16.57 23.43 16.26 23.78 16.6 23.5"/><path class="cls-2" d="M18.25,24.64s-.05.07-.05.05S18,25.22,18.25,24.64Z" transform="translate(-0.24 0.08)"/></svg>