<svg id="Calque_1" data-name="Calque 1" xmlns="http://www.w3.org/2000/svg" viewBox="0 0 101.13 44.25"><defs><style>.cls-1{fill:#3f4372;}.cls-2{fill:#272b60;}</style></defs><title>fleches-jeu</title><path class="cls-1" d="M90.89,43.63c-.26,0-.17.23-.21.28C91.13,43.84,90.88,43.56,90.89,43.63Z" transform="translate(0.12 0.34)"/><path class="cls-1" d="M94.75,42.06l0,.13.4-.51C95,41.81,94.88,41.94,94.75,42.06Z" transform="translate(0.12 0.34)"/><path class="cls-1" d="M97.64,39.69c-.54,0-.84,1.07-1.49,1.37H96a3.55,3.55,0,0,1,0,.46C96.63,41,97.2,40.06,97.64,39.69Z" transform="translate(0.12 0.34)"/><path class="cls-1" d="M99.55,38.4c-.22,0,.09-.49-.29.43l.09-.06A2.46,2.46,0,0,1,99.55,38.4Z" transform="translate(0.12 0.34)"/><path class="cls-1" d="M99.35,38.77c-.2.39.26-.19,0,0Z" transform="translate(0.12 0.34)"/><path class="cls-1" d="M100,36.87c0,.2,0,.39,0,.59.14-.07.32-.57.33-.36C100.4,36.49,100.26,36.59,100,36.87Z" transform="translate(0.12 0.34)"/><path class="cls-1" d="M99.84,36.27v.3S99.92,36.46,99.84,36.27Z" transform="translate(0.12 0.34)"/><path class="cls-1" d="M99.79,37.2c0-.21,0-.42,0-.63-.09.06-.23,0,0,.28C99.7,36.77,99.79,36.92,99.79,37.2Z" transform="translate(0.12 0.34)"/><path class="cls-1" d="M99.61,37.51c-.2.26-.4.6-.34,0C98.91,38.52,99.25,38.53,99.61,37.51Z" transform="translate(0.12 0.34)"/><path class="cls-1" d="M97.4,39.27l-.33.21-.1.33C97,39.65,97.52,39.33,97.4,39.27Z" transform="translate(0.12 0.34)"/><path class="cls-1" d="M100.63,33.49c-.1,0-.25.16-.37.19l.11.35C100.43,33.85,100.49,33.51,100.63,33.49Z" transform="translate(0.12 0.34)"/><path class="cls-1" d="M100.26,33.68l-.16-.52C100.09,33.63,100.16,33.71,100.26,33.68Z" transform="translate(0.12 0.34)"/><path class="cls-1" d="M99.4,36.07a8.77,8.77,0,0,1,.06,1,8.12,8.12,0,0,0,0-1.21Z" transform="translate(0.12 0.34)"/><polygon class="cls-1" points="100.76 31.84 100.97 32.14 100.65 31.61 100.76 31.84"/><path class="cls-1" d="M100.6,30.19c.18.22.3-.3.41-.07a2.69,2.69,0,0,0-.32-.93A1.71,1.71,0,0,1,100.6,30.19Z" transform="translate(0.12 0.34)"/><path class="cls-1" d="M100.49,28.72a3,3,0,0,0,.2.47A1.58,1.58,0,0,0,100.49,28.72Z" transform="translate(0.12 0.34)"/><path class="cls-1" d="M100.15,32.28a.56.56,0,0,0,.26-.41l-.26.2Z" transform="translate(0.12 0.34)"/><path class="cls-1" d="M100.15,32.08h0l0-.44Z" transform="translate(0.12 0.34)"/><path class="cls-1" d="M100.15,32.33v0S100.12,32.31,100.15,32.33Z" transform="translate(0.12 0.34)"/><path class="cls-1" d="M99.83,34.58c-.13-.38-.29-1-.51-.38C99.49,34.45,99.63,34.05,99.83,34.58Z" transform="translate(0.12 0.34)"/><path class="cls-1" d="M99.82,32.58l0,.56c.06,0,.16-.12.24,0Z" transform="translate(0.12 0.34)"/><polygon class="cls-1" points="99.86 32.65 99.95 32.92 99.97 32.72 99.86 32.65"/><path class="cls-1" d="M100.25,29.67a1.85,1.85,0,0,1-.14-.79,6.09,6.09,0,0,0-.08.95C100.11,29.87,100.26,30,100.25,29.67Z" transform="translate(0.12 0.34)"/><path class="cls-1" d="M100.17,30.84v-.05S100.13,30.85,100.17,30.84Z" transform="translate(0.12 0.34)"/><polygon class="cls-1" points="100.23 26.32 100.18 26.36 100.23 26.37 100.23 26.32"/><path class="cls-1" d="M100,29.88a.63.63,0,0,0,.09.51,4.75,4.75,0,0,1,0-.56S100,29.8,100,29.88Z" transform="translate(0.12 0.34)"/><path class="cls-1" d="M100.37,27.92a2.19,2.19,0,0,0-.14.41C100.31,28.21,100.44,28,100.37,27.92Z" transform="translate(0.12 0.34)"/><path class="cls-1" d="M100.23,30.71v0C100.3,30.67,100.27,30.68,100.23,30.71Z" transform="translate(0.12 0.34)"/><path class="cls-1" d="M100.23,30.71a1.59,1.59,0,0,0-.16-.32,2.15,2.15,0,0,0,.09.4Z" transform="translate(0.12 0.34)"/><path class="cls-1" d="M98.45,25.1c.24,0,.46.67.2,1.2.18.53,1,.19,1.41-.27-.1,0-.2,0-.34-.57-.13.19-.31,1.21-.53.75-.12-.72.09-.59.22-.94-.3.3-.44-.92-.88-.76l.16.63C98.62,25.15,98.51,24.93,98.45,25.1Z" transform="translate(0.12 0.34)"/><path class="cls-1" d="M100,27.06l0,.23a2.18,2.18,0,0,1,.32-.78c-.12-.37-.2-.45-.28-.47l0,1.1Z" transform="translate(0.12 0.34)"/><path class="cls-1" d="M100.07,28.29c-.26-.17-.38-.71-.66-.38,0,.66.22.46.33.85-.06-1.06.15.31.3-.46a4.34,4.34,0,0,1,.07.58,4.07,4.07,0,0,1,.12-.55l0,0h0s-.06.06,0,0v0a.14.14,0,0,1-.1-.05c.05-.3.07,0,.1.05l0,0h0l-.14-1.06A4.57,4.57,0,0,0,100.07,28.29Z" transform="translate(0.12 0.34)"/><path class="cls-1" d="M98.76,33.63a.06.06,0,0,1,.06,0C98.79,33.53,98.76,33.5,98.76,33.63Z" transform="translate(0.12 0.34)"/><path class="cls-1" d="M98.91,33.19a.49.49,0,0,1,.12.4c-.08.22-.13,0-.21,0,.07.15.18.53.31,0l0-.07c.09-.43.41-1,.45-.91A2,2,0,0,0,98.91,33.19Z" transform="translate(0.12 0.34)"/><path class="cls-1" d="M99.42,30.71l-.12-.88-.23.45.14,0C99.15,30.76,99.32,30.65,99.42,30.71Z" transform="translate(0.12 0.34)"/><polygon class="cls-1" points="100.36 26.21 100.64 26.33 100.25 25.82 100.36 26.21"/><polygon class="cls-1" points="100.33 25.06 100.57 25.11 100.42 24.8 100.33 25.06"/><path class="cls-1" d="M59.52,9.67l.07.26A.77.77,0,0,0,59.52,9.67Z" transform="translate(0.12 0.34)"/><path class="cls-1" d="M59.71,8.12l-.11-.06C59.65,8.14,59.69,8.18,59.71,8.12Z" transform="translate(0.12 0.34)"/><path class="cls-1" d="M90.11.06c-.37-.22-.8-.57-.75-.3l.11.26A1.43,1.43,0,0,1,90.11.06Z" transform="translate(0.12 0.34)"/><path class="cls-1" d="M70.75,1.63l.11.08.26-.25Z" transform="translate(0.12 0.34)"/><path class="cls-1" d="M70.49,2.72,70,2.55A1.89,1.89,0,0,0,70.49,2.72Z" transform="translate(0.12 0.34)"/><path class="cls-1" d="M59.8,20l.27.3C60.07,19.79,59.93,20,59.8,20Z" transform="translate(0.12 0.34)"/><path class="cls-1" d="M100.11,12.94a3.89,3.89,0,0,0,.16-.82C100.12,12.51,99.89,12.83,100.11,12.94Z" transform="translate(0.12 0.34)"/><path class="cls-1" d="M56.77,8.82c0,.19.09.27.15.27C56.88,8.9,56.84,8.79,56.77,8.82Z" transform="translate(0.12 0.34)"/><path class="cls-1" d="M100.27,11.18c0,.05,0,.11-.07.17a3.11,3.11,0,0,1,.07.77A1.07,1.07,0,0,0,100.27,11.18Z" transform="translate(0.12 0.34)"/><path class="cls-1" d="M76.65,40.65l.08,0S76.7,40.65,76.65,40.65Z" transform="translate(0.12 0.34)"/><path class="cls-1" d="M87.52,43.31l-.44,0A1.41,1.41,0,0,0,87.52,43.31Z" transform="translate(0.12 0.34)"/><path class="cls-1" d="M100.32,20.09c0,.25,0,0,0,0Z" transform="translate(0.12 0.34)"/><path class="cls-1" d="M99.28,21.28a.19.19,0,0,0-.13-.1A.23.23,0,0,1,99.28,21.28Z" transform="translate(0.12 0.34)"/><path class="cls-1" d="M98.59,8.75v0C98.54,8.81,98.55,8.79,98.59,8.75Z" transform="translate(0.12 0.34)"/><path class="cls-1" d="M100.2,20.46a2.33,2.33,0,0,0,.08-.31A1.8,1.8,0,0,0,100.2,20.46Z" transform="translate(0.12 0.34)"/><path class="cls-1" d="M100.32,20.41l0,.22S100.37,20.63,100.32,20.41Z" transform="translate(0.12 0.34)"/><path class="cls-1" d="M100.31,19.75a2.6,2.6,0,0,1,0,.4s0-.07,0-.06Z" transform="translate(0.12 0.34)"/><path class="cls-1" d="M59.43,36.9V37C59.62,37.11,59.55,37,59.43,36.9Z" transform="translate(0.12 0.34)"/><path class="cls-1" d="M83.76,2.79h0Z" transform="translate(0.12 0.34)"/><path class="cls-1" d="M82.88,3a.79.79,0,0,1,.87-.22L83.46,2Z" transform="translate(0.12 0.34)"/><path class="cls-1" d="M59.6,14.18l.24-.62c.39.75.25,1.28.58.71-.82-.09-.08-2.4-.9-2.48l.17-.41c0,.12,0,.14,0,.25.4-.79-.59-.59-.48-1.6.07-.36.19-.6.28-.36L59.35,9c0-.19.17-.13.14.06a6.76,6.76,0,0,1,.09-1l0,0a2.74,2.74,0,0,1-.22-.74c.2-.21,0,.16.16.13V6.83c.28-.13.3.39.15.73.48-.11.46-.22.44-.43a.86.86,0,0,1,.45-.86,3,3,0,0,0-.15.48c.55-.06.59-.47,1.14-.7a6.4,6.4,0,0,0-.66.15c-.26,0-.49.06-.42-.26a1,1,0,0,0,.37-.63c.22.18.37-.09.63-.39l.25.29c.22-.34.07-.48.14-.77a.67.67,0,0,1,.88.08c.65-.31-.69-.14,0-.65A7.47,7.47,0,0,0,64.42,3c.46,0,0,.25.16.31a3.79,3.79,0,0,1,.32-.38C65,2.87,65,3,65,3c.31-.16,0-.4.5-.56.06-.21.35-.08.73.06a1.46,1.46,0,0,0,1.27,0c.19.11-.09.24,0,.39a7.7,7.7,0,0,0,1.8-.66l.75.25c-.55-.29.15-.63.76-.92a5,5,0,0,0-.47-.32l1-.21c.12.07,0,.2-.14.36l.18-.09c.35.14.17.36-.08.58l-.36-.24c-.24.24-.47.5-.41.73a.7.7,0,0,1,.32-.11c-.07.06-.11.12-.08.16s.14,0,.3-.14l.22.43.06-.17,1.28.27a8.88,8.88,0,0,1,3.17-1.26c-.36.32-.07.52-.09.9-.4-.4-1.13.17-1.89.09.4,0,.31.22.21.28l1.35-.36c0,.3.28.23.63.35-.26-.6,1-.4,1.56-.59,0,.21-.1.42-.77.37.74.45,1-.72,1.68-.33-.16,0-.25,0-.32.08.38-.18,1.32,0,1.1.14H79c1.09.07,3.31,0,3.47-.51a3.42,3.42,0,0,1-.21.73L84.2,1c-.17.45.49,1.5-.41,1.75a1.92,1.92,0,0,0,1.12,0c-.18-.06-.44-.64-.2-.68A5.23,5.23,0,0,0,86,2.76c-.26-.09,0-.79.45-.76-.06.1,0,.68-.12.75l1-.68c-.26.13,0,.58.19.77-.11-.13.9,0,1.17,0l-.44-.16c1.17.1,1.16-1,2.32-.92-.15.14-.32.86.23,1a4.65,4.65,0,0,1,.83-.95,3.57,3.57,0,0,1,.76-.46,2.4,2.4,0,0,1,.88-.15l.14.26c.29,0,.6,0,.89.1-.36.12-1,.32-1.56.57a14.17,14.17,0,0,0-1.44.74c.35.2.07.25.61.31.15.21-.33.23-.48.22a7.11,7.11,0,0,1,1.13.37c.07-.42,1,0,1.13-.34A4.67,4.67,0,0,0,93,3.25a5.77,5.77,0,0,0-.72,0c0-.19.29-.44.69-.55a2.14,2.14,0,0,1,.68-.05,2.11,2.11,0,0,1,.7.25c.14.27-.51.55-.55.69.17-.08.9.21.91.36l-.45,0c.32.39,1,.06,1.23.78.14.18,0,.82.24.68.14-.54,1.1-1.62,1.57-1.62a4.71,4.71,0,0,1,.44,1.76c-.11.51-1-.06-1.14.39.1,0,.32.06.41.11,0,.25-.34.08-.07.5.42-.11.38,1,.42.07.3.43.14.53.32,1.09.2-.27,1,.3,1.22.89-.11,0-.23.12-.28.19,0,1.14-.2,1.76-.19,2.82-.1.1-.22.62-.4.4a1.22,1.22,0,0,1,.22.62c-.35.64,0-.73-.48-.25.24,0,.33.85.48,1.32.37-.14.07-1.08-.08-1.55.51,0,1,.81,1.29,1.93.12.89-.33.38-.26.54-.09,1.66.89,1.42.52,2.8-.32.55-.65,0-.88.15-.12-.72.21-1.11.19-1.6l-.15.6a1.61,1.61,0,0,1-.1-1c-.29.46,0,2.81-.32,4.1.11.22.22.62.35.43l0-.4c.27-.38.37.76.49.25a3.53,3.53,0,0,1,.33,1.92l-.38.15c.11,0,.23-.51.11-.72.17.32-.5,1.18,0,1.53l.25-.54a3.91,3.91,0,0,1,.47,1.9c.36-.31,0-.15.39-.64-.54.42,0-1.74-.54-1.06.49-.5.21-.86.63-1.51-.12,0-.23.23-.17-.34a.69.69,0,0,1-.11-.13v0s0,0,0,0a.66.66,0,0,1-.19.29c-.28-.29-.27-1.2-.41-1.5,0-.34.14.14.27-.05l-.22-.46c.27,0,.45-.9.61-.1V18a2.3,2.3,0,0,0,.1-1.36c.06-.34-.3-.86-.09-.56l-.16-1.13h.06c0-1.11-.45-2.29,0-3.56a4.19,4.19,0,0,1-.07-1.39l.23-.12a10.3,10.3,0,0,1,0-1.07c0-.4,0-.76-.18-.86a1,1,0,0,0,.13-.78,3.39,3.39,0,0,0-.29-1,18.63,18.63,0,0,0-1-1.87l-.28.13a5.64,5.64,0,0,0-1.55-1.58L97,3c-.64-.33-1.27-1.35-2.34-1.83.11-.06.37.09.52.25A2.63,2.63,0,0,0,93.27.54a7.15,7.15,0,0,1-2-.28,1.12,1.12,0,0,1-.72,0h0L90.11.06a1.5,1.5,0,0,0,.32.15,4.13,4.13,0,0,0-.83.11L89.47,0H89.4c-.3-.11-.24.14-.08.36a1.85,1.85,0,0,0-.4.18c-.24-.48-.8.15-1.13-.35-.21.25-1.54.19-1.7.7,0-.07-.1-.1.07-.1a1.59,1.59,0,0,0-1,0L85,.48,84.28,1c-.45-.22-.63-.35-.19-.64C83,.77,83.22.5,82.3.93l0-.24c-.33,0-.85.33-1,.13C80.55.37,77.65.76,75.76.34c.37.7-.88-.32-1,.23C74.7.4,74.44.31,74.74.16c-1,.17-1.45-.26-2.11.2-.11-.17.2-.25.11-.35s-.31.15-.41,0,.14-.14.29-.21c-1,0-1.08.54-1.15,1A.85.85,0,0,0,70.36,1c-.17-.15-.46-.32.15-.38-.34,0-2.1-.23-2.14.16-.11-.1-.48,0-.57,0-.77,0-.84-.05-1.6,0l.21.07c-.29.46-.65.11-1.3.21V1c-.77-.06-.94,0-1.08.11s-.3.1-1.08.19l.18.25c0,.32-.28.32-.71.39a1.89,1.89,0,0,0-1.28.49c.11,0,.23,0,.35,0-.15.2-.51.23-.94.24a2.51,2.51,0,0,0-1.1.2c-.12,0,.07-.18.16-.32-1.24.7.13.39-.48,1.17-.27,0-.25-.54-.71,0-.17.08-.35.59-.51,1.15a4.17,4.17,0,0,1-.66,1.54c.22-.14.43-.26.38.2a11.56,11.56,0,0,1-.55,1.17,1.3,1.3,0,0,0,0,1.24c0,.08-.09.12-.13.12s0,.31.07.5l.09.53a1.88,1.88,0,0,0,.3.83c-1,.43.49,2.9-.44,2.89L57,15.28l-.09,0a2,2,0,0,0,.38,1.57c-.06.21-.15.06-.2,0a3.53,3.53,0,0,0,.31,2.6l-.3.12c.18.3-.47,1.94-.12,3.25a.22.22,0,0,1-.13-.14c.35,1.48-.83,3.54.26,4.09l.27,1c.08-1.26.47.19.66-.33.06.5-.33,1.29-.39.68l0-.1c-.57-.22-.2,1.57-.59,1.54,0,1.24-.05,2.47-.13,3.68l-.06.9c0,.33,0,.69,0,1a8,8,0,0,0,.38,2c.11-.14.2-.28.33-.42.08.29.18.57.28.86s-.21.44-.43-.19c-.13.44.66.93.74.89.47,1.21-.71-.19-.52.15a4.66,4.66,0,0,0,.3.47l0-.13a2.55,2.55,0,0,1,1,.86c.23.45-.06.38.06.54,0,0,0,.08.2.24a8.23,8.23,0,0,0,.82.85l-.11-.57c.48.22.8.7.65.08a3.28,3.28,0,0,0,1.88,1.58,21.84,21.84,0,0,0,2.16.69,10.09,10.09,0,0,1,2.2-.09c-.2-.08-.31-.47.36-.42-.25.81,1.23.35,1.77.93-.49-.38,1.91-.09,1.15-.64.56.06,0,.3.45.49,1.34-.31,2.94.21,4.59.1,0-.1-.25-.27.1-.43l.87.54c.32-.06.3-.62.89-.25-.08-.09-.21-.22,0-.26,3.23.52,6.59-.42,9.87.55-.45-.2-.15-.22.19-.23-.22,0,0-.27,0-.41l1.37.4c.25-.4,1.47,0,1.61-.41l-.43.07c.58-.45-.81-1-.72-1.59-.65.52-1.71-.76-2.77,0-.23-.12.2-.19.07-.32-.27.25-.59.3-1.19.19l.07-.07a30.85,30.85,0,0,1-4.32-.34l.14.28a1.78,1.78,0,0,1-.68-.2c-.47.44,1.14,0,.72.51-.55-.59-2.88,0-3.25-.68-.63,0,.19.34-.44.33l-.17-.18-.16.23c-.41,0-.62-.26-.63-.41a1.37,1.37,0,0,0,.39-.06c-.53-.21-1.51.08-1.69,0l.6.11c-1.71.17-3.8-.07-5.46.3l.13.13c-1.27.25-1-.15-2.4,0l0,0a2.23,2.23,0,0,1-1,.18c.35-.15-.66-.3-.2-.48-.7.14-.81.17-.92.25a1.54,1.54,0,0,1-.58.4L65,41.24a1.09,1.09,0,0,1-1,.16c.55-.06-.29-.43.33-.53A3.13,3.13,0,0,0,63,40.32c-.38-.09-.69-.21-.72-.66-.4.07-.25.32,0,.51s.57.33.39.3c.16.33-.68.16-1-.16s-.11-1.05-.76-1.77c.06.08.1.05.17.12a1.34,1.34,0,0,0-.37-.42.69.69,0,0,1-.3-.54c-.47,0-.28-.52-.73-.38a7.35,7.35,0,0,0,.56.78c-.36-.37-1.19-.59-1.23-1.6a1.77,1.77,0,0,1,.46.4c0-.3-.28-.44-.21-.75.45-.07.47,1.06,1.1,1.36,0-.31-.78-.78-.19-.74-.39,0-.44-.3-.51-.56a1.26,1.26,0,0,0-.36-.88h.29a1.25,1.25,0,0,1-.25-.49l.42.3c-.4-.5.2-1,0-1.61,0,.65-.08.7-.2.68s-.26-.11-.35.12c-.4-1.53.75-.9.6-2.66.05.24-.17.9-.3.53a2.94,2.94,0,0,1,.32-1c-.06-1.17-.3.18-.47-.32.35-.4-.15-.58-.26-1.09h.29c.19-1.34-.61-.35-.38-1.56l.41.51-.11-.63.33.13a2.49,2.49,0,0,1-.08-1.57c-.21.16-.54-.09-.54-.68.17-.41.27.23.23-.62.18.19.41.4.14.77.1,0,.19.19.28.23A3.42,3.42,0,0,0,59.71,25a1.26,1.26,0,0,1-.07.33l-.41-1.22c.11-.19.2,0,.29.11a4.45,4.45,0,0,1-.19-.78c.23.1.48.07.59.59l-.26-1.17c.1-.07.28-.59.37-.44.14-.65-.46-1.58-.28-2.44,0,0-.09-.13-.12-.32a5.49,5.49,0,0,0,0-2.46l.42-.54c-.09-.75-.53.73-.7-.52-.13-.88.37-.32.49-.63a2.32,2.32,0,0,1-.31-2A3.69,3.69,0,0,1,59.6,14.18ZM60.49,6c0,.17,0,.5-.22.51C60.06,6.15,60.28,6.11,60.49,6ZM72.11,2.19c-.13.1-.34.05-.57-.06A1.29,1.29,0,0,1,72.11,2.19Zm28,15.23v0C100.18,17,100.14,17.14,100.08,17.42Zm-.13.82c0,.09.09.08.13.05S100,18,100,17.83C99.94,17.89,99.89,18,100,18.24ZM59.18,40.18,59.12,40C59.46,40.24,59.32,40.21,59.18,40.18Z" transform="translate(0.12 0.34)"/><path class="cls-1" d="M70.52,2.59a.26.26,0,0,1-.07-.15C70.38,2.48,70.37,2.54,70.52,2.59Z" transform="translate(0.12 0.34)"/><path class="cls-1" d="M59.75,19.9v0l0,0Z" transform="translate(0.12 0.34)"/><path class="cls-1" d="M96.59,6.22a.61.61,0,0,1,0-.32C96.51,5.94,96.49,6,96.59,6.22Z" transform="translate(0.12 0.34)"/><path class="cls-1" d="M100.45,22.62l-.07-.53a.93.93,0,0,1-.1.48C100.35,22.56,100.45,22.46,100.45,22.62Z" transform="translate(0.12 0.34)"/><path class="cls-1" d="M98.64,27.21c0,.08,0,.17,0,.24l.14,0C98.81,27.1,98.7,26.87,98.64,27.21Z" transform="translate(0.12 0.34)"/><path class="cls-1" d="M99.48,23.11c-.25,0-.16.38-.12.75v-.07C99.71,23.9,99.59,23.5,99.48,23.11Z" transform="translate(0.12 0.34)"/><path class="cls-1" d="M99.37,23.94a2,2,0,0,1,0,.34C99.52,24.33,99.41,24.15,99.37,23.94Z" transform="translate(0.12 0.34)"/><path class="cls-1" d="M100.12,19.29c-.07.18.31.11.21.21C100.64,19.7,100,18.33,100.12,19.29Z" transform="translate(0.12 0.34)"/><polygon class="cls-1" points="98.79 23.75 99.09 23.62 98.85 23.41 98.79 23.75"/><path class="cls-1" d="M98.89,20.49l-.08.59s.08.06.1.16C98.92,20.87,99,20.47,98.89,20.49Z" transform="translate(0.12 0.34)"/><path class="cls-1" d="M98.91,21.24a1.25,1.25,0,0,0,0,.47A2.15,2.15,0,0,0,98.91,21.24Z" transform="translate(0.12 0.34)"/><polygon class="cls-1" points="98.7 22.94 98.76 22.77 98.78 22.35 98.7 22.94"/><path class="cls-1" d="M99,14.12l-.09-.65c-.1-.06-.16.11-.12.35S98.85,14.22,99,14.12Z" transform="translate(0.12 0.34)"/><path class="cls-1" d="M98.12,16.07c.06-.17.13-.18.23-.28l-.38,0Z" transform="translate(0.12 0.34)"/><path class="cls-1" d="M98,14.19c-.1-.07-.3-.94-.27-.12C97.86,14.14,98,14.78,98,14.19Z" transform="translate(0.12 0.34)"/><polygon class="cls-1" points="97.07 5.23 97.17 5.36 97.66 4.98 97.07 5.23"/><path class="cls-1" d="M89.53,3.21c.76.15.18-.38.87-.2.18-.14-.57-.15-.38-.27C89.56,2.89,89.31,2.8,89.53,3.21Z" transform="translate(0.12 0.34)"/><path class="cls-1" d="M90,2.74l.24-.1A.72.72,0,0,0,90,2.74Z" transform="translate(0.12 0.34)"/><polygon class="cls-1" points="89.45 43.98 89.94 44.11 89.62 43.9 89.45 43.98"/><path class="cls-1" d="M90.27,43.18l.12.39.29-.35C90.57,43.24,90.36,43.27,90.27,43.18Z" transform="translate(0.12 0.34)"/><path class="cls-1" d="M61.77,5.59l-.05-.08c-.11,0-.18,0-.31.15Z" transform="translate(0.12 0.34)"/><polygon class="cls-1" points="60.03 10.63 60.04 10.51 59.68 10.72 60.03 10.63"/><path class="cls-1" d="M60.36,15.89c0-.23-.06-.49,0-.72C60.38,15.66,59.92,16,60.36,15.89Z" transform="translate(0.12 0.34)"/><path class="cls-2" d="M73,15.08a.81.81,0,0,1,1.17-.93L80,17.44,86.36,21a.81.81,0,0,1,0,1.4l-6.28,3.72-5.78,3.43a.8.8,0,0,1-1.19-.9l1.75-6.57a.82.82,0,0,0,0-.44Z" transform="translate(0.12 0.34)"/><path class="cls-1" d="M72,15.4c0-.07-.16,0-.19,0S72.07,15.39,72,15.4Z" transform="translate(0.12 0.34)"/><polygon class="cls-1" points="72.84 16.75 72.77 16.75 72.98 16.87 72.84 16.75"/><path class="cls-1" d="M73,17.46c.25-.18-.15-.37-.11-.58l.06-.05-.25,0C72.82,17,73.05,17.28,73,17.46Z" transform="translate(0.12 0.34)"/><path class="cls-1" d="M72.58,18.19c.1-.07.13.09,0-.14l0,0A.23.23,0,0,1,72.58,18.19Z" transform="translate(0.12 0.34)"/><path class="cls-1" d="M72.56,18.08c0-.11-.07.1,0,0Z" transform="translate(0.12 0.34)"/><path class="cls-1" d="M72.77,18.57l-.14-.12c0,.05,0,.18-.09.15C72.63,18.73,72.69,18.68,72.77,18.57Z" transform="translate(0.12 0.34)"/><path class="cls-1" d="M73,18.65,73,18.58S72.92,18.63,73,18.65Z" transform="translate(0.12 0.34)"/><path class="cls-1" d="M72.82,18.45l.13.13s.13-.06,0-.06C73,18.51,72.89,18.5,72.82,18.45Z" transform="translate(0.12 0.34)"/><path class="cls-1" d="M72.83,18.35c0-.1,0-.22.18-.1C72.9,18,72.71,18.08,72.83,18.35Z" transform="translate(0.12 0.34)"/><path class="cls-1" d="M73.32,17.43l.05-.13-.12-.07C73.31,17.26,73.24,17.46,73.32,17.43Z" transform="translate(0.12 0.34)"/><path class="cls-1" d="M72.89,19.51c.06,0,.14-.09.21-.13L73,19.3C73,19.36,73,19.48,72.89,19.51Z" transform="translate(0.12 0.34)"/><path class="cls-1" d="M73.1,19.38l.15.14C73.22,19.37,73.16,19.36,73.1,19.38Z" transform="translate(0.12 0.34)"/><polygon class="cls-1" points="73.45 18.92 73.16 18.72 73.46 18.97 73.45 18.92"/><polygon class="cls-1" points="73.18 20.46 73.01 20.41 73.27 20.51 73.18 20.46"/><path class="cls-1" d="M73.2,20.52c-.13,0-.17.15-.26.1a.68.68,0,0,0,.29.23A.29.29,0,0,1,73.2,20.52Z" transform="translate(0.12 0.34)"/><path class="cls-1" d="M73.4,21a.85.85,0,0,0-.17-.1A.35.35,0,0,0,73.4,21Z" transform="translate(0.12 0.34)"/><path class="cls-1" d="M73.3,19.8a.24.24,0,0,0-.13.17l.14-.11Z" transform="translate(0.12 0.34)"/><path class="cls-1" d="M73.32,19.86h0l0,.14Z" transform="translate(0.12 0.34)"/><path class="cls-1" d="M73.3,19.78v0S73.32,19.78,73.3,19.78Z" transform="translate(0.12 0.34)"/><path class="cls-1" d="M73.3,19.05c.12.06.27.23.36,0C73.53,19,73.48,19.15,73.3,19.05Z" transform="translate(0.12 0.34)"/><path class="cls-1" d="M73.48,19.64v-.18s-.1.07-.16,0Z" transform="translate(0.12 0.34)"/><polygon class="cls-1" points="73.68 20.05 73.6 19.98 73.61 20.05 73.68 20.05"/><path class="cls-1" d="M73.47,20.62a.4.4,0,0,1,.16.22,1,1,0,0,0,0-.31C73.54,20.53,73.43,20.52,73.47,20.62Z" transform="translate(0.12 0.34)"/><path class="cls-1" d="M73.41,20.24l0,0S73.44,20.23,73.41,20.24Z" transform="translate(0.12 0.34)"/><polygon class="cls-1" points="74.01 22.07 74.04 22.04 74.01 22.05 74.01 22.07"/><path class="cls-1" d="M73.62,20.5c0-.08,0-.11-.1-.14a.89.89,0,0,1,.08.17S73.64,20.52,73.62,20.5Z" transform="translate(0.12 0.34)"/><path class="cls-1" d="M73.55,21.18a.88.88,0,0,0,0-.15S73.5,21.18,73.55,21.18Z" transform="translate(0.12 0.34)"/><path class="cls-1" d="M73.39,20.3h0S73.36,20.31,73.39,20.3Z" transform="translate(0.12 0.34)"/><path class="cls-1" d="M73.39,20.3a.39.39,0,0,0,.13.06l-.09-.1Z" transform="translate(0.12 0.34)"/><path class="cls-1" d="M75,21.72c-.16,0-.35-.15-.24-.36-.16-.13-.63.12-.88.35a.29.29,0,0,1,.25,0c.09,0,.12-.34.29-.25s0,.17-.07.26c.19-.11.33.2.61.17a.82.82,0,0,0-.12-.2S75,21.78,75,21.72Z" transform="translate(0.12 0.34)"/><path class="cls-1" d="M73.84,21.38l0-.06a.7.7,0,0,1-.14.3c.11.09.17.1.23.09l-.08-.34Z" transform="translate(0.12 0.34)"/><path class="cls-1" d="M73.71,21c.18,0,.3.15.45,0-.07-.2-.18-.11-.29-.21.14.32-.12-.06-.14.2a.59.59,0,0,1-.1-.16.63.63,0,0,1,0,.19h0s0,0,0,0h.08c0,.1,0,0-.07,0h0l.19.3A.88.88,0,0,0,73.71,21Z" transform="translate(0.12 0.34)"/><path class="cls-1" d="M74.07,19.12s0,0,0,0S74.08,19.16,74.07,19.12Z" transform="translate(0.12 0.34)"/><path class="cls-1" d="M74,19.28s-.1,0-.11-.1.08,0,.13,0-.16-.13-.2,0l0,0c0,.15-.18.38-.21.36A1.17,1.17,0,0,0,74,19.28Z" transform="translate(0.12 0.34)"/><path class="cls-1" d="M73.9,20.14l.16.25.11-.18-.09,0C74.07,20.08,74,20.14,73.9,20.14Z" transform="translate(0.12 0.34)"/><path class="cls-1" d="M73.81,21.76l-.18,0a1.13,1.13,0,0,1,.26,0Z" transform="translate(0.12 0.34)"/><polygon class="cls-1" points="73.98 22.22 73.81 22.22 73.91 22.25 73.98 22.22"/><path class="cls-1" d="M84,22.69l0-.08A.25.25,0,0,0,84,22.69Z" transform="translate(0.12 0.34)"/><path class="cls-1" d="M83.51,23l0,.07S83.54,23,83.51,23Z" transform="translate(0.12 0.34)"/><path class="cls-1" d="M74.06,30.63c.07.15.2.39.23.18v-.2C74.17,30.68,74.11,30.66,74.06,30.63Z" transform="translate(0.12 0.34)"/><path class="cls-1" d="M79.73,26.31l-.06,0v.18Z" transform="translate(0.12 0.34)"/><path class="cls-1" d="M79.43,25.65h.2A.64.64,0,0,0,79.43,25.65Z" transform="translate(0.12 0.34)"/><path class="cls-1" d="M85.06,21.66l-.27,0S84.93,21.67,85.06,21.66Z" transform="translate(0.12 0.34)"/><path class="cls-1" d="M73,25.26a.74.74,0,0,0-.17.23C73,25.39,73.17,25.33,73,25.26Z" transform="translate(0.12 0.34)"/><path class="cls-1" d="M84.78,24.41a.12.12,0,0,0,0-.13C84.76,24.34,84.75,24.38,84.78,24.41Z" transform="translate(0.12 0.34)"/><path class="cls-1" d="M72.79,25.78l0,0a.54.54,0,0,1,0-.25C72.77,25.56,72.69,25.65,72.79,25.78Z" transform="translate(0.12 0.34)"/><path class="cls-1" d="M75.9,16.29l0,0S75.88,16.28,75.9,16.29Z" transform="translate(0.12 0.34)"/><path class="cls-1" d="M72.85,13.55a.91.91,0,0,1,.23-.15A.61.61,0,0,0,72.85,13.55Z" transform="translate(0.12 0.34)"/><path class="cls-1" d="M73.49,23c0-.08,0,0,0,0Z" transform="translate(0.12 0.34)"/><path class="cls-1" d="M74.26,22.82a.1.1,0,0,0,.07.05A.1.1,0,0,1,74.26,22.82Z" transform="translate(0.12 0.34)"/><path class="cls-1" d="M73.64,26.82h0S73.67,26.81,73.64,26.82Z" transform="translate(0.12 0.34)"/><path class="cls-1" d="M73.6,22.92a.3.3,0,0,0-.08.08A.57.57,0,0,0,73.6,22.92Z" transform="translate(0.12 0.34)"/><path class="cls-1" d="M73.51,22.91l0-.06S73.5,22.84,73.51,22.91Z" transform="translate(0.12 0.34)"/><path class="cls-1" d="M73.47,23.12a.43.43,0,0,1,0-.12h0Z" transform="translate(0.12 0.34)"/><path class="cls-1" d="M81.72,19v0C81.61,19,81.64,19,81.72,19Z" transform="translate(0.12 0.34)"/><polygon class="cls-1" points="75.86 28.11 75.86 28.13 75.87 28.12 75.86 28.11"/><path class="cls-1" d="M75.92,27.52c0,.25-.07.26-.17.27l.34.38Z" transform="translate(0.12 0.34)"/><path class="cls-1" d="M84.92,22.11,84.75,22c-.15-.22-.1-.14-.29-.29.24.18.22.21.19.24s0,0,0,.09a.26.26,0,0,0,0,.28l-.17,0s0,0,.05,0c-.35-.1,0,.43-.28.53-.12,0-.22,0-.19-.1l-.15.25c-.07,0-.1-.07,0-.1l-.31.24v0a1.28,1.28,0,0,1-.07.36c-.12,0,0-.07,0-.12l-.12.23c-.14-.08-.06-.29.08-.35-.46-.37-.09.21-.62.16l.14-.17c-.27-.2-.35,0-.65-.07.1.06.65.19.52.42-.08,0-.17,0-.22.19-.1-.17-.18-.07-.3,0l-.13-.23c-.1.15,0,.26,0,.41s-.3-.08-.43-.21c-.27.12.34.17.07.39-.27.05-.36.22-.53.51-.2,0-.06-.15-.15-.19l0,.26s-.05-.05-.06-.08c-.07.14.12.23,0,.39.1.28-.57-.14-.62.26-.09,0,0-.15-.12-.23a1.9,1.9,0,0,0-.27.68l-.29,0c.25.08.17.39.1.65a1.45,1.45,0,0,0,.24.11l-.2.28c-.06,0-.08-.11-.09-.23v.09c-.15,0-.18-.19-.18-.35l.18.08a.94.94,0,0,0-.13-.49.23.23,0,0,1-.06.12.16.16,0,0,0,0-.11s0,.05,0,.13l-.21-.21,0,.11-.44.05a2.49,2.49,0,0,1-.45,1.24c0-.24-.16-.31-.28-.53.25.17.25-.28.49-.36a.11.11,0,0,1-.15-.12l-.25.42c-.1-.18-.16-.08-.3-.1.28.31-.14.4-.23.6-.08-.12-.11-.26.09-.34-.36-.14,0,.57-.35.46,0,0,.08,0,.06-.09,0,.16-.35.23-.35.1l0,0c-.32.13-.91.53-.78.86,0,0-.17-.38-.19-.45l.06,1.31c-.11-.28-.64-.78-.48-1.07a.28.28,0,0,0-.28.18s.32.31.26.37c-.28-.21-.19-.09-.4-.29.06,0,.15.52,0,.57s-.1-.47-.09-.54a2.28,2.28,0,0,1-.12.6,1.6,1.6,0,0,0,0-.57s0,0,0,0-.11,0-.15.1a.41.41,0,0,0,0,.09c-.14,0-.36,1-.68,1.12a3.22,3.22,0,0,0,.3-.92A6.44,6.44,0,0,1,74,29.6a1.07,1.07,0,0,1-.8.46l0-.15a2.49,2.49,0,0,1-.32-.08l.34-.12a1.17,1.17,0,0,0,.47-.27,4.67,4.67,0,0,0,.87-1c0-.16.09-.24,0-.22a.63.63,0,0,1,.22-.3.25.25,0,0,1,0-.15c-.27.41-.4.31-.66.59a1.27,1.27,0,0,0,.49-.25,2.47,2.47,0,0,1-.56.67c-.23.18-.48.23-.51.07a9.1,9.1,0,0,1,.72-.69c-.13.11-.28.05-.19,0a.88.88,0,0,0,.2-.09c.11-.17-.47.2-.11-.15,0-.07.46-.35.27-.25l-1,.6a3.1,3.1,0,0,1-.78.39,3.25,3.25,0,0,1,.6-.78c.3-.18.62-.05.88-.23a.39.39,0,0,1-.21,0c.09-.08.26-.06.25-.15-.3,0,.08-.23-.24,0-.06-.11.09-.14.11-.27a.57.57,0,0,1-.59-.43.38.38,0,0,0,.21,0c.12-.35.29-.51.38-.84.07,0,.19-.15.29-.05,0-.06-.11-.13-.09-.23.28-.14,0,.23.29.16-.15-.06-.14-.32-.2-.5-.25,0-.14.33-.08.5a1,1,0,0,1-.67-.82c0-.3.25-.06.21-.12.2-.5-.45-.6-.1-1,.25-.12.42.1.58.11,0,.24-.23.3-.26.46l.15-.16c0,.09.07.25,0,.32.23-.1.27-.87.55-1.22,0-.09-.09-.23-.19-.19v.13c-.2.07-.17-.3-.3-.16-.07-.2-.21-.44-.05-.65h.26c-.08,0-.19.12-.13.21-.08-.13.42-.28.13-.47l-.21.12c-.06-.12-.16-.39-.2-.44A.07.07,0,0,1,74,22c-.24,0,0,0-.22,0h0c.17,0,.17,0,.12.18s-.06.24.15.19c-.36.06-.21.23-.54.35.08,0,.17,0,.09.14l.06.06h0a.24.24,0,0,1,.15-.06c.16.13.07.41.14.54s-.08-.07-.18,0l.11.18c-.18,0-.37.2-.41-.07l-.06.22a.39.39,0,0,0-.18.4c-.07.1.12.32,0,.19l0,.38h0c-.11.34.1.79-.32,1.1a.61.61,0,0,1-.07.44h-.16c0,.18-.26.36-.15.58-.48.22-.47,1.33-.61,1.76l.23-.07a1,1,0,0,0,.13.71l.18-.13c.13.11-.07.65.24,1-.06,0-.12-.07-.13-.16,0,.35.26.5.53.55s.56,0,.69.15c.13-.06.18-.05.23,0s0,0,0,0h0l.1.09s0-.08-.08-.09a1,1,0,0,0,.31-.14v.21h0c.1,0,.11-.13.09-.29a.81.81,0,0,0,.18-.19c0,.34.31-.24.43.07a.28.28,0,0,1,.08-.12c.18-.22.56-.47.53-.78,0,.05.05.05,0,.09a.49.49,0,0,0,.36-.23l.16.19a1.52,1.52,0,0,0,.08-.44c.2.06.29.1.27.34.15-.43.18-.24.29-.64l.07.15c.09-.06.12-.33.24-.25.36.14,1-.56,1.69-.62-.34-.35.35,0,.19-.29.09.08.19.09.16.22.21-.25.48-.08.51-.46.09.08,0,.18.09.22s0-.14.1-.1,0,.11,0,.17c.26-.17.11-.48,0-.77.21.05.27,0,.26-.25.1.06.24.11.09.24.1,0,.66-.21.54-.44.06,0,.14-.06.15-.1a3.25,3.25,0,0,0,.45-.25H81.2c-.08-.32.14-.17.29-.3v0c.5,0,.11-.19.62-.2L82,25.45c-.17-.38.47,0,.61-.26l-.14,0c0-.2.63.28.77.26s0,.07,0,.12c.44,0-.09-.25.12-.44.11.09.12.33.29.26s.24-.66.59-.56c-.1-.06-.2-.12-.14-.26s.66.08.65-.3a.13.13,0,0,1,.07.05c.08-.15.35-.37.33-.57.25.25.36.08.56-.14s.35-.42.6-.2A4.4,4.4,0,0,0,86.8,23l0,0c.34-.24.25-.39.19-.53s.11,0,.14,0c.39-.41.36-.58,0-1l.2-.07c-.11-.1,0-.83-.67-1a.19.19,0,0,1,.14,0c-.69-.21-1.23-1.36-1.64-.77h-.36c.33.25-.21.25-.12.44-.16,0-.25-.4-.06-.33v0c.25-.29-.38-.36-.24-.58-.71-.38-1.28-.94-1.92-1.32l-.07.3-.22-.14c0-.1,0-.25.19-.15,0-.19-.34,0-.38,0-.26-.28.29-.23.2-.29l-.15-.05,0,0c-.17.05-.24.16-.43,0s0-.19,0-.23,0,0-.07-.05l-.27-.18v.27c-.18,0-.26-.16-.26.14,0-.46-1-.73-1-.91a.8.8,0,0,1-.65-.19c0,.07-.06.32-.23.19.33-.44-.23-.4-.19-.83,0,.31-.57-.24-.54.2-.13-.13.09-.18,0-.36-.48,0-.76-.58-1.25-.78,0,.06,0,.2-.17.24L77,14.71c-.11,0-.28.31-.33,0,0,.07,0,.16-.09.15A4,4,0,0,0,75.22,14a4,4,0,0,1-.68-.41l-.08-.06-.15-.09a2.21,2.21,0,0,0-.35-.16,2,2,0,0,0-.82-.1c.33,0,.13.11-.06.19.14,0,.07.17.13.24a1.47,1.47,0,0,0-.76.29c.06.14,0,.31-.1.52s-.06.4.07.43a1.6,1.6,0,0,1,0-.23c.14.17.31,0,.5,0a.71.71,0,0,1,.57.07c-.14-.12,0-.13.13-.07s.11.16.14-.09c0,.08,0,.12,0,.21,0-.17.06-.2.08-.11l0,0a.24.24,0,0,1,.1,0l.14.1a1.16,1.16,0,0,1,.24.2c.15.14.3.3.54.5l.06-.19c.1.08.09.15.12.22.28-.18-.31-.19,0-.4,0,.42.8.45.68.9.18.1.06-.23.24-.12l0,.13L76,16a.29.29,0,0,1,0,.34s-.1,0-.13,0c.08.21.44.19.47.26l-.13-.16c.53.17,1,.64,1.62.69V17c.44.05.24.25.66.4h0a.39.39,0,0,1,.35.05c-.15,0,.08.28-.11.31.48.06.26,0,.68-.16v.16c.15-.07.19-.13.4-.05-.22,0,0,.27-.25.31.25.52.77,0,.72.58.39-.26-.24-.4-.09-.42,0-.17.31-.18.41-.07s0,.58.3.76c0,0,0,0-.08,0,.07.17.31,0,.37.25.21-.17.19.12.37-.14l-.34-.11c.21,0,.56-.21.75.1a.53.53,0,0,1-.26.08c0,.13.19,0,.23.17-.19.27-.4-.14-.7,0,0,.16.45,0,.19.24.35-.31.3.23.68.06l-.11.16s.17-.05.23,0l-.24.16c.29-.09.26.35.49.35-.36-.2,0-.25,0-.46.57,0,0,.58.55.78-.08,0-.2-.24,0-.26a.65.65,0,0,1,.17.34c.35.15,0-.2.25-.22,0,.27.21,0,.39,0l-.1.17c.32.32.3-.29.56,0l-.27.15.21,0-.15.17c.28,0,.32,0,.47.2,0-.14.2-.3.37-.21s-.11.15,0,.21a1.33,1.33,0,0,1-.12.12s-.09,0-.1-.13c0,.05-.11.08-.15.13a.28.28,0,0,0,.16.16h.08a.07.07,0,0,1,0-.05,1,1,0,0,1,.33-.13.29.29,0,0,1-.16.13s.14,0,.2,0a3.5,3.5,0,0,1-.39.24.84.84,0,0,1,.24-.06.86.86,0,0,1-.22.15c-.11,0,.48-.08.36,0a.3.3,0,0,1,.13,0c0,.11-.32.11-.08.25l-.4-.08c0,.06.52.1.53.23s-.31-.1-.43-.13c.15.08.29.34,0,.23C84.86,22.12,84.91,22.14,84.92,22.11Zm-2.14,1.41c0-.06.06-.23.16-.15S82.9,23.53,82.78,23.52Zm-3.62,2.69c0-.07.08-.08.18-.05A.21.21,0,0,1,79.16,26.21Zm-5.74-2.33h0C73.32,24,73.36,24,73.42,23.88Zm.15-.23a.06.06,0,0,0-.07,0s0,.09,0,.15S73.59,23.73,73.57,23.65Zm8.06-6.18,0,.07C81.52,17.53,81.58,17.5,81.63,17.47Z" transform="translate(0.12 0.34)"/><path class="cls-1" d="M79.46,25.72l.08.08S79.52,25.73,79.46,25.72Z" transform="translate(0.12 0.34)"/><polygon class="cls-1" points="85.23 21.99 85.23 21.99 85.18 21.99 85.23 21.99"/><path class="cls-1" d="M74.24,27.56l-.13.09A.3.3,0,0,0,74.24,27.56Z" transform="translate(0.12 0.34)"/><path class="cls-1" d="M73.61,22.2v.18c0-.08.06-.1.1-.13S73.6,22.26,73.61,22.2Z" transform="translate(0.12 0.34)"/><path class="cls-1" d="M74.72,21.08s0,0,0-.07l-.09,0C74.62,21.14,74.71,21.19,74.72,21.08Z" transform="translate(0.12 0.34)"/><path class="cls-1" d="M74.28,22.22c.13,0,.14,0,.13-.11v-.05h0c-.11,0-.15,0-.16,0S74.26,22.14,74.28,22.22Z" transform="translate(0.12 0.34)"/><path class="cls-1" d="M74.4,22a.22.22,0,0,1,0-.08C74.32,22,74.39,22,74.4,22Z" transform="translate(0.12 0.34)"/><path class="cls-1" d="M73.55,23.29c.06,0-.19-.09-.12-.1C73.25,23.08,73.58,23.62,73.55,23.29Z" transform="translate(0.12 0.34)"/><polygon class="cls-1" points="74.95 22.6 74.74 22.59 74.88 22.7 74.95 22.6"/><path class="cls-1" d="M74.44,23.13l.1-.16s0,0-.05-.07S74.38,23.12,74.44,23.13Z" transform="translate(0.12 0.34)"/><path class="cls-1" d="M74.49,22.9a.23.23,0,0,0,0-.16A.39.39,0,0,0,74.49,22.9Z" transform="translate(0.12 0.34)"/><polygon class="cls-1" points="74.94 22.87 74.88 22.91 74.83 23.04 74.94 22.87"/><path class="cls-1" d="M73.88,25.1v.21c.06,0,.12,0,.11-.08S74,25.08,73.88,25.1Z" transform="translate(0.12 0.34)"/><path class="cls-1" d="M74.57,24.63c0,.05-.1,0-.17.05l.24.07Z" transform="translate(0.12 0.34)"/><path class="cls-1" d="M74.47,25.23c.07,0,.12.35.17.09C74.58,25.28,74.58,25.06,74.47,25.23Z" transform="translate(0.12 0.34)"/><polygon class="cls-1" points="73.5 28.42 73.51 28.38 73.05 28.59 73.5 28.42"/><path class="cls-1" d="M74.94,27.93c0-.1-.12.36-.14.23-.07.16,0,.11,0,.24A.81.81,0,0,0,74.94,27.93Z" transform="translate(0.12 0.34)"/><path class="cls-1" d="M74.76,28.4l-.06.11A.64.64,0,0,0,74.76,28.4Z" transform="translate(0.12 0.34)"/><path class="cls-1" d="M72,14.4a1.3,1.3,0,0,0-.15.34c.06-.07.11-.15.17-.21Z" transform="translate(0.12 0.34)"/><path class="cls-1" d="M72.25,15l-.24.12a1.59,1.59,0,0,0,.27.12S72.2,15.09,72.25,15Z" transform="translate(0.12 0.34)"/><path class="cls-1" d="M82.14,23.29l0,.06s.09,0,.16,0Z" transform="translate(0.12 0.34)"/><polygon class="cls-1" points="84.2 22.7 84.17 22.72 84.35 22.89 84.2 22.7"/><path class="cls-1" d="M84.51,21.76s0,0,0,0S84.85,21.91,84.51,21.76Z" transform="translate(0.12 0.34)"/><path class="cls-1" d="M34.14,43.62c-.25,0-.16.24-.2.29C34.39,43.83,34.13,43.56,34.14,43.62Z" transform="translate(0.12 0.34)"/><path class="cls-1" d="M38,42.06v.12a4.91,4.91,0,0,0,.39-.51A4.64,4.64,0,0,1,38,42.06Z" transform="translate(0.12 0.34)"/><path class="cls-1" d="M40.89,39.69c-.53,0-.84,1.06-1.49,1.36h-.14l0,.46C39.89,41,40.45,40.05,40.89,39.69Z" transform="translate(0.12 0.34)"/><path class="cls-1" d="M42.8,38.39c-.22,0,.08-.49-.28.44l.08-.06A3,3,0,0,1,42.8,38.39Z" transform="translate(0.12 0.34)"/><path class="cls-1" d="M42.6,38.77c-.19.39.26-.19,0,0Z" transform="translate(0.12 0.34)"/><path class="cls-1" d="M43.27,36.86a5.85,5.85,0,0,1,0,.6c.14-.08.32-.57.33-.37C43.64,36.48,43.51,36.59,43.27,36.86Z" transform="translate(0.12 0.34)"/><path class="cls-1" d="M43.1,36.27v.29S43.17,36.45,43.1,36.27Z" transform="translate(0.12 0.34)"/><path class="cls-1" d="M43,37.19c0-.2,0-.42.05-.63-.09.06-.23,0,0,.29C43,36.76,43.05,36.92,43,37.19Z" transform="translate(0.12 0.34)"/><path class="cls-1" d="M42.86,37.5c-.2.27-.39.61-.34,0-.15.49-.2.72-.11.73S42.71,38,42.86,37.5Z" transform="translate(0.12 0.34)"/><path class="cls-1" d="M40.65,39.26l-.32.22-.11.33C40.29,39.65,40.78,39.33,40.65,39.26Z" transform="translate(0.12 0.34)"/><path class="cls-1" d="M43.88,33.49c-.09,0-.25.15-.36.19l.1.35C43.69,33.85,43.74,33.51,43.88,33.49Z" transform="translate(0.12 0.34)"/><path class="cls-1" d="M43.52,33.68l-.16-.52C43.34,33.62,43.42,33.71,43.52,33.68Z" transform="translate(0.12 0.34)"/><path class="cls-1" d="M42.65,36.07c0,.33.07.68.06,1a9.57,9.57,0,0,0,0-1.2A1.13,1.13,0,0,1,42.65,36.07Z" transform="translate(0.12 0.34)"/><polygon class="cls-1" points="44.01 31.84 44.23 32.13 43.9 31.61 44.01 31.84"/><path class="cls-1" d="M43.85,30.19c.18.22.3-.3.41-.07a2.55,2.55,0,0,0-.32-.94A1.59,1.59,0,0,1,43.85,30.19Z" transform="translate(0.12 0.34)"/><path class="cls-1" d="M43.74,28.72a3.57,3.57,0,0,0,.2.46A1.65,1.65,0,0,0,43.74,28.72Z" transform="translate(0.12 0.34)"/><path class="cls-1" d="M43.4,32.28a.56.56,0,0,0,.27-.41l-.26.2Z" transform="translate(0.12 0.34)"/><path class="cls-1" d="M43.4,32.08h0v-.44Z" transform="translate(0.12 0.34)"/><path class="cls-1" d="M43.4,32.33v0S43.37,32.31,43.4,32.33Z" transform="translate(0.12 0.34)"/><path class="cls-1" d="M43.08,34.57c-.12-.38-.29-1-.51-.37C42.74,34.44,42.88,34.05,43.08,34.57Z" transform="translate(0.12 0.34)"/><path class="cls-1" d="M43.08,32.58l-.06.55c.07,0,.17-.11.24,0Z" transform="translate(0.12 0.34)"/><polygon class="cls-1" points="43.12 32.65 43.2 32.92 43.22 32.71 43.12 32.65"/><path class="cls-1" d="M43.5,29.67a2.24,2.24,0,0,1-.14-.8,6.19,6.19,0,0,0-.08.95C43.36,29.87,43.51,30,43.5,29.67Z" transform="translate(0.12 0.34)"/><path class="cls-1" d="M43.43,30.84l0-.05S43.39,30.84,43.43,30.84Z" transform="translate(0.12 0.34)"/><polygon class="cls-1" points="43.48 26.31 43.44 26.36 43.48 26.37 43.48 26.31"/><path class="cls-1" d="M43.23,29.88a.63.63,0,0,0,.1.51,4.84,4.84,0,0,1,0-.57S43.22,29.8,43.23,29.88Z" transform="translate(0.12 0.34)"/><path class="cls-1" d="M43.62,27.91c0,.13-.1.27-.14.41C43.56,28.2,43.69,28,43.62,27.91Z" transform="translate(0.12 0.34)"/><path class="cls-1" d="M43.49,30.71v0C43.55,30.66,43.53,30.67,43.49,30.71Z" transform="translate(0.12 0.34)"/><path class="cls-1" d="M43.49,30.71a1.91,1.91,0,0,0-.16-.32,3.53,3.53,0,0,0,.08.4Z" transform="translate(0.12 0.34)"/><path class="cls-1" d="M41.7,25.1c.24,0,.46.66.2,1.2.18.53,1,.18,1.42-.28-.11,0-.21,0-.35-.56-.13.19-.3,1.21-.52.75-.13-.72.08-.59.21-.94-.3.3-.43-.92-.87-.76l.15.63C41.87,25.15,41.76,24.92,41.7,25.1Z" transform="translate(0.12 0.34)"/><path class="cls-1" d="M43.29,27.06l0,.22a2.27,2.27,0,0,1,.33-.77c-.12-.37-.21-.45-.29-.48l0,1.11Z" transform="translate(0.12 0.34)"/><path class="cls-1" d="M43.32,28.29c-.26-.17-.37-.71-.65-.38,0,.66.21.46.33.85-.07-1.06.14.31.29-.46a3.15,3.15,0,0,1,.07.57,4.88,4.88,0,0,1,.12-.55l0,0h0s-.05.06,0,0v0l-.1-.05c.06-.31.07-.05.1.05h0l-.14-1.07A4.68,4.68,0,0,0,43.32,28.29Z" transform="translate(0.12 0.34)"/><path class="cls-1" d="M42,33.63s0,0,.06,0S42,33.5,42,33.63Z" transform="translate(0.12 0.34)"/><path class="cls-1" d="M42.17,33.19a.47.47,0,0,1,.11.39c-.08.22-.12,0-.21,0,.07.16.19.54.32.06l0-.08c.09-.42.42-1,.45-.9A1.93,1.93,0,0,0,42.17,33.19Z" transform="translate(0.12 0.34)"/><path class="cls-1" d="M42.68,30.71l-.13-.89-.23.46.14,0C42.41,30.76,42.57,30.65,42.68,30.71Z" transform="translate(0.12 0.34)"/><polygon class="cls-1" points="43.61 26.21 43.89 26.33 43.5 25.82 43.61 26.21"/><polygon class="cls-1" points="43.58 25.06 43.82 25.1 43.68 24.8 43.58 25.06"/><path class="cls-1" d="M2.78,9.67l.07.26A1.51,1.51,0,0,0,2.78,9.67Z" transform="translate(0.12 0.34)"/><path class="cls-1" d="M3,8.12l-.1-.06C2.9,8.14,2.94,8.18,3,8.12Z" transform="translate(0.12 0.34)"/><path class="cls-1" d="M33.37.06c-.38-.22-.81-.57-.76-.3l.12.26A1.45,1.45,0,0,1,33.37.06Z" transform="translate(0.12 0.34)"/><path class="cls-1" d="M14,1.63l.11.08.25-.25Z" transform="translate(0.12 0.34)"/><path class="cls-1" d="M13.74,2.72l-.5-.17A1.89,1.89,0,0,0,13.74,2.72Z" transform="translate(0.12 0.34)"/><path class="cls-1" d="M3.06,20l.27.3C3.32,19.79,3.19,20,3.06,20Z" transform="translate(0.12 0.34)"/><path class="cls-1" d="M43.36,12.93a2.81,2.81,0,0,0,.16-.81C43.37,12.51,43.14,12.83,43.36,12.93Z" transform="translate(0.12 0.34)"/><path class="cls-1" d="M0,8.82c0,.19.08.27.14.27C.14,8.9.09,8.79,0,8.82Z" transform="translate(0.12 0.34)"/><path class="cls-1" d="M43.52,11.17a1.27,1.27,0,0,0-.06.18,3.09,3.09,0,0,1,.06.77A1.09,1.09,0,0,0,43.52,11.17Z" transform="translate(0.12 0.34)"/><path class="cls-1" d="M19.9,40.65l.09,0S20,40.65,19.9,40.65Z" transform="translate(0.12 0.34)"/><path class="cls-1" d="M30.78,43.31l-.45,0A1.47,1.47,0,0,0,30.78,43.31Z" transform="translate(0.12 0.34)"/><path class="cls-1" d="M43.57,20.09c0,.25,0,0,0,0Z" transform="translate(0.12 0.34)"/><path class="cls-1" d="M42.53,21.28a.17.17,0,0,0-.12-.1A.2.2,0,0,1,42.53,21.28Z" transform="translate(0.12 0.34)"/><path class="cls-1" d="M41.84,8.75v0C41.8,8.8,41.8,8.79,41.84,8.75Z" transform="translate(0.12 0.34)"/><path class="cls-1" d="M43.45,20.46a1.41,1.41,0,0,0,.08-.31A3,3,0,0,0,43.45,20.46Z" transform="translate(0.12 0.34)"/><path class="cls-1" d="M43.58,20.41l0,.21C43.6,20.65,43.62,20.63,43.58,20.41Z" transform="translate(0.12 0.34)"/><path class="cls-1" d="M43.56,19.75a2.6,2.6,0,0,1,0,.4s0-.07,0-.06Z" transform="translate(0.12 0.34)"/><path class="cls-1" d="M2.68,36.9V37C2.87,37.11,2.81,37,2.68,36.9Z" transform="translate(0.12 0.34)"/><path class="cls-1" d="M27,2.79h0Z" transform="translate(0.12 0.34)"/><path class="cls-1" d="M26.14,3A.77.77,0,0,1,27,2.77L26.71,2Z" transform="translate(0.12 0.34)"/><path class="cls-1" d="M2.86,14.18l.23-.62c.39.75.26,1.29.59.71-.82-.09-.09-2.4-.91-2.48l.17-.41c0,.12.05.14,0,.25.39-.79-.6-.58-.48-1.6.06-.36.18-.6.28-.36L2.61,9c0-.19.16-.12.14.06a6.5,6.5,0,0,1,.08-1h0a2.39,2.39,0,0,1-.23-.73c.21-.22,0,.15.16.12V6.83c.29-.13.31.39.15.73.48-.11.47-.21.44-.43a.86.86,0,0,1,.45-.86,4,4,0,0,0-.15.49c.55-.07.59-.47,1.14-.71-.09,0-.4.09-.66.15s-.49.06-.42-.26a.9.9,0,0,0,.37-.63c.23.18.38-.09.63-.39L5,5.21c.22-.34.06-.47.14-.77A.67.67,0,0,1,6,4.52c.64-.31-.7-.14,0-.65A7.25,7.25,0,0,0,7.67,3c.47,0,0,.25.16.31.1-.13.21-.26.32-.38s.09.09.08.14c.31-.16,0-.4.5-.56.07-.21.36-.08.74.06a1.43,1.43,0,0,0,1.26,0c.19.11-.09.24,0,.39a7.61,7.61,0,0,0,1.79-.66l.75.25c-.55-.29.15-.63.77-.92-.2-.14-.37-.26-.48-.32l1-.21c.12.07,0,.2-.14.36l.18-.09c.35.14.17.36-.08.58l-.35-.24c-.25.24-.47.5-.42.73A.7.7,0,0,1,14,2.33c-.06.06-.1.12-.07.16s.13,0,.29-.14l.22.43.06-.17,1.28.27A8.86,8.86,0,0,1,19,1.62c-.37.32-.08.52-.1.9-.4-.4-1.13.17-1.89.09.4,0,.31.22.21.28l1.35-.36c0,.3.29.23.64.35-.27-.6,1-.4,1.55-.59,0,.21-.1.42-.77.37.74.45,1-.72,1.68-.33-.16,0-.25,0-.31.08.38-.18,1.31,0,1.09.14h-.16c1.08.07,3.3,0,3.46-.51a2.92,2.92,0,0,1-.21.73L27.46,1c-.17.45.48,1.5-.42,1.75a1.92,1.92,0,0,0,1.12,0c-.17-.06-.44-.64-.2-.68.66.49.46.26,1.28.68-.27-.09,0-.79.44-.76-.06.1,0,.68-.11.75l1-.68c-.26.13,0,.58.19.77-.11-.13.9,0,1.17,0l-.44-.16c1.18.1,1.16-1,2.33-.92-.15.14-.33.86.22,1a4.79,4.79,0,0,1,.84-.95,3.27,3.27,0,0,1,.75-.46,2.63,2.63,0,0,1,.88-.16l.14.27c.29,0,.6,0,.89.1-.36.12-1,.32-1.55.57a15.69,15.69,0,0,0-1.45.74c.35.2.08.25.62.31.14.21-.34.23-.49.22a7.23,7.23,0,0,1,1.14.37c.07-.42,1,0,1.12-.34a4.67,4.67,0,0,0-.74-.09,5.61,5.61,0,0,0-.71,0c0-.19.28-.44.69-.55a2.06,2.06,0,0,1,.67-.05,2.08,2.08,0,0,1,.71.25c.13.27-.52.54-.56.69.17-.08.91.21.91.36a3.42,3.42,0,0,0-.45,0c.32.39,1,.06,1.23.78.14.18,0,.81.24.68.14-.54,1.11-1.62,1.57-1.62A4.65,4.65,0,0,1,41,5.51c-.12.51-1.06-.06-1.15.39.1-.05.33.06.41.11,0,.25-.33.08-.07.5.42-.11.39,1,.42.07.31.42.14.53.32,1.09.2-.28,1,.3,1.22.89-.11,0-.22.12-.28.19,0,1.13-.2,1.75-.18,2.82-.1.1-.23.61-.4.39a1.31,1.31,0,0,1,.22.63c-.36.63-.06-.74-.49-.25.24,0,.34.85.49,1.32.37-.15.07-1.08-.08-1.55.51,0,1,.81,1.28,1.93.13.88-.33.38-.26.54-.09,1.66.9,1.41.53,2.8-.33.55-.65,0-.89.14-.12-.72.21-1.1.2-1.59l-.16.6a1.63,1.63,0,0,1-.09-1c-.3.46-.06,2.82-.33,4.1.11.23.22.63.35.44l0-.41c.26-.37.36.77.48.25a3.49,3.49,0,0,1,.33,1.93l-.37.14c.11,0,.22-.5.11-.72.16.33-.51,1.18,0,1.53l.26-.54a3.94,3.94,0,0,1,.46,1.91c.37-.31,0-.16.39-.64-.53.42,0-1.74-.54-1.07.5-.49.21-.86.64-1.51-.12,0-.24.23-.18-.34a.4.4,0,0,1-.1-.12v0s0,0,0,0a.63.63,0,0,1-.19.29c-.28-.28-.27-1.19-.42-1.5.06-.34.14.15.27,0l-.22-.46c.28,0,.46-.9.62-.1V18a2.48,2.48,0,0,0,.1-1.36c.06-.34-.3-.86-.09-.56l-.17-1.13h.07c0-1.11-.45-2.29,0-3.56A4.17,4.17,0,0,1,43.38,10l.24-.12a6.64,6.64,0,0,1,0-1.07,1.32,1.32,0,0,0-.18-.87,1,1,0,0,0,.13-.77,3.42,3.42,0,0,0-.3-1c-.29-.73-.78-1.41-1-1.88L42,4.34a5.43,5.43,0,0,0-1.56-1.58L40.29,3c-.65-.33-1.28-1.35-2.35-1.83.11-.06.37.09.52.25A2.67,2.67,0,0,0,36.52.53a6.69,6.69,0,0,1-2-.28,1.09,1.09,0,0,1-.73,0h0L33.37.06a1.25,1.25,0,0,0,.31.15,4,4,0,0,0-.82.11L32.73,0h-.07c-.3-.11-.24.14-.09.36a1.85,1.85,0,0,0-.4.18c-.24-.48-.8.15-1.13-.35-.21.25-1.53.19-1.7.7,0-.07-.1-.1.07-.1a1.59,1.59,0,0,0-1,0L28.28.48,27.54,1c-.46-.22-.64-.35-.19-.64-1.09.44-.88.17-1.8.6l0-.24c-.33,0-.85.33-1.05.13C23.81.37,20.9.76,19,.34c.37.7-.87-.32-1,.23C18,.4,17.69.31,18,.16c-1,.17-1.44-.26-2.11.2C15.77.19,16.09.11,16,0s-.31.15-.41,0,.14-.14.3-.21c-1,0-1.09.54-1.16,1A.85.85,0,0,0,13.61,1c-.17-.15-.46-.32.15-.38-.34,0-2.1-.23-2.13.16-.11-.1-.49,0-.58,0-.77,0-.84-.05-1.59,0l.21.07c-.29.46-.65.11-1.31.22V1C7.6.93,7.43,1,7.29,1.1s-.3.1-1.07.19l.17.25c.05.32-.28.32-.71.39a1.91,1.91,0,0,0-1.28.49c.11,0,.23,0,.35,0-.15.2-.51.23-.94.24a2.57,2.57,0,0,0-1.1.2c-.12,0,.08-.18.17-.32-1.25.7.12.39-.48,1.17-.28,0-.26-.54-.71,0a2.5,2.5,0,0,0-.52,1.15A4.17,4.17,0,0,1,.51,6.36c.22-.14.43-.26.39.2A11.86,11.86,0,0,1,.34,7.73,1.33,1.33,0,0,0,.3,9c0,.09-.09.12-.13.12,0,.29.09.69.17,1A2,2,0,0,0,.63,11c-1,.43.49,2.9-.43,2.89l0,1.44-.1,0a2.07,2.07,0,0,0,.38,1.57c-.06.21-.15.06-.19,0a3.53,3.53,0,0,0,.31,2.6l-.3.12c.17.3-.47,1.94-.12,3.25,0,0-.09,0-.14-.14.36,1.48-.83,3.55.26,4.09l.27,1c.09-1.27.48.18.66-.34.06.5-.33,1.29-.39.68L1,28c-.57-.22-.2,1.57-.59,1.54C.37,30.77.3,32,.22,33.21l-.06.9c0,.33,0,.69,0,1a8.43,8.43,0,0,0,.39,2c.1-.14.2-.28.32-.42.08.29.19.57.28.86s-.21.44-.42-.19c-.13.44.65.93.73.89.48,1.21-.7-.19-.51.15a4.57,4.57,0,0,0,.29.47v-.13a2.61,2.61,0,0,1,1,.86c.22.45-.06.38,0,.54s0,.08.2.24a8.33,8.33,0,0,0,.83.85l-.11-.57c.48.23.8.7.64.08a3.32,3.32,0,0,0,1.88,1.58A20.91,20.91,0,0,0,7.89,43,10,10,0,0,1,10.08,43c-.19-.08-.31-.47.36-.42-.24.81,1.23.35,1.77.93-.48-.38,1.91-.09,1.15-.64.56.06,0,.3.46.49,1.33-.31,2.93.21,4.58.1,0-.11-.25-.27.1-.43l.87.54c.33-.06.3-.62.9-.25-.09-.09-.21-.22,0-.26,3.22.52,6.59-.42,9.86.55-.44-.2-.15-.22.19-.23-.22,0,0-.27,0-.41l1.37.4c.25-.4,1.47,0,1.62-.41l-.44.07c.58-.45-.8-1-.72-1.59-.65.52-1.7-.76-2.77,0-.23-.12.2-.19.08-.32-.27.25-.59.3-1.2.19l.07-.07A30.71,30.71,0,0,1,24,40.83l.14.28a1.84,1.84,0,0,1-.69-.2c-.47.44,1.15,0,.72.51-.54-.59-2.88,0-3.24-.68-.63,0,.18.34-.45.33l-.16-.18-.16.23c-.41,0-.62-.26-.64-.41a1.32,1.32,0,0,0,.39-.06c-.53-.21-1.5.08-1.68,0l.6.11c-1.71.17-3.81-.07-5.46.3l.12.13c-1.26.25-1-.15-2.4,0l.05,0a2.17,2.17,0,0,1-1,.18c.35-.15-.66-.3-.2-.48C9.2,41,9.1,41,9,41.09a1.62,1.62,0,0,1-.59.4l-.16-.25a1.07,1.07,0,0,1-1,.16c.56-.06-.29-.43.33-.53a3.08,3.08,0,0,0-1.37-.55c-.38-.09-.69-.21-.71-.66-.41.07-.26.32,0,.51s.57.33.4.3c.16.33-.68.16-1-.16s-.12-1.05-.77-1.77c.07.08.11.05.17.12a1.3,1.3,0,0,0-.36-.42.68.68,0,0,1-.31-.54c-.47,0-.28-.52-.73-.38a6.51,6.51,0,0,0,.57.78c-.37-.37-1.19-.59-1.24-1.6a1.8,1.8,0,0,1,.46.4c0-.3-.28-.44-.2-.75.45-.07.47,1.06,1.09,1.36,0-.3-.77-.78-.19-.74-.38,0-.44-.3-.5-.56a1.31,1.31,0,0,0-.36-.88h.29a1.18,1.18,0,0,1-.25-.49l.42.3c-.41-.5.2-1,0-1.61,0,.65-.08.7-.19.68s-.26-.11-.36.12c-.4-1.53.75-.89.61-2.66,0,.24-.17.9-.31.53a2.94,2.94,0,0,1,.32-1c-.06-1.17-.29.19-.47-.32.35-.4-.14-.57-.25-1.09h.29c.19-1.35-.61-.36-.38-1.57l.4.51-.1-.63.33.13a2.5,2.5,0,0,1-.09-1.57c-.21.16-.53-.08-.54-.68.17-.4.28.23.24-.61.18.19.41.39.14.76.09,0,.18.19.28.23A3.4,3.4,0,0,0,3,25a1,1,0,0,1-.07.33l-.4-1.22c.11-.19.19,0,.28.11a5.24,5.24,0,0,1-.19-.78c.24.1.48.07.59.59l-.26-1.17c.1-.07.28-.59.37-.44.14-.65-.46-1.58-.27-2.44a.56.56,0,0,1-.13-.31,5.26,5.26,0,0,0,0-2.47l.43-.54c-.1-.75-.54.73-.7-.51-.14-.88.36-.33.48-.64a2.35,2.35,0,0,1-.3-2A4.64,4.64,0,0,1,2.86,14.18ZM3.74,6c0,.17,0,.5-.22.51C3.31,6.16,3.53,6.12,3.74,6ZM15.36,2.19c-.13.1-.34.05-.57-.06A1.29,1.29,0,0,1,15.36,2.19Zm28,15.23,0,0C43.44,17,43.39,17.14,43.34,17.42Zm-.13.82c0,.08.08.08.12,0s-.08-.24-.06-.45C43.2,17.89,43.14,18,43.21,18.24ZM2.44,40.18,2.37,40C2.71,40.24,2.58,40.21,2.44,40.18Z" transform="translate(0.12 0.34)"/><path class="cls-1" d="M13.77,2.59a.26.26,0,0,1-.07-.15C13.63,2.48,13.63,2.54,13.77,2.59Z" transform="translate(0.12 0.34)"/><path class="cls-1" d="M3,19.9v0s0,0,.05,0Z" transform="translate(0.12 0.34)"/><path class="cls-1" d="M39.84,6.22a.74.74,0,0,1,0-.32C39.76,5.93,39.74,6,39.84,6.22Z" transform="translate(0.12 0.34)"/><path class="cls-1" d="M43.71,22.62l-.08-.53a.93.93,0,0,1-.1.48C43.6,22.55,43.7,22.45,43.71,22.62Z" transform="translate(0.12 0.34)"/><path class="cls-1" d="M41.9,27.21c0,.08,0,.16,0,.24l.13,0C42.06,27.1,42,26.87,41.9,27.21Z" transform="translate(0.12 0.34)"/><path class="cls-1" d="M42.73,23.11c-.24,0-.16.37-.11.74,0,0,0,0,0-.06C43,23.9,42.85,23.5,42.73,23.11Z" transform="translate(0.12 0.34)"/><path class="cls-1" d="M42.63,23.94a1.93,1.93,0,0,1,0,.34C42.77,24.32,42.66,24.14,42.63,23.94Z" transform="translate(0.12 0.34)"/><path class="cls-1" d="M43.37,19.29c-.06.18.32.11.22.21C43.9,19.7,43.21,18.33,43.37,19.29Z" transform="translate(0.12 0.34)"/><polygon class="cls-1" points="42.05 23.75 42.35 23.61 42.1 23.41 42.05 23.75"/><path class="cls-1" d="M42.15,20.48l-.09.59s.08.07.11.16C42.18,20.87,42.24,20.47,42.15,20.48Z" transform="translate(0.12 0.34)"/><path class="cls-1" d="M42.17,21.23a1.14,1.14,0,0,0,0,.48C42.21,21.61,42.2,21.39,42.17,21.23Z" transform="translate(0.12 0.34)"/><polygon class="cls-1" points="41.95 22.94 42.02 22.76 42.04 22.34 41.95 22.94"/><path class="cls-1" d="M42.21,14.12l-.09-.65c-.11-.07-.17.11-.13.35S42.11,14.22,42.21,14.12Z" transform="translate(0.12 0.34)"/><path class="cls-1" d="M41.37,16.07a.56.56,0,0,1,.24-.28l-.38,0Z" transform="translate(0.12 0.34)"/><path class="cls-1" d="M41.29,14.19c-.11-.07-.3-.94-.28-.12C41.11,14.13,41.2,14.78,41.29,14.19Z" transform="translate(0.12 0.34)"/><polygon class="cls-1" points="40.32 5.23 40.42 5.36 40.91 4.98 40.32 5.23"/><path class="cls-1" d="M32.78,3.21c.76.15.18-.38.87-.2.18-.14-.56-.15-.38-.27C32.81,2.89,32.57,2.8,32.78,3.21Z" transform="translate(0.12 0.34)"/><path class="cls-1" d="M33.27,2.74l.24-.1A.72.72,0,0,0,33.27,2.74Z" transform="translate(0.12 0.34)"/><polygon class="cls-1" points="32.7 43.98 33.2 44.1 32.88 43.9 32.7 43.98"/><path class="cls-1" d="M33.53,43.18l.11.39.3-.35C33.83,43.24,33.61,43.27,33.53,43.18Z" transform="translate(0.12 0.34)"/><path class="cls-1" d="M5,5.59l0-.08c-.12,0-.18,0-.31.15Z" transform="translate(0.12 0.34)"/><polygon class="cls-1" points="3.29 10.63 3.29 10.51 2.94 10.73 3.29 10.63"/><path class="cls-1" d="M3.62,15.89c0-.22-.07-.49-.05-.72C3.63,15.67,3.17,16,3.62,15.89Z" transform="translate(0.12 0.34)"/><path class="cls-2" d="M27.05,28.65a.81.81,0,0,1-1.17.93L20,26.28,13.65,22.7a.81.81,0,0,1,0-1.4l6.29-3.72,5.78-3.42a.8.8,0,0,1,1.19.9l-1.76,6.57a.89.89,0,0,0,0,.43Z" transform="translate(0.12 0.34)"/><path class="cls-1" d="M28,28.32c0,.07.16,0,.19,0S27.94,28.34,28,28.32Z" transform="translate(0.12 0.34)"/><polygon class="cls-1" points="27.41 27.65 27.48 27.65 27.27 27.54 27.41 27.65"/><path class="cls-1" d="M27,26.27c-.25.18.15.36.11.58l-.06,0,.25,0C27.19,26.7,27,26.45,27,26.27Z" transform="translate(0.12 0.34)"/><path class="cls-1" d="M27.42,25.54c-.09.07-.12-.09,0,.14l0,0A.53.53,0,0,1,27.42,25.54Z" transform="translate(0.12 0.34)"/><path class="cls-1" d="M27.45,25.65c0,.11.07-.1,0,0Z" transform="translate(0.12 0.34)"/><path class="cls-1" d="M27.24,25.16l.14.11c.05,0,0-.18.09-.14C27.37,25,27.32,25,27.24,25.16Z" transform="translate(0.12 0.34)"/><path class="cls-1" d="M27,25.08l.06.06S27.09,25.1,27,25.08Z" transform="translate(0.12 0.34)"/><path class="cls-1" d="M27.19,25.28l-.13-.14s-.13.06.05.07C27,25.22,27.11,25.23,27.19,25.28Z" transform="translate(0.12 0.34)"/><path class="cls-1" d="M27.18,25.38c0,.1-.05.21-.19.1C27.11,25.74,27.3,25.64,27.18,25.38Z" transform="translate(0.12 0.34)"/><path class="cls-1" d="M26.68,26.3l-.05.13.12.07C26.7,26.46,26.77,26.27,26.68,26.3Z" transform="translate(0.12 0.34)"/><path class="cls-1" d="M27.12,24.21c-.06,0-.14.1-.21.13l.1.09C27,24.36,27,24.25,27.12,24.21Z" transform="translate(0.12 0.34)"/><path class="cls-1" d="M26.91,24.34l-.15-.13C26.79,24.36,26.84,24.37,26.91,24.34Z" transform="translate(0.12 0.34)"/><polygon class="cls-1" points="26.8 25.48 27.09 25.68 26.79 25.43 26.8 25.48"/><polygon class="cls-1" points="27.07 23.94 27.24 23.99 26.98 23.89 27.07 23.94"/><path class="cls-1" d="M26.81,23.2c.13,0,.17-.14.26-.09a.66.66,0,0,0-.29-.23A.27.27,0,0,1,26.81,23.2Z" transform="translate(0.12 0.34)"/><path class="cls-1" d="M26.61,22.77a.83.83,0,0,0,.17.11A.45.45,0,0,0,26.61,22.77Z" transform="translate(0.12 0.34)"/><path class="cls-1" d="M26.71,23.93a.24.24,0,0,0,.13-.17l-.15.11Z" transform="translate(0.12 0.34)"/><path class="cls-1" d="M26.69,23.87h0l0-.14Z" transform="translate(0.12 0.34)"/><path class="cls-1" d="M26.71,24v0S26.69,24,26.71,24Z" transform="translate(0.12 0.34)"/><path class="cls-1" d="M26.71,24.68c-.12-.07-.27-.23-.36,0C26.48,24.71,26.53,24.58,26.71,24.68Z" transform="translate(0.12 0.34)"/><path class="cls-1" d="M26.53,24.08v.19s.1-.07.16,0Z" transform="translate(0.12 0.34)"/><polygon class="cls-1" points="26.57 24.35 26.65 24.42 26.64 24.36 26.57 24.35"/><path class="cls-1" d="M26.54,23.11c-.1-.05-.12-.13-.16-.22a.8.8,0,0,0,0,.31C26.47,23.2,26.57,23.21,26.54,23.11Z" transform="translate(0.12 0.34)"/><path class="cls-1" d="M26.6,23.48h0S26.57,23.49,26.6,23.48Z" transform="translate(0.12 0.34)"/><polygon class="cls-1" points="26.24 22.34 26.21 22.36 26.24 22.35 26.24 22.34"/><path class="cls-1" d="M26.39,23.22c0,.09,0,.12.1.14a.8.8,0,0,1-.08-.16S26.37,23.2,26.39,23.22Z" transform="translate(0.12 0.34)"/><path class="cls-1" d="M26.46,22.55l-.06.15C26.45,22.65,26.51,22.55,26.46,22.55Z" transform="translate(0.12 0.34)"/><path class="cls-1" d="M26.62,23.43h0S26.64,23.41,26.62,23.43Z" transform="translate(0.12 0.34)"/><path class="cls-1" d="M26.62,23.43a.4.4,0,0,0-.13-.07l.09.11Z" transform="translate(0.12 0.34)"/><path class="cls-1" d="M25,22c.17,0,.36.14.24.36.17.13.64-.13.88-.35a.3.3,0,0,1-.25,0c-.08,0-.11.35-.28.26s0-.17.07-.26c-.19.11-.33-.2-.61-.18a.82.82,0,0,0,.12.2C25.09,22,25,21.94,25,22Z" transform="translate(0.12 0.34)"/><path class="cls-1" d="M26.17,22.34l0,.07c0-.09.05-.16.14-.3-.11-.09-.17-.1-.23-.09l.08.34Z" transform="translate(0.12 0.34)"/><path class="cls-1" d="M26.3,22.72c-.18,0-.3-.15-.45,0,.07.2.18.1.29.2-.14-.31.12.07.14-.19a.7.7,0,0,1,.1.16,1.23,1.23,0,0,1,0-.19h0s0,0,0,0H26.3c0-.11,0,0,.07,0h0l-.19-.3A.94.94,0,0,0,26.3,22.72Z" transform="translate(0.12 0.34)"/><path class="cls-1" d="M25.94,24.61s0,0,0,0S25.93,24.56,25.94,24.61Z" transform="translate(0.12 0.34)"/><path class="cls-1" d="M26,24.44s.1,0,.11.1-.08,0-.14,0,.17.13.21,0h0a.67.67,0,0,1,.21-.37A1.59,1.59,0,0,0,26,24.44Z" transform="translate(0.12 0.34)"/><path class="cls-1" d="M26.1,23.58l-.16-.25-.1.18.08,0C25.94,23.65,26,23.58,26.1,23.58Z" transform="translate(0.12 0.34)"/><path class="cls-1" d="M26.2,22a1.13,1.13,0,0,1,.18,0h-.27Z" transform="translate(0.12 0.34)"/><polygon class="cls-1" points="26.27 22.18 26.43 22.18 26.34 22.16 26.27 22.18"/><path class="cls-1" d="M16,21l-.05.08A.25.25,0,0,0,16,21Z" transform="translate(0.12 0.34)"/><path class="cls-1" d="M16.49,20.74l0-.08C16.47,20.71,16.47,20.75,16.49,20.74Z" transform="translate(0.12 0.34)"/><path class="cls-1" d="M26,13.1c-.07-.15-.2-.39-.23-.18v.19A.21.21,0,0,1,26,13.1Z" transform="translate(0.12 0.34)"/><path class="cls-1" d="M20.28,17.41l.06,0,0-.19Z" transform="translate(0.12 0.34)"/><path class="cls-1" d="M20.58,18.08l-.2,0A.41.41,0,0,0,20.58,18.08Z" transform="translate(0.12 0.34)"/><path class="cls-1" d="M15,22.07l.27,0A.7.7,0,0,0,15,22.07Z" transform="translate(0.12 0.34)"/><path class="cls-1" d="M27,18.46a.55.55,0,0,0,.16-.22C27,18.33,26.84,18.39,27,18.46Z" transform="translate(0.12 0.34)"/><path class="cls-1" d="M15.23,19.32a.11.11,0,0,0,0,.12C15.25,19.39,15.26,19.35,15.23,19.32Z" transform="translate(0.12 0.34)"/><path class="cls-1" d="M27.22,17.94l0,0a.44.44,0,0,1,0,.25C27.24,18.17,27.31,18.07,27.22,17.94Z" transform="translate(0.12 0.34)"/><path class="cls-1" d="M24.11,27.44v0S24.13,27.44,24.11,27.44Z" transform="translate(0.12 0.34)"/><path class="cls-1" d="M27.16,30.17a.7.7,0,0,1-.23.15A.43.43,0,0,0,27.16,30.17Z" transform="translate(0.12 0.34)"/><path class="cls-1" d="M26.52,20.72c0,.08,0,0,0,0Z" transform="translate(0.12 0.34)"/><path class="cls-1" d="M25.75,20.91s0,0-.07-.06A.14.14,0,0,1,25.75,20.91Z" transform="translate(0.12 0.34)"/><path class="cls-1" d="M26.37,16.91h0S26.34,16.91,26.37,16.91Z" transform="translate(0.12 0.34)"/><path class="cls-1" d="M26.41,20.81a.3.3,0,0,0,.08-.08A.28.28,0,0,0,26.41,20.81Z" transform="translate(0.12 0.34)"/><path class="cls-1" d="M26.5,20.82l0,.06S26.51,20.89,26.5,20.82Z" transform="translate(0.12 0.34)"/><path class="cls-1" d="M26.54,20.61a.61.61,0,0,1-.05.12s0,0,0,0Z" transform="translate(0.12 0.34)"/><path class="cls-1" d="M18.29,24.7v0C18.4,24.7,18.36,24.69,18.29,24.7Z" transform="translate(0.12 0.34)"/><polygon class="cls-1" points="24.39 16.29 24.39 16.28 24.38 16.28 24.39 16.29"/><path class="cls-1" d="M24.09,16.21c0-.25.06-.26.17-.27l-.34-.39Z" transform="translate(0.12 0.34)"/><path class="cls-1" d="M15.09,21.62l.17.08c.15.21.09.14.29.28-.24-.17-.22-.2-.19-.23s0,0,0-.09a.24.24,0,0,0,0-.28l.17,0s0,.05-.06.06c.36.1,0-.44.28-.53.12,0,.23,0,.2.1l.15-.25c.07,0,.1.06,0,.09l.31-.23h0a1.93,1.93,0,0,1,.06-.36c.13,0,0,.08,0,.12l.11-.22c.15.08.07.29-.07.35.45.36.08-.21.62-.16l-.14.16c.27.21.35,0,.64.08-.09-.06-.64-.19-.51-.42.08,0,.16,0,.22-.19.1.17.18.07.3,0l.13.23c.1-.15,0-.26.05-.41s.3.08.43.2c.27-.11-.34-.17-.07-.39.26,0,.36-.22.53-.5.2,0,.06.15.15.18l0-.25s.06,0,.07.07c.07-.13-.12-.22,0-.39-.1-.27.57.15.62-.26.09,0,.05.16.12.23a1.79,1.79,0,0,0,.27-.67l.29,0c-.25-.07-.17-.38-.1-.65a1.24,1.24,0,0,0-.24-.1l.2-.28c.06,0,.07.1.08.22l0-.08c.15,0,.17.18.18.35l-.18-.08a.93.93,0,0,0,.13.48.21.21,0,0,1,.05-.11c0,.05,0,.09,0,.1s0,0,0-.13l.21.22-.05-.11.45-.06a2.53,2.53,0,0,1,.45-1.24c0,.25.16.31.28.53-.25-.16-.26.28-.49.36a.11.11,0,0,1,.15.13l.25-.43c.1.18.16.09.3.1-.28-.3.14-.39.23-.59.07.11.11.25-.09.33.36.15,0-.56.35-.46,0,0-.08,0-.06.1,0-.17.35-.24.35-.1l-.05,0c.33-.14.92-.54.79-.86,0,0,.17.38.19.45l-.06-1.31c.1.28.64.78.48,1.07a.28.28,0,0,0,.28-.18s-.32-.31-.26-.37a3,3,0,0,1,.4.29c-.06,0-.15-.52,0-.57s.1.47.08.53a3.11,3.11,0,0,1,.13-.6,1.57,1.57,0,0,0,0,.57.06.06,0,0,1,0,0s.11,0,.15-.09,0-.07,0-.1c.14,0,.36-1,.68-1.11a2.69,2.69,0,0,0-.3.92A6.44,6.44,0,0,1,26,14.13a1,1,0,0,1,.8-.46l0,.15a1.16,1.16,0,0,1,.32.08l-.34.12a1.06,1.06,0,0,0-.47.27,4.67,4.67,0,0,0-.87,1c0,.15-.1.23,0,.22a.79.79,0,0,1-.22.3.25.25,0,0,1,.05.15c.27-.41.39-.31.66-.59a1.24,1.24,0,0,0-.49.24A2.63,2.63,0,0,1,26,14.9c.23-.18.48-.23.51-.06a7.56,7.56,0,0,1-.73.68c.13-.11.29,0,.19.05l-.19.08c-.11.17.47-.19.1.16,0,.07-.45.35-.26.24l1-.59a3.73,3.73,0,0,1,.78-.4,3.13,3.13,0,0,1-.6.78c-.3.19-.62.06-.88.24a.35.35,0,0,1,.2,0c-.08.07-.25.06-.24.15.3,0-.08.23.24,0,0,.11-.09.13-.12.27a.59.59,0,0,1,.6.42.37.37,0,0,0-.21,0c-.12.35-.29.5-.38.83-.07,0-.19.16-.29.06,0,.06.11.13.09.23-.28.14,0-.24-.29-.16.15.05.14.32.2.49.25,0,.14-.32.08-.49a1,1,0,0,1,.66.82c0,.29-.24.06-.21.12-.19.5.46.59.11,1-.26.11-.42-.11-.58-.11,0-.24.22-.31.26-.46l-.15.16c-.05-.09-.07-.25,0-.32-.23.09-.27.86-.55,1.21.05.09.09.24.19.2v-.13c.2-.07.17.3.29.16.08.2.21.44.05.65l-.25,0c.07,0,.19-.12.13-.2.08.13-.42.28-.14.47l.22-.12c0,.1.1.22.14.34s.09.12,0,.17c.25,0,0,0,.27,0-.17,0-.17,0-.13-.18s.07-.24-.14-.19c.36-.07.21-.23.53-.36-.08,0-.17,0-.08-.13l-.06-.06h0s0,0,0,0a.25.25,0,0,1-.14.06c-.16-.14-.08-.42-.14-.54s.07.07.17,0l-.1-.18c.18,0,.37-.2.4.08l.07-.22a.44.44,0,0,0,.18-.41c.06-.09-.12-.32,0-.19l0-.38h.05c.11-.34-.1-.78.32-1.09a.68.68,0,0,1,.06-.45h.17c0-.19.25-.36.15-.59.48-.22.47-1.32.61-1.75l-.23.07a1,1,0,0,0-.14-.71l-.17.13c-.13-.11.07-.65-.24-1,.06,0,.12.07.12.16,0-.35-.25-.5-.53-.55s-.55,0-.68-.16c-.13.07-.19.05-.23,0h0a.39.39,0,0,0-.1-.08.24.24,0,0,0,.08.09.91.91,0,0,0-.32.14v-.22l0,0c-.1-.06-.12.13-.09.28a1.07,1.07,0,0,0-.18.19c0-.34-.31.25-.43-.07a.22.22,0,0,1-.09.13c-.17.21-.55.46-.52.77,0,0-.06,0,0-.08a.46.46,0,0,0-.35.23l-.16-.19a1.52,1.52,0,0,0-.08.43c-.2-.05-.3-.1-.27-.34-.15.43-.18.24-.29.64L23.16,15c-.09.06-.12.33-.25.25-.35-.15-1,.56-1.69.62.35.35-.35,0-.18.29-.09-.08-.19-.09-.16-.22-.21.25-.49.08-.51.46-.09-.08,0-.18-.09-.22s0,.13-.1.09,0-.1,0-.17c-.26.18-.11.49,0,.78-.21-.05-.27,0-.26.25-.11-.06-.24-.11-.09-.24-.1,0-.66.21-.54.44-.06,0-.14.06-.15.1a2,2,0,0,0-.45.25h.08c.08.32-.14.16-.29.3v0c-.5,0-.11.2-.62.2l.12.16c.17.38-.47,0-.61.25l.14,0c-.05.2-.63-.29-.78-.26s0-.07,0-.12c-.44,0,.09.24-.12.44-.11-.1-.12-.34-.29-.26s-.24.65-.59.55c.1.07.2.13.13.26s-.66-.07-.64.31c0,0-.06,0-.07-.06-.09.15-.35.37-.33.58-.25-.25-.36-.09-.56.13s-.35.42-.6.21a3.53,3.53,0,0,0-.52.39l-.05-.05c-.35.25-.26.4-.19.53-.09.05-.11,0-.14,0-.39.4-.36.57,0,1l-.2.06c.11.11-.06.84.67,1.06a.28.28,0,0,1-.14,0,2.06,2.06,0,0,1,.41.23c.24.18.46.43.7.6s.31.15.53-.07h.36c-.33-.25.2-.24.12-.43.16,0,.25.39.06.33v-.05c-.25.3.38.37.24.59.7.37,1.28.94,1.92,1.32l.07-.3.22.14c0,.09,0,.25-.19.14,0,.2.34,0,.38,0,.26.28-.29.23-.2.29l.14.06v0c.17,0,.24-.15.43,0s0,.2,0,.23,0,0,.07.05l.28.19v-.27c.18,0,.26.16.26-.14,0,.46,1,.72,1,.9a.79.79,0,0,1,.64.2c0-.08.07-.32.24-.19-.33.43.23.4.19.82,0-.3.57.25.53-.19.14.12-.09.18,0,.36.47,0,.75.58,1.25.77,0-.05,0-.19.17-.23L23,29c.1,0,.28-.31.33,0,0-.07,0-.17.08-.15a4.13,4.13,0,0,0,1.34.83,4.28,4.28,0,0,1,.69.4l.08.07.15.09a1.87,1.87,0,0,0,.35.16,2.2,2.2,0,0,0,.82.1c-.33-.05-.13-.11.06-.2-.14,0-.07-.16-.13-.24a1.37,1.37,0,0,0,.76-.28c-.06-.14.05-.32.1-.52s.05-.4-.08-.43a.85.85,0,0,1,0,.23c-.14-.17-.31-.06-.51,0a.77.77,0,0,1-.56-.07c.13.12,0,.13-.14.06s-.1-.15-.13.1c0-.08,0-.13,0-.21,0,.16-.06.19-.08.1l0,0a.36.36,0,0,1-.1-.05L26,28.88a1.59,1.59,0,0,1-.24-.2c-.16-.14-.31-.3-.54-.5l-.06.19a.42.42,0,0,1-.13-.23c-.27.18.32.2,0,.41,0-.42-.8-.46-.69-.9-.17-.1-.05.22-.23.12v-.13l-.12.11a.31.31,0,0,1,0-.34s.1,0,.13,0c-.08-.21-.44-.2-.47-.27l.13.16c-.53-.17-1-.63-1.62-.68v.1c-.44-.06-.24-.25-.66-.4h0a.43.43,0,0,1-.35-.05c.15,0-.08-.29.1-.32-.47-.06-.26,0-.67.17V26a.41.41,0,0,1-.41.05c.23,0,0-.27.25-.32-.24-.51-.76-.05-.71-.57-.39.26.24.4.09.42,0,.16-.31.18-.42.07s0-.59-.29-.76c0,0,0,0,.08,0-.07-.16-.31,0-.37-.24-.21.17-.19-.12-.37.14l.33.1c-.21,0-.55.22-.74-.1a.66.66,0,0,1,.26-.08c0-.13-.19,0-.23-.16.18-.27.4.14.7,0,0-.17-.46,0-.19-.24-.35.31-.3-.23-.68-.06l.1-.16s-.16,0-.23,0L18,24c-.28.09-.25-.35-.48-.35.36.2,0,.25.05.45-.57,0,0-.58-.55-.78.08,0,.2.25.05.26a.63.63,0,0,1-.18-.34c-.34-.15,0,.2-.24.23,0-.27-.21,0-.39,0l.1-.17c-.32-.32-.3.3-.57,0l.28-.16-.21,0,.14-.17c-.27,0-.31,0-.47-.19a.26.26,0,0,1-.36.2c0-.15.11-.15-.05-.21l.12-.11s.09,0,.09.13c.05-.05.12-.08.16-.13a.25.25,0,0,0-.16-.16.21.21,0,0,0-.08,0s0,0,0,.05a1.63,1.63,0,0,1-.32.13.29.29,0,0,1,.16-.13l-.14,0a.06.06,0,0,1-.06,0l.3-.19.09,0-.06,0-.19,0a1.19,1.19,0,0,1,.23-.16c.1,0-.48.09-.36,0l-.13,0c0-.11.32-.12.08-.25a2.57,2.57,0,0,1,.4.08c0-.07-.53-.1-.53-.23s.31.1.42.12c-.14-.08-.28-.33,0-.23C15.15,21.61,15.09,21.59,15.09,21.62Zm2.14-1.42c0,.07-.07.24-.16.16S17.11,20.2,17.23,20.2Zm3.62-2.69c0,.08-.08.09-.18.06A.2.2,0,0,1,20.85,17.51Zm5.74,2.34h0C26.69,19.73,26.64,19.77,26.59,19.85Zm-.15.23s0,0,.07,0,0-.08,0-.15S26.41,20,26.44,20.08Zm-8.07,6.18,0-.07C18.48,26.19,18.43,26.22,18.37,26.26Z" transform="translate(0.12 0.34)"/><path class="cls-1" d="M20.55,18a.2.2,0,0,1-.08-.08A.07.07,0,0,0,20.55,18Z" transform="translate(0.12 0.34)"/><polygon class="cls-1" points="15.02 22.41 15.02 22.41 15.07 22.41 15.02 22.41"/><path class="cls-1" d="M25.77,16.17a.38.38,0,0,1,.13-.09A.3.3,0,0,0,25.77,16.17Z" transform="translate(0.12 0.34)"/><path class="cls-1" d="M26.39,21.52v-.17c0,.08-.06.09-.1.13S26.4,21.47,26.39,21.52Z" transform="translate(0.12 0.34)"/><path class="cls-1" d="M25.29,22.65s0,.05.05.07l.08,0C25.39,22.58,25.3,22.53,25.29,22.65Z" transform="translate(0.12 0.34)"/><path class="cls-1" d="M25.73,21.51c-.17,0-.14.08-.13.16a0,0,0,0,1,0,0C25.83,21.7,25.77,21.65,25.73,21.51Z" transform="translate(0.12 0.34)"/><path class="cls-1" d="M25.6,21.69a.06.06,0,0,1,0,.07C25.69,21.78,25.62,21.73,25.6,21.69Z" transform="translate(0.12 0.34)"/><path class="cls-1" d="M26.45,20.43c-.05.05.2.09.13.11C26.76,20.65,26.43,20.11,26.45,20.43Z" transform="translate(0.12 0.34)"/><polygon class="cls-1" points="25.3 21.8 25.51 21.81 25.37 21.7 25.3 21.8"/><path class="cls-1" d="M25.57,20.59l-.11.17s.05,0,.06.07S25.63,20.6,25.57,20.59Z" transform="translate(0.12 0.34)"/><path class="cls-1" d="M25.52,20.83a.2.2,0,0,0,0,.15A.35.35,0,0,0,25.52,20.83Z" transform="translate(0.12 0.34)"/><polygon class="cls-1" points="25.31 21.53 25.37 21.49 25.41 21.36 25.31 21.53"/><path class="cls-1" d="M26.13,18.63v-.22c-.06,0-.12,0-.11.09S26.06,18.64,26.13,18.63Z" transform="translate(0.12 0.34)"/><path class="cls-1" d="M25.43,19.09c.06,0,.1,0,.18-.05L25.37,19Z" transform="translate(0.12 0.34)"/><path class="cls-1" d="M25.53,18.49c-.06,0-.11-.34-.16-.08C25.43,18.45,25.43,18.66,25.53,18.49Z" transform="translate(0.12 0.34)"/><polygon class="cls-1" points="26.75 15.98 26.74 16.03 27.2 15.81 26.75 15.98"/><path class="cls-1" d="M25.07,15.8c0,.1.12-.37.14-.24.07-.15,0-.1,0-.23A.81.81,0,0,0,25.07,15.8Z" transform="translate(0.12 0.34)"/><path class="cls-1" d="M25.25,15.33l.06-.11A.64.64,0,0,0,25.25,15.33Z" transform="translate(0.12 0.34)"/><path class="cls-1" d="M28,29.33a1.35,1.35,0,0,0,.14-.35,1.77,1.77,0,0,1-.16.22Z" transform="translate(0.12 0.34)"/><path class="cls-1" d="M27.76,28.69l.24-.11-.27-.13C27.76,28.51,27.81,28.64,27.76,28.69Z" transform="translate(0.12 0.34)"/><path class="cls-1" d="M17.87,20.44l0-.06c-.06-.05-.09,0-.16,0Z" transform="translate(0.12 0.34)"/><polygon class="cls-1" points="16.05 21.7 16.08 21.68 15.9 21.51 16.05 21.7"/><path class="cls-1" d="M15.5,22l0,0S15.16,21.82,15.5,22Z" transform="translate(0.12 0.34)"/></svg>