<svg xmlns="http://www.w3.org/2000/svg" viewBox="0 0 43.74 11.38"><defs><style>.cls-1{fill:#fff;}</style></defs><title>Fichier 1</title><g id="Calque_2" data-name="Calque 2"><g id="Calque_1-2" data-name="Calque 1"><rect class="cls-1" x="0.83" y="1.96" width="5.01" height="7.86"/><path class="cls-1" d="M6.56,9.78s.11,0,.13,0S6.53,9.79,6.56,9.78Z"/><polygon class="cls-1" points="6.28 9.16 6.33 9.17 6.21 9.08 6.28 9.16"/><path class="cls-1" d="M6.28,8.57c-.21.06,0,.21,0,.32h0l.17,0C6.33,8.83,6.22,8.66,6.28,8.57Z"/><path class="cls-1" d="M6.74,8.26c-.08,0-.07-.07,0,.07h0A.18.18,0,0,1,6.74,8.26Z"/><path class="cls-1" d="M6.73,8.32c0,.06.07,0,0,0Z"/><path class="cls-1" d="M6.69,8l.07.08s.06-.09.09-.06S6.76,8,6.69,8Z"/><path class="cls-1" d="M6.53,8l0,0S6.59,8,6.53,8Z"/><path class="cls-1" d="M6.63,8.09,6.56,8s-.1,0,0,0C6.52,8,6.58,8.05,6.63,8.09Z"/><path class="cls-1" d="M6.6,8.14s-.08.1-.15,0C6.48,8.32,6.63,8.29,6.6,8.14Z"/><path class="cls-1" d="M6.06,8.54,6,8.6l.07.05S6.13,8.54,6.06,8.54Z"/><path class="cls-1" d="M6.79,7.53a.55.55,0,0,0-.17,0l0,.06S6.73,7.53,6.79,7.53Z"/><path class="cls-1" d="M6.62,7.56l-.08-.09C6.53,7.55,6.57,7.56,6.62,7.56Z"/><polygon class="cls-1" points="6.3 7.94 6.46 8.09 6.29 7.91 6.3 7.94"/><polygon class="cls-1" points="6.8 7.18 6.9 7.23 6.75 7.14 6.8 7.18"/><path class="cls-1" d="M6.78,7c.09,0,.15,0,.2,0s-.09-.11-.16-.16S6.85,6.88,6.78,7Z"/><path class="cls-1" d="M6.73,6.7a.73.73,0,0,0,.09.08A.24.24,0,0,0,6.73,6.7Z"/><path class="cls-1" d="M6.56,7.32s.1,0,.13-.08l-.13,0Z"/><path class="cls-1" d="M6.56,7.28h0v0Z"/><path class="cls-1" d="M6.56,7.32Z"/><path class="cls-1" d="M6.41,7.7c-.07,0-.15-.16-.25,0C6.24,7.69,6.3,7.63,6.41,7.7Z"/><path class="cls-1" d="M6.4,7.37l0,.09s.08,0,.11,0Z"/><polygon class="cls-1" points="6.36 7.32 6.4 7.37 6.42 7.33 6.36 7.32"/><path class="cls-1" d="M6.61,6.86a.16.16,0,0,1-.07-.13.47.47,0,0,0,0,.16S6.61,6.92,6.61,6.86Z"/><path class="cls-1" d="M6.57,7.07h0S6.55,7.07,6.57,7.07Z"/><polygon class="cls-1" points="6.54 6.22 6.52 6.23 6.54 6.23 6.54 6.22"/><path class="cls-1" d="M6.48,6.9s0,.07,0,.09a.17.17,0,0,1,0-.1S6.47,6.89,6.48,6.9Z"/><path class="cls-1" d="M6.67,6.56l-.07.07S6.7,6.57,6.67,6.56Z"/><path class="cls-1" d="M6.6,7h0S6.62,7,6.6,7Z"/><path class="cls-1" d="M6.6,7,6.53,7a.25.25,0,0,0,0,.07Z"/><path class="cls-1" d="M5.73,6.07c.12,0,.23.12.1.21.09.09.47,0,.69,0a.18.18,0,0,1-.17-.09c-.06,0-.15.2-.25.12s0-.1.1-.16C6.05,6.15,6,5.94,5.77,6l.08.11S5.76,6,5.73,6.07Z"/><path class="cls-1" d="M6.51,6.41v0s.07-.07.16-.13a.23.23,0,0,0-.14-.09l0,.2Z"/><path class="cls-1" d="M6.52,6.63c-.13,0-.18-.13-.32-.07s.11.08.16.15c0-.19.08,0,.15-.08a.19.19,0,0,1,0,.1l.06-.1h0s0,0,0,0H6.52c0-.06,0,0,.05,0h0l-.07-.19S6.51,6.54,6.52,6.63Z"/><path class="cls-1" d="M5.88,7.55h0S5.89,7.53,5.88,7.55Z"/><path class="cls-1" d="M6,7.47S6,7.5,6,7.54s-.07,0-.11,0,.09.1.16,0h0a.46.46,0,0,1,.22-.16Z"/><path class="cls-1" d="M6.21,7l-.06-.15L6,7H6.1C6.08,7.05,6.16,7,6.21,7Z"/><polygon class="cls-1" points="6.61 6.21 6.74 6.23 6.55 6.14 6.61 6.21"/><polygon class="cls-1" points="6.59 6.01 6.71 6.01 6.64 5.96 6.59 6.01"/><path class="cls-1" d="M1.53,4.15l0,0Z"/><path class="cls-1" d="M1.54,3.82H1.48S1.54,3.83,1.54,3.82Z"/><path class="cls-1" d="M5.18,1.22C5.11,1.11,5,.94,5,1.07V1.2A.21.21,0,0,1,5.18,1.22Z"/><path class="cls-1" d="M1.65,2l0,0V1.9Z"/><path class="cls-1" d="M1.78,2.52,1.7,2.43Z"/><path class="cls-1" d="M1.67,5.93,1.8,6C1.8,5.9,1.73,5.94,1.67,5.93Z"/><path class="cls-1" d="M6.54,4a.37.37,0,0,0,.08-.15C6.55,3.89,6.44,4,6.54,4Z"/><path class="cls-1" d="M.17,4a.09.09,0,0,0,.08,0A.07.07,0,0,0,.17,4Z"/><path class="cls-1" d="M6.62,3.66l0,0a.19.19,0,0,1,0,.13S6.71,3.72,6.62,3.66Z"/><path class="cls-1" d="M3.41,9.08v0S3.42,9.08,3.41,9.08Z"/><path class="cls-1" d="M5.29,10.38H5.21S5.25,10.39,5.29,10.38Z"/><path class="cls-1" d="M6.65,5.21s0,0,0,0Z"/><path class="cls-1" d="M6.14,5.41a.11.11,0,0,0-.06,0Z"/><path class="cls-1" d="M5.82,3.24Z"/><path class="cls-1" d="M6.59,5.27l0-.06A.15.15,0,0,0,6.59,5.27Z"/><path class="cls-1" d="M6.65,5.26v0S6.67,5.3,6.65,5.26Z"/><path class="cls-1" d="M6.64,5.15s0,0,0,.06h0Z"/><path class="cls-1" d="M1.22,8.84h0C1.26,8.87,1.25,8.86,1.22,8.84Z"/><polygon class="cls-1" points="3.89 2.55 3.9 2.55 3.89 2.54 3.89 2.55"/><path class="cls-1" d="M3.74,2.65c.07-.16.1-.14.15-.11l-.05-.37Z"/><path class="cls-1" d="M1.57,4.93l.11-.11c.19.13.13.22.29.12-.4,0,0-.41-.44-.43l.08-.07s0,0,0,0c.19-.14-.29-.1-.24-.28s.09-.11.14-.06L1.43,4s.08,0,.07,0l0-.21h0l-.2-.13c.06-.05,0,0,.09,0l-.1-.12a.14.14,0,0,1,.2.13c.4-.11-.11-.1.13-.33l0,.11c.23-.07.14-.16.29-.28-.08,0-.36.25-.46.12s0-.08,0-.15c.15,0,.11-.1.1-.11l.19,0A2.19,2.19,0,0,0,1.5,3s.16,0,.28,0-.23,0-.27-.11,0-.08-.11-.24c.06,0,.11.09.16.12l-.15-.15s.05,0,.08,0-.19-.15-.24-.26-.05-.08,0-.06.26.19.19,0c.06.06.09.12.15.19a2,2,0,0,1,0-.32l.14.12A.38.38,0,0,1,1.65,2a1.31,1.31,0,0,0-.14-.16l.17-.1s0,.09,0,.17l0,0c.08.07.06.18.05.28L1.68,2a.71.71,0,0,0,.05.35.08.08,0,0,1,0,0s0,.06,0,.07,0,0,0-.07l.07.22V2.46L2,2.59c.14-.21.29-.52.54-.61-.06.16,0,.25,0,.44-.06-.2-.19.08-.32,0,.07,0,0,.11,0,.14l.24-.18c0,.15,0,.12.11.18,0-.3.17-.2.27-.29,0,.1,0,.2-.14.18.13.22.17-.35.29-.16,0,0,0,0,0,0,.07-.09.23,0,.19.06h0c.19,0,.57,0,.6-.25a2.35,2.35,0,0,1,0,.35L4,1.69c0,.22.08.73-.07.86a.14.14,0,0,0,.19,0s-.07-.32,0-.34c.11.25.08.13.22.34,0,0,0-.39.08-.38s0,.34,0,.37l.17-.33a.65.65,0,0,0,0,.38c0-.07.18,0,.17,0a.12.12,0,0,0,0-.08c.12,0,.18-.46.38-.45,0,.07-.17.43-.13.47a2.28,2.28,0,0,1,.88-1l0,.09.27-.11A5.48,5.48,0,0,0,5,2.53c0,.08,0,.11,0,.11a.37.37,0,0,1-.11.14l0,.06c.13-.2.22-.2.37-.37A1.82,1.82,0,0,0,5,2.68c.1-.2.48-.57.63-.53,0,.08-.36.35-.41.42a.5.5,0,0,1,.12-.08s0,0,0,.06l-.11.06c-.07.1.27-.14.08.07,0,0-.26.23-.14.16a7.74,7.74,0,0,1,1.1-.71,2.24,2.24,0,0,1-.33.5c-.18.13-.43.08-.58.2a.27.27,0,0,1,.14,0s-.16,0-.14.1c.2-.05,0,.13.17,0,.06,0,0,.08,0,.15a.6.6,0,0,1,.5.17.57.57,0,0,0-.15,0c0,.2-.11.3-.11.49,0,0-.11.11-.2.07s.11.05.11.11c-.17.11,0-.13-.23-.05.11,0,.16.15.23.23s0-.19,0-.27a.76.76,0,0,1,.63.34c.06.15-.16.06-.13.09,0,.29.44.25.26.49-.16.09-.32,0-.43,0S6,4.57,6,4.48l-.07.11c-.06,0-.1-.13,0-.17-.14.08,0,.49-.16.71,0,0,.11.11.17.07l0-.07c.13-.06.18.14.24,0,.09.09.23.2.16.33l-.18,0s.1-.09,0-.13-.25.21,0,.27l.13-.1c.09.1.28.22.22.33.18,0,0,0,.19-.11-.26.08,0-.3-.26-.18.24-.09.1-.15.31-.26-.06,0-.11,0-.08-.06l-.06,0h0s0,0,0,0l-.09,0c-.14,0-.14-.21-.21-.26s.07,0,.13,0L6.31,5c.13,0,.22-.16.3,0V4.84c.08-.08.11-.18,0-.24s-.15-.15,0-.1l-.08-.19h0c0-.2-.22-.4,0-.62a.27.27,0,0,1,0-.24l.12,0c0-.08.11-.25,0-.29.16,0,.17-.25.16-.43a2.69,2.69,0,0,1,0-.54l-.15.06a1.14,1.14,0,0,0-.09-.48l-.13.11c-.08-.06,0-.29,0-.53a.5.5,0,0,0-.18,0c.06-.05.12,0,.14,0,0-.15-.27-.09-.47,0s-.4.14-.5,0c-.09.05-.13,0-.17,0h0a.71.71,0,0,0-.09-.07l.07.07A.74.74,0,0,0,5,1.34L5,1.2H5c-.08-.05-.07.07,0,.18a.27.27,0,0,0-.12.09c-.06-.23-.19.07-.23-.17,0,.12-.27.09-.29.34,0,0,0,0,0,0s-.12-.06-.17,0l0-.18L4,1.66c-.07-.11-.11-.17,0-.31-.19.22-.15.08-.31.29V1.53c-.06,0-.15.16-.19.06s-.63,0-1-.24c.06.35-.15-.15-.17.12,0-.08-.06-.13,0-.2-.17.08-.25-.13-.37.09,0-.08,0-.12,0-.16s-.08.07-.1,0,0-.07.08-.11c-.3,0-.29.27-.26.51-.13-.12-.2-.1-.23,0-.06-.07-.17-.15,0-.18-.07,0-.58-.11-.47.07,0,0-.12,0-.12,0a1.72,1.72,0,0,0-.39,0l.08,0c.06.08.06.11,0,.12s0,.05,0,.16l0,0C.36,2,.6,2,.41,2.22l.14.06c.31.18-.18.17-.06.42l.08,0c.11.1-.41.18-.45.33s0-.05-.06-.09c-.18.32.18.09.22.26S0,3.12,0,3.22s.33.29.13.43c.08,0,.16-.06.22,0s-.3.28,0,.38l-.06,0c.06.08.1.26.23.31-.49.07.24.5-.21.5l0,.25h0c0,.16.08.22.19.27,0,0-.08,0-.1,0-.09.23-.07.26.15.45l-.14,0c.08,0-.23.34-.06.57,0,0,0,0-.07,0,.17.26-.41.61.13.71l.13.17c0-.22.23,0,.32-.06,0,.09-.16.22-.19.12l0,0c-.28,0-.1.27-.29.27a2.65,2.65,0,0,1-.07.63,3.16,3.16,0,0,0-.08.71l.21-.09V9C.35,9.1.23,9.15.24,9c-.12.12.1.23.15.21-.09.32-.25,0-.26.06l0,.13,0,0c.09.07.19,0,.18.21s-.14.13-.15.18,0,0,0,.08l0,.29.17-.24c.08.05,0,.24.19,0a1,1,0,0,0-.17.43c.25,0,.68,0,.72,0a.78.78,0,0,1,.53-.11s0-.23.12-.2c-.14.39.28.17.34.45-.09-.19.33,0,.19-.31.1,0,0,.15.08.24.24-.15.51.1.8,0,0,0,0-.13,0-.21l.15.26c.05,0,.05-.3.15-.12,0,0,0-.11,0-.13.56.26,1.14-.2,1.71.27-.08-.1,0-.11,0-.11s0-.13,0-.2l.24.19c0-.19.25,0,.27-.2l-.07,0c.1-.22-.14-.49-.13-.78-.11.25-.29-.37-.47,0,0-.06,0-.09,0-.16,0,.12-.1.15-.21.1v0c-.29,0-.42-.09-.74-.17l0,.14c-.07,0-.09-.07-.12-.1-.08.21.2,0,.13.24-.1-.28-.5,0-.57-.32-.1,0,0,.16-.07.16l0-.09,0,.11c-.07,0-.11-.13-.11-.2s.05,0,.07,0-.26,0-.29,0l.1.06c-.3.08-.66,0-1,.14l0,.07c-.21.12-.22-.07-.38,0h0c0,.06-.08.1-.12.09s0-.15,0-.24c-.16.13-.08.11-.29.35l0-.11c-.09.1-.12.15-.24.18.13-.09.07-.17.22-.29s-.18,0-.24,0,0-.07.13-.17c-.18.13-.21.2-.21.25s.06,0,0,0a.61.61,0,0,1-.21.16s0,0,0-.07.39-.43.38-.51,0,0,0,0-.1,0,0-.12c-.19,0,0-.06-.23,0l.06.1c-.07,0-.34,0-.21-.2a.66.66,0,0,1,.15,0c.07,0-.05-.05,0-.1.24,0,.05.13.23.13s-.17,0,.09-.09c-.33,0,0-.06-.21-.15h.14s-.09-.06-.08-.1l.18.07c-.16-.11.13-.21,0-.32,0,.22-.17.05-.27.14-.19-.27.37-.15.3-.46,0,0-.09.15-.15.09a.35.35,0,0,1,.15-.17c0-.21-.14,0-.23-.06.18-.07-.07-.1-.12-.19h.14c.09-.23-.29-.06-.18-.27l.19.09-.05-.11.16,0c-.12-.12-.08-.15,0-.27-.1,0-.26,0-.26-.12s.13,0,.11-.1c.09,0,.2.06.07.13A.74.74,0,0,1,1.6,7c.1-.08,0-.19,0-.25s0,0,0,.06l-.2-.21c.05,0,.09,0,.14,0s-.08-.07-.1-.14.24,0,.29.11L1.6,6.42s.13-.1.18-.07-.23-.28-.14-.43c0,0,0,0-.06,0s.17-.26,0-.43l.21-.09c-.05-.13-.26.12-.34-.09s.18-.06.23-.11-.31-.21-.15-.35C1.58,4.85,1.55,4.88,1.57,4.93Zm-.09-1.6s.12.1,0,.12S1.43,3.39,1.48,3.33ZM1.9,2.26c0,.05,0,0-.08,0S1.87,2.22,1.9,2.26ZM6.53,4.74h0C6.58,4.67,6.56,4.69,6.53,4.74Zm-.06.14a0,0,0,0,0,.06,0s0,0,0-.08S6.44,4.84,6.47,4.88ZM.26,9.74l0-.07C.34,9.74.3,9.74.26,9.74Z"/><path class="cls-1" d="M1.76,2.46l0-.08A.16.16,0,0,0,1.76,2.46Z"/><polygon class="cls-1" points="1.64 5.92 1.64 5.92 1.67 5.93 1.64 5.92"/><path class="cls-1" d="M5.26,2.89l.07-.06A.11.11,0,0,0,5.26,2.89Z"/><path class="cls-1" d="M6.71,5.64l0-.09s0,.06,0,.08S6.71,5.61,6.71,5.64Z"/><path class="cls-1" d="M5.83,6.44s0,0,0,0h.06C5.91,6.42,5.85,6.38,5.83,6.44Z"/><path class="cls-1" d="M6.24,5.73c-.12,0-.08.06-.06.13h0C6.35,5.86,6.29,5.8,6.24,5.73Z"/><path class="cls-1" d="M6.18,5.87a.13.13,0,0,1,0,.06C6.25,5.94,6.2,5.91,6.18,5.87Z"/><path class="cls-1" d="M6.55,5.07s.15,0,.1,0C6.8,5.14,6.47,4.9,6.55,5.07Z"/><polygon class="cls-1" points="5.84 5.78 5.99 5.76 5.87 5.72 5.84 5.78"/><path class="cls-1" d="M6,5.27l0,.11s0,0,0,0S6,5.27,6,5.27Z"/><path class="cls-1" d="M6,5.4s0,.07,0,.09A.16.16,0,0,0,6,5.4Z"/><polygon class="cls-1" points="5.8 5.64 5.83 5.61 5.84 5.54 5.8 5.64"/><path class="cls-1" d="M6,4.17l0-.11c-.06,0-.09,0-.07.06S5.93,4.19,6,4.17Z"/><path class="cls-1" d="M5.57,4.51s.07,0,.11,0H5.5Z"/><path class="cls-1" d="M5.53,4.18s-.15-.16-.14,0S5.49,4.29,5.53,4.18Z"/><polygon class="cls-1" points="5.76 2.54 5.76 2.56 6.07 2.41 5.76 2.54"/><path class="cls-1" d="M4.76,2.76c0,.07,0-.19.07-.1,0-.07,0-.07,0-.14S4.78,2.56,4.76,2.76Z"/><path class="cls-1" d="M4.84,2.52l0,0S4.84,2.51,4.84,2.52Z"/><polygon class="cls-1" points="5.6 10.54 5.69 10.6 5.63 10.5 5.6 10.54"/><path class="cls-1" d="M5.77,10.32l0,.19,0-.18S5.78,10.36,5.77,10.32Z"/><path class="cls-1" d="M1.86,3.1h0c-.05,0-.06,0-.07.06Z"/><polygon class="cls-1" points="1.72 4.25 1.72 4.23 1.55 4.27 1.72 4.25"/><path class="cls-1" d="M1.94,5.22s0-.08,0-.12S1.72,5.24,1.94,5.22Z"/><rect class="cls-1" x="37.59" y="1.96" width="5.01" height="7.86"/><path class="cls-1" d="M43.32,9.78s.12,0,.14,0S43.29,9.79,43.32,9.78Z"/><polygon class="cls-1" points="43.04 9.16 43.09 9.17 42.97 9.08 43.04 9.16"/><path class="cls-1" d="M43,8.57c-.21.06,0,.21,0,.32h0l.17,0C43.1,8.83,43,8.66,43,8.57Z"/><path class="cls-1" d="M43.5,8.26c-.08,0-.07-.07,0,.07h0S43.49,8.29,43.5,8.26Z"/><path class="cls-1" d="M43.5,8.32c0,.06.06,0,0,0Z"/><path class="cls-1" d="M43.45,8l.07.08s.06-.09.1-.06S43.53,8,43.45,8Z"/><path class="cls-1" d="M43.29,8l0,0S43.35,8,43.29,8Z"/><path class="cls-1" d="M43.39,8.09,43.33,8s-.11,0,0,0C43.29,8,43.35,8.05,43.39,8.09Z"/><path class="cls-1" d="M43.36,8.14s-.08.1-.15,0C43.24,8.32,43.39,8.29,43.36,8.14Z"/><path class="cls-1" d="M42.83,8.54l-.07.06.07.05S42.89,8.54,42.83,8.54Z"/><path class="cls-1" d="M43.56,7.53a.62.62,0,0,0-.18,0l0,.06S43.49,7.53,43.56,7.53Z"/><path class="cls-1" d="M43.38,7.56l-.08-.09C43.29,7.55,43.33,7.56,43.38,7.56Z"/><polygon class="cls-1" points="43.06 7.94 43.22 8.09 43.06 7.91 43.06 7.94"/><polygon class="cls-1" points="43.56 7.18 43.67 7.23 43.51 7.14 43.56 7.18"/><path class="cls-1" d="M43.55,7c.08,0,.14,0,.19,0s-.09-.11-.15-.16S43.62,6.88,43.55,7Z"/><path class="cls-1" d="M43.49,6.7a.44.44,0,0,0,.1.08A.29.29,0,0,0,43.49,6.7Z"/><path class="cls-1" d="M43.33,7.32s.09,0,.12-.08l-.12,0Z"/><path class="cls-1" d="M43.32,7.28h0v0Z"/><path class="cls-1" d="M43.33,7.32Z"/><path class="cls-1" d="M43.17,7.7c-.07,0-.14-.16-.25,0C43,7.69,43.07,7.63,43.17,7.7Z"/><path class="cls-1" d="M43.17,7.37l0,.09s.08,0,.12,0Z"/><polygon class="cls-1" points="43.13 7.32 43.17 7.37 43.18 7.33 43.13 7.32"/><path class="cls-1" d="M43.37,6.86a.19.19,0,0,1-.07-.13.45.45,0,0,0,0,.16S43.38,6.92,43.37,6.86Z"/><path class="cls-1" d="M43.34,7.07h0S43.32,7.07,43.34,7.07Z"/><polygon class="cls-1" points="43.3 6.22 43.28 6.23 43.3 6.23 43.3 6.22"/><path class="cls-1" d="M43.24,6.9s0,.07,0,.09a.3.3,0,0,1,0-.1S43.24,6.89,43.24,6.9Z"/><path class="cls-1" d="M43.43,6.56l-.07.07S43.47,6.57,43.43,6.56Z"/><path class="cls-1" d="M43.37,7h0S43.39,7,43.37,7Z"/><path class="cls-1" d="M43.37,7l-.08,0a.25.25,0,0,0,0,.07Z"/><path class="cls-1" d="M42.49,6.07c.12,0,.23.12.1.21.09.09.48,0,.69,0a.18.18,0,0,1-.17-.09c-.06,0-.14.2-.25.12s0-.1.1-.16c-.14.05-.21-.16-.42-.13l.07.11S42.52,6,42.49,6.07Z"/><path class="cls-1" d="M43.27,6.41v0a.61.61,0,0,1,.16-.13.21.21,0,0,0-.14-.09v.2Z"/><path class="cls-1" d="M43.29,6.63c-.13,0-.19-.13-.32-.07s.1.08.16.15c0-.19.07,0,.14-.08a.19.19,0,0,1,0,.1l.06-.1h0s0,0,0,0h-.05c0-.06,0,0,0,0h0l-.07-.19A.39.39,0,0,0,43.29,6.63Z"/><path class="cls-1" d="M42.65,7.55h0S42.65,7.53,42.65,7.55Z"/><path class="cls-1" d="M42.72,7.47s.07,0,.06.07-.06,0-.1,0,.09.1.15,0h0A.51.51,0,0,1,43,7.38Z"/><path class="cls-1" d="M43,7l-.06-.15L42.8,7h.07C42.84,7.05,42.92,7,43,7Z"/><polygon class="cls-1" points="43.37 6.21 43.5 6.23 43.31 6.14 43.37 6.21"/><polygon class="cls-1" points="43.35 6.01 43.47 6.01 43.4 5.96 43.35 6.01"/><path class="cls-1" d="M38.29,4.15l0,0A.08.08,0,0,0,38.29,4.15Z"/><path class="cls-1" d="M38.3,3.82h-.06S38.3,3.83,38.3,3.82Z"/><path class="cls-1" d="M42,1.22c-.08-.11-.19-.28-.2-.15l0,.13A.21.21,0,0,1,42,1.22Z"/><path class="cls-1" d="M38.41,2l0,0V1.9Z"/><path class="cls-1" d="M38.54,2.52l-.08-.09Z"/><path class="cls-1" d="M38.43,5.93l.13.05C38.56,5.9,38.49,5.94,38.43,5.93Z"/><path class="cls-1" d="M43.31,4a.25.25,0,0,0,.07-.15C43.31,3.89,43.2,4,43.31,4Z"/><path class="cls-1" d="M36.93,4a.1.1,0,0,0,.08,0A.07.07,0,0,0,36.93,4Z"/><path class="cls-1" d="M43.38,3.66l0,0a.19.19,0,0,1,0,.13C43.44,3.77,43.47,3.72,43.38,3.66Z"/><path class="cls-1" d="M40.17,9.08l0,0S40.18,9.08,40.17,9.08Z"/><path class="cls-1" d="M42.06,10.38H42S42,10.39,42.06,10.38Z"/><path class="cls-1" d="M43.41,5.21s0,0,0,0Z"/><path class="cls-1" d="M42.9,5.41l-.06,0Z"/><path class="cls-1" d="M42.58,3.24Z"/><path class="cls-1" d="M43.35,5.27l0-.06Z"/><path class="cls-1" d="M43.41,5.26v0S43.43,5.3,43.41,5.26Z"/><path class="cls-1" d="M43.4,5.15a.13.13,0,0,1,0,.06h0Z"/><path class="cls-1" d="M38,8.84h0C38,8.87,38,8.86,38,8.84Z"/><polygon class="cls-1" points="40.66 2.55 40.66 2.55 40.66 2.54 40.66 2.55"/><path class="cls-1" d="M40.5,2.65c.07-.16.11-.14.15-.11l0-.37Z"/><path class="cls-1" d="M38.33,4.93l.12-.11c.19.13.12.22.28.12-.4,0,0-.41-.44-.43l.09-.07s0,0,0,0c.19-.14-.29-.1-.23-.28s.09-.11.13-.06L38.19,4s.08,0,.07,0l0-.21h0L38,3.68c.06-.05.05,0,.1,0L38,3.58a.14.14,0,0,1,.19.13c.4-.11-.1-.1.13-.33l0,.11c.23-.07.15-.16.29-.28-.07,0-.36.25-.46.12s0-.08,0-.15c.14,0,.1-.1.1-.11l.18,0A2.19,2.19,0,0,0,38.26,3s.16,0,.29,0-.24,0-.27-.11,0-.08-.12-.24c.06,0,.11.09.17.12l-.15-.15s0,0,.07,0-.19-.15-.24-.26,0-.08,0-.06.25.19.19,0c.06.06.08.12.14.19a2,2,0,0,1,0-.32.87.87,0,0,1,.14.12A.38.38,0,0,1,38.41,2a.79.79,0,0,0-.14-.16l.17-.1s0,.09,0,.17l0,0c.08.07.06.18,0,.28L38.44,2a.85.85,0,0,0,.05.35.08.08,0,0,1,0,0,.12.12,0,0,0,0,.07s0,0,0-.07l.07.22V2.46l.12.13c.14-.21.3-.52.54-.61-.06.16,0,.25,0,.44-.07-.2-.2.08-.33,0,.07,0,0,.11,0,.14l.23-.18c0,.15.05.12.11.18,0-.3.17-.2.27-.29,0,.1,0,.2-.13.18.12.22.16-.35.29-.16,0,0,0,0-.06,0,.07-.09.23,0,.19.06h0c.19,0,.58,0,.6-.25a2.26,2.26,0,0,1,0,.35l.33-.85c0,.22.09.73-.07.86a.15.15,0,0,0,.2,0s-.08-.32,0-.34c.12.25.08.13.22.34,0,0,0-.39.08-.38s0,.34,0,.37l.18-.33c-.05.06,0,.28,0,.38,0-.07.18,0,.18,0a.35.35,0,0,0-.05-.08c.11,0,.17-.46.38-.45,0,.07-.17.43-.13.47a2.19,2.19,0,0,1,.87-1l0,.09.27-.11a5.78,5.78,0,0,0-1.09,1c0,.08,0,.11,0,.11a.37.37,0,0,1-.11.14l0,.06c.13-.2.22-.2.37-.37a2.43,2.43,0,0,0-.29.21c.1-.2.48-.57.63-.53,0,.08-.36.35-.41.42a.5.5,0,0,1,.12-.08s0,0,0,.06l-.1.06c-.08.1.26-.14.07.07,0,0-.26.23-.14.16A8.34,8.34,0,0,1,43,2.13a2.24,2.24,0,0,1-.33.5c-.18.13-.42.08-.58.2a.3.3,0,0,1,.15,0c-.05,0-.17,0-.15.1.21-.05,0,.13.17,0,.06,0,0,.08,0,.15a.6.6,0,0,1,.5.17l-.15,0c0,.2-.11.3-.11.49,0,0-.11.11-.19.07s.1.05.11.11c-.18.11,0-.13-.24-.05.12,0,.16.15.23.23s0-.19,0-.27a.73.73,0,0,1,.62.34c.06.15-.16.06-.12.09-.05.29.43.25.25.49-.16.09-.31,0-.43,0s.1-.19.1-.28l-.08.11s-.09-.13,0-.17c-.14.08,0,.49-.16.71.06,0,.11.11.18.07l0-.07c.13-.06.18.14.24,0,.09.09.23.2.16.33l-.18,0s.11-.09,0-.13-.24.21,0,.27l.13-.1c.09.1.28.22.23.33.18,0,0,0,.19-.11-.26.08,0-.3-.27-.18.25-.09.11-.15.31-.26-.06,0-.11,0-.08-.06l0,0h0s0,0,0,0l-.09,0c-.14,0-.13-.21-.2-.26s.06,0,.13,0L43.07,5c.13,0,.22-.16.3,0V4.84c.07-.08.1-.18,0-.24s-.14-.15,0-.1l-.08-.19h0c0-.2-.22-.4,0-.62a.27.27,0,0,1,0-.24l.11,0c0-.08.12-.25,0-.29.15,0,.17-.25.15-.43a2.62,2.62,0,0,1,0-.54l-.15.06a1.15,1.15,0,0,0-.1-.48l-.13.11c-.08-.06,0-.29.06-.53a.53.53,0,0,0-.19,0c.07-.05.12,0,.14,0,0-.15-.26-.09-.47,0s-.4.14-.5,0c-.09.05-.13,0-.17,0h0L42,1.22a.22.22,0,0,0,.06.07.87.87,0,0,0-.23.05V1.2h0c-.08-.05-.08.07,0,.18a.31.31,0,0,0-.11.09c-.07-.23-.19.07-.24-.17,0,.12-.26.09-.29.34,0,0,0,0,0,0s-.12-.06-.17,0l0-.18-.13.24a.24.24,0,0,1,0-.31c-.18.22-.15.08-.31.29V1.53c-.06,0-.15.16-.18.06s-.63,0-1-.24c.06.35-.15-.15-.16.12,0-.08-.07-.13,0-.2-.16.08-.24-.13-.36.09,0-.08,0-.12,0-.16s-.08.07-.11,0,0-.07.08-.11c-.3,0-.28.27-.25.51-.14-.12-.21-.1-.23,0-.07-.07-.17-.15,0-.18-.08,0-.59-.11-.47.07-.06,0-.13,0-.13,0a1.65,1.65,0,0,0-.38,0l.08,0c0,.08.06.11,0,.12s-.06.05,0,.16l0,0c-.16.19.08.18-.11.38l.15.06c.3.18-.18.17-.07.42l.08,0c.11.1-.41.18-.45.33s0-.05-.06-.09c-.18.32.18.09.23.26s-.26,0-.28.06.33.29.14.43c.07,0,.15-.06.21,0s-.29.28,0,.38l-.06,0c.06.08.1.26.24.31-.49.07.24.5-.22.5l0,.25H37c0,.16.08.22.19.27s-.07,0-.1,0c-.09.23-.07.26.15.45l-.14,0c.08,0-.23.34-.06.57,0,0,0,0-.07,0,.18.26-.4.61.13.71l.13.17c0-.22.23,0,.32-.06,0,.09-.16.22-.19.12l0,0c-.28,0-.1.27-.29.27a3.28,3.28,0,0,1-.06.63,3.76,3.76,0,0,0-.09.71l.22-.09,0,.19c0,.07-.16.12-.16,0-.12.12.11.23.15.21-.08.32-.25,0-.25.06v.13l0,0c.09.07.18,0,.17.21s-.13.13-.14.18,0,0,0,.08l0,.29.17-.24c.09.05,0,.24.19,0a.87.87,0,0,0-.16.43c.25,0,.68,0,.71,0a.78.78,0,0,1,.53-.11s0-.23.12-.2c-.14.39.29.17.34.45-.08-.19.33,0,.2-.31.1,0,0,.15.08.24.23-.15.51.1.79,0,0,0,0-.13,0-.21l.15.26c.06,0,.05-.3.15-.12,0,0,0-.11,0-.13.55.26,1.14-.2,1.7.27-.07-.1,0-.11,0-.11s0-.13,0-.2l.24.19c0-.19.25,0,.28-.2l-.08,0c.1-.22-.14-.49-.12-.78-.11.25-.3-.37-.48,0,0-.06,0-.09,0-.16,0,.12-.1.15-.21.1l0,0c-.3,0-.42-.09-.75-.17l0,.14c-.07,0-.08-.07-.12-.1-.08.21.2,0,.13.24-.09-.28-.5,0-.56-.32-.11,0,0,.16-.08.16l0-.09,0,.11c-.07,0-.1-.13-.11-.2s0,0,.07,0-.26,0-.29,0l.1.06c-.29.08-.66,0-.94.14l0,.07c-.2.12-.21-.07-.38,0h0c0,.06-.08.1-.12.09s0-.15,0-.24c-.15.13-.07.11-.29.35l0-.11c-.09.1-.12.15-.24.18.14-.09.07-.17.22-.29s-.18,0-.24,0a.87.87,0,0,1,.13-.17c-.18.13-.2.2-.21.25s.06,0,0,0a.56.56,0,0,1-.2.16s0,0,0-.07.39-.43.39-.51h0c.07-.08-.11,0,0-.12-.19,0,0-.06-.23,0L38,9c-.06,0-.34,0-.2-.2a.57.57,0,0,1,.14,0c.07,0,0-.05,0-.1.23,0,.05.13.23.13s-.17,0,.08-.09c-.32,0,0-.06-.21-.15h.14s-.08-.06-.08-.1l.18.07c-.15-.11.14-.21,0-.32,0,.22-.17.05-.27.14-.19-.27.37-.15.3-.46,0,0-.08.15-.15.09a.33.33,0,0,1,.16-.17c0-.21-.15,0-.23-.06.17-.07-.07-.1-.13-.19h.15c.09-.23-.3-.06-.19-.27l.2.09-.05-.11.16,0c-.12-.12-.09-.15-.05-.27-.1,0-.25,0-.26-.12s.14,0,.12-.1c.09,0,.2.06.07.13a.65.65,0,0,1,.13,0c.1-.08,0-.19,0-.25a.07.07,0,0,1,0,.06l-.2-.21a.12.12,0,0,1,.14,0s-.08-.07-.09-.14.23,0,.29.11l-.13-.21s.14-.1.18-.07-.23-.28-.14-.43c0,0,0,0-.06,0s.17-.26,0-.43l.21-.09c-.05-.13-.26.12-.34-.09s.18-.06.24-.11c-.11-.08-.32-.21-.15-.35C38.35,4.85,38.32,4.88,38.33,4.93Zm-.09-1.6s.12.1,0,.12S38.19,3.39,38.24,3.33Zm.42-1.07c0,.05,0,0-.07,0S38.63,2.22,38.66,2.26Zm4.63,2.48h0C43.34,4.67,43.32,4.69,43.29,4.74Zm-.06.14a0,0,0,0,0,.06,0s0,0,0-.08S43.2,4.84,43.23,4.88ZM37,9.74l0-.07C37.1,9.74,37.06,9.74,37,9.74Z"/><path class="cls-1" d="M38.52,2.46l0-.08A.16.16,0,0,0,38.52,2.46Z"/><polygon class="cls-1" points="38.41 5.92 38.41 5.92 38.43 5.93 38.41 5.92"/><path class="cls-1" d="M42,2.89l.07-.06A.11.11,0,0,0,42,2.89Z"/><path class="cls-1" d="M43.47,5.64l0-.09s0,.06,0,.08S43.47,5.61,43.47,5.64Z"/><path class="cls-1" d="M42.59,6.44s0,0,0,0h.07C42.67,6.42,42.62,6.38,42.59,6.44Z"/><path class="cls-1" d="M43,5.73c-.12,0-.08.06-.06.13h0C43.11,5.86,43.05,5.8,43,5.73Z"/><path class="cls-1" d="M43,5.87v.06C43,5.94,43,5.91,43,5.87Z"/><path class="cls-1" d="M43.31,5.07s.15,0,.1,0C43.57,5.14,43.23,4.9,43.31,5.07Z"/><polygon class="cls-1" points="42.6 5.78 42.75 5.76 42.63 5.72 42.6 5.78"/><path class="cls-1" d="M42.71,5.27l0,.11s0,0,0,0S42.76,5.27,42.71,5.27Z"/><path class="cls-1" d="M42.72,5.4s0,.07,0,.09A.47.47,0,0,0,42.72,5.4Z"/><polygon class="cls-1" points="42.56 5.64 42.59 5.61 42.6 5.54 42.56 5.64"/><path class="cls-1" d="M42.74,4.17l0-.11c-.05,0-.08,0-.06.06S42.69,4.19,42.74,4.17Z"/><path class="cls-1" d="M42.33,4.51a.43.43,0,0,1,.12,0h-.19Z"/><path class="cls-1" d="M42.29,4.18s-.14-.16-.13,0S42.25,4.29,42.29,4.18Z"/><polygon class="cls-1" points="42.52 2.54 42.53 2.56 42.83 2.41 42.52 2.54"/><path class="cls-1" d="M41.52,2.76c0,.07,0-.19.07-.1,0-.07,0-.07,0-.14S41.54,2.56,41.52,2.76Z"/><path class="cls-1" d="M41.6,2.52l0,0Z"/><polygon class="cls-1" points="42.37 10.54 42.45 10.6 42.4 10.5 42.37 10.54"/><path class="cls-1" d="M42.53,10.32l0,.19.05-.18S42.55,10.36,42.53,10.32Z"/><path class="cls-1" d="M38.63,3.1h-.05s0,0-.06.06Z"/><polygon class="cls-1" points="38.48 4.25 38.49 4.23 38.31 4.27 38.48 4.25"/><path class="cls-1" d="M38.7,5.22s0-.08,0-.12S38.49,5.24,38.7,5.22Z"/><rect class="cls-1" x="11.92" y="1.96" width="19.83" height="7.86"/><path class="cls-1" d="M33.18,9.75c0,.08.23.05.27.06S33.12,9.75,33.18,9.75Z"/><polygon class="cls-1" points="32.62 8.4 32.72 8.42 32.48 8.22 32.62 8.4"/><path class="cls-1" d="M32.63,7.14c-.42.12.07.46-.08.68l-.1,0,.34.1C32.74,7.69,32.51,7.33,32.63,7.14Z"/><path class="cls-1" d="M33.54,6.47c-.17,0-.14-.15,0,.15l0,0A.17.17,0,0,1,33.54,6.47Z"/><path class="cls-1" d="M33.53,6.59c0,.14.13-.08,0,0Z"/><path class="cls-1" d="M33.43,6l.15.18c.1,0,.12-.2.19-.14C33.69,5.84,33.59,5.88,33.43,6Z"/><path class="cls-1" d="M33.13,5.81l.06.09S33.24,5.87,33.13,5.81Z"/><path class="cls-1" d="M33.32,6.1l-.13-.2c-.07,0-.21,0,.05.09C33.11,6,33.23,6,33.32,6.1Z"/><path class="cls-1" d="M33.25,6.21c-.09.09-.14.22-.29,0C33,6.59,33.31,6.54,33.25,6.21Z"/><path class="cls-1" d="M32.19,7.07l-.12.13.14.12C32.14,7.26,32.33,7.07,32.19,7.07Z"/><path class="cls-1" d="M33.65,4.89A2.7,2.7,0,0,0,33.3,5l.1.13C33.46,5,33.52,4.9,33.65,4.89Z"/><path class="cls-1" d="M33.3,5l-.16-.19C33.13,4.94,33.2,5,33.3,5Z"/><polygon class="cls-1" points="32.66 5.78 32.98 6.1 32.66 5.72 32.66 5.78"/><path class="cls-1" d="M33.66,4.09c.07.06.14.15.21.17-.11-.06-.21-.23-.31-.32Z"/><path class="cls-1" d="M33.63,3.19c.17.12.29-.28.39-.15a1,1,0,0,0-.31-.57A.92.92,0,0,1,33.63,3.19Z"/><path class="cls-1" d="M33.52,2.25a1.18,1.18,0,0,0,.19.22A.45.45,0,0,0,33.52,2.25Z"/><path class="cls-1" d="M33.19,4.44a.45.45,0,0,0,.25-.15l-.25.07Z"/><path class="cls-1" d="M33.18,4.37h0l0-.18Z"/><path class="cls-1" d="M33.19,4.46v0S33.16,4.45,33.19,4.46Z"/><path class="cls-1" d="M32.89,5.28c-.14-.12-.29-.35-.51-.13C32.55,5.24,32.68,5.1,32.89,5.28Z"/><path class="cls-1" d="M32.87,4.55l0,.21c.06,0,.16,0,.23,0Z"/><polygon class="cls-1" points="32.79 4.45 32.87 4.55 32.9 4.48 32.79 4.45"/><path class="cls-1" d="M33.28,3a.61.61,0,0,1-.13-.43,2.61,2.61,0,0,0-.08.6C33.15,3.12,33.29,3.16,33.28,3Z"/><path class="cls-1" d="M33.21,3.69v0S33.17,3.7,33.21,3.69Z"/><path class="cls-1" d="M33.15.78l0,.07,0,0Z"/><path class="cls-1" d="M33,3.16a.23.23,0,0,0,.1.28,1.07,1.07,0,0,1,0-.32S33,3.12,33,3.16Z"/><path class="cls-1" d="M33.4,1.79a3.45,3.45,0,0,0-.14.34C33.34,2,33.47,1.77,33.4,1.79Z"/><path class="cls-1" d="M33.27,3.6v0C33.33,3.57,33.31,3.58,33.27,3.6Z"/><path class="cls-1" d="M33.27,3.6a.77.77,0,0,0-.15-.16.53.53,0,0,0,.08.22Z"/><path class="cls-1" d="M31.36,2.17a1.21,1.21,0,0,1,.47-.3c0,.06,0,.18-.1.36.18,0,.94-.69,1.37-1.38-.09.07-.17.14-.28,0l-.13,0a.07.07,0,0,0,0,.06c-.11.31-.26.74-.44.72a.26.26,0,0,1,0-.28c0-.05.06-.13,0-.2-.15.29-.81.42-1.07.85l.36-.15C31.53,2,31.35,2.11,31.36,2.17Z"/><path class="cls-1" d="M33.08,1.48l0,.11a3.67,3.67,0,0,1,.31-.73c-.11-.14-.2-.1-.27,0l0,.69Z"/><path class="cls-1" d="M33.11,2.19c-.25,0-.36-.17-.64.17,0,.31.21.11.32.26-.06-.55.15.11.29-.41a1.16,1.16,0,0,1,.07.31c0-.13.07-.26.11-.39v0h0c0,.05-.05.07,0,0h0l-.1,0c0-.21.07-.07.1,0l0,0h0l-.14-.56A1.69,1.69,0,0,0,33.11,2.19Z"/><path class="cls-1" d="M31.84,4.94h.06S31.84,4.89,31.84,4.94Z"/><path class="cls-1" d="M32,4.78s.14,0,.11.15-.12,0-.2,0,.18.2.3,0l0,0c.08-.16.4-.36.43-.33A2,2,0,0,0,32,4.78Z"/><path class="cls-1" d="M32.49,3.74l-.13-.4-.22.26.13,0C32.22,3.8,32.38,3.72,32.49,3.74Z"/><path class="cls-1" d="M33.27.59l.27-.17-.28,0-.18.1.12,0Z"/><polygon class="cls-1" points="32.69 0.47 32.92 0.23 32.6 0.37 32.69 0.47"/><path class="cls-1" d="M13.32,6.67l.07.09A.35.35,0,0,0,13.32,6.67Z"/><path class="cls-1" d="M13.34,6l-.12,0C13.28,6,13.33,6,13.34,6Z"/><path class="cls-1" d="M20.88.49c-.14-.22-.3-.55-.28-.29l0,.25A.22.22,0,0,1,20.88.49Z"/><path class="cls-1" d="M13.68,2l.06.08,0-.24Z"/><path class="cls-1" d="M13.87,3.07a1.1,1.1,0,0,0-.15-.16Z"/><path class="cls-1" d="M13.77,8.15l.2-.26S13.86,8,13.77,8.15Z"/><path class="cls-1" d="M27,.56a.56.56,0,0,0-.3-.15C26.87.55,27,.77,27,.56Z"/><path class="cls-1" d="M10.61,6.39a.17.17,0,0,0,.16.08A.17.17,0,0,0,10.61,6.39Z"/><path class="cls-1" d="M26.37.41l.06.06a.42.42,0,0,1,.29-.06C26.61.3,26.49.23,26.37.41Z"/><path class="cls-1" d="M26.52,8.36l0,0S26.54,8.35,26.52,8.36Z"/><path class="cls-1" d="M30.57,10.93a.39.39,0,0,1-.16,0S30.49,11,30.57,10.93Z"/><path class="cls-1" d="M29.84.35c.16,0,0,0,0,0Z"/><path class="cls-1" d="M30.31,1.36a.2.2,0,0,0-.08.13A.32.32,0,0,1,30.31,1.36Z"/><path class="cls-1" d="M25.46,2h0C25.48,2,25.48,2,25.46,2Z"/><path class="cls-1" d="M30.06.47,29.87.39A.74.74,0,0,0,30.06.47Z"/><path class="cls-1" d="M30,.35l.14,0S30.19.3,30,.35Z"/><path class="cls-1" d="M29.62.37a1,1,0,0,1,.25,0s0,0,0,0Z"/><path class="cls-1" d="M19.07,9l0,0C19.18,9,19.14,9,19.07,9Z"/><polygon class="cls-1" points="18.52 3.14 18.52 3.13 18.51 3.12 18.52 3.14"/><path class="cls-1" d="M18.19,3.33c.14-.32.22-.28.32-.21l-.11-.74Z"/><path class="cls-1" d="M13.39,7.83a2,2,0,0,1,.23-.14,1.15,1.15,0,0,0,.57-.15c-.4.16-.42.12-.44.08s0,0-.08-.06a.87.87,0,0,0-.36-.1l.17-.15s0,.05,0,.09c.38-.29-.58-.22-.46-.6.06-.13.18-.22.27-.13l-.2-.3c0-.08.16-.06.14,0L13.2,6h0a3.46,3.46,0,0,1-.4-.28c.11-.12.08.06.18,0l-.19-.25a.27.27,0,0,1,.38.27c.8-.23-.2-.2.26-.7l.1.23c.46-.15.29-.33.58-.6-.15.06-.72.53-.91.26.06-.07.08-.17-.08-.32.29,0,.22-.14.2-.32h.38c-.11-.13-.3-.07-.47-.15,0-.09.33,0,.57,0,.06-.07-.46,0-.54-.2.15-.06,0-.16-.23-.49.13,0,.23.18.34.22q-.15-.13-.3-.3a.68.68,0,0,1,.14.11c-.11-.17-.37-.3-.48-.53s-.08-.17,0-.13c.27.16.52.37.4.1a3.13,3.13,0,0,1,.28.38,3.84,3.84,0,0,1,0-.64,2.26,2.26,0,0,1,.28.25.75.75,0,0,1,0-.9,2.37,2.37,0,0,0-.27-.31l.38-.2c.06.06,0,.19,0,.35a.41.41,0,0,0,.05-.09c.16.14.1.35.06.57l-.16-.24a1.39,1.39,0,0,0,0,.7.12.12,0,0,1,.05-.1.37.37,0,0,0,0,.16s0-.05,0-.14a3.31,3.31,0,0,1,.12.42V3c.12.09.13.18.33.26.34-.42.64-1,1.18-1.21-.13.3,0,.5,0,.86-.14-.38-.42.17-.7.09.15,0,.12.21.08.27l.5-.35c0,.3.11.23.24.35-.1-.59.37-.39.58-.57,0,.19,0,.4-.29.35.28.44.36-.69.63-.32-.06,0-.1,0-.12.08.14-.18.49,0,.41.14h-.06c.4.07,1.23,0,1.29-.5,0,.07-.06.61-.08.71l.72-1.69c-.06.43.18,1.46-.15,1.7a.3.3,0,0,0,.41,0c-.06-.06-.16-.62-.07-.66.25.48.17.26.47.66-.09-.09,0-.76.17-.74a5.64,5.64,0,0,1,0,.73l.38-.66c-.09.12,0,.56.07.75,0-.13.34,0,.44,0L20.2,3c.43.1.43-.93.86-.89,0,.13-.13.84.09.92.1-.34.45-1.63.83-1.89l.08.2.29-.23a12.91,12.91,0,0,1-1,2c.17.15.05.22.29.21.09.18-.13.27-.2.28l.57.12c0-.4.43-.4.41-.73l-.62.41c0-.39.36-1.12.76-1.05.11.16-.07.7-.06.84.05-.14.38-.26.42-.17l-.17.21c.22.15.36-.52.63-.14.1,0,.28.51.3.27a6,6,0,0,1-.08-2.18,3.31,3.31,0,0,1,.59.65c.16.35-.23.84-.1,1.15a.65.65,0,0,1,.13-.29c.1.1,0,.34.17.29,0-.4.43,0,.1-.34.21-.11.22.08.47.07a1.27,1.27,0,0,1,.43-1,.63.63,0,0,0,.05.29c.43,0,.66.22,1.06.23,0,.09.22.21.14.38.06-.07.11-.2.24-.21.23.34-.28,0-.1.47,0-.24.32-.32.49-.47-.05-.36-.4-.07-.57.08a1.48,1.48,0,0,1,.72-1.25c.33-.12.14.32.2.25.62.09.53-.87,1-.51.21.32,0,.63.06.86-.27.12-.42-.2-.6-.19l.22.15c-.08.11-.26.19-.36.09.17.29,1.05.06,1.52.32.08-.1.24-.21.18-.34l-.16,0c-.16-.25.34-.35.13-.47.25-.18.65-.46,1-.32l-.08.36c0-.1-.15-.21-.29-.1.23-.16.32.49.71,0a2,2,0,0,0-.14-.25c.34-.19,1-.57,1.32-.45.07-.36-.11,0-.13-.38-.08.52-1.07,0-.94.52-.07-.48-.4-.2-.7-.62,0,.12.09.23-.25.17l-.1.11h0s0,0,0,0a.27.27,0,0,1,.14.18c-.21.27-.74.26-.82.41-.13-.06.05-.14,0-.27L29.21,1c0-.26-.34-.44,0-.59H28.9a.4.4,0,0,0-.51-.1c-.12-.06-.32.29-.21.09l-.42.16V.51c-.41,0-.85.43-1.33,0a.65.65,0,0,1-.51.07L25.87.31c-.18.08-.54-.23-.61,0-.2-.62-.87-.13-1.19-.24V.37a1.57,1.57,0,0,0-.7.19l0,.27c-.23.21-.6-.19-1-.16,0-.11.11-.08.18,0-.44-.59-.92.44-1.32,0a.14.14,0,0,1-.24,0s0,0,0,0h0a1.85,1.85,0,0,0-.14-.14A.35.35,0,0,0,21,.63a.83.83,0,0,0-.31.11L20.64.45h0c-.11-.1-.09.14,0,.35a.61.61,0,0,0-.15.17c-.09-.46-.3.15-.42-.33-.08.23-.58.18-.64.68,0-.07,0-.1,0-.11-.13-.05-.26-.11-.37,0L19,.89l-.28.49c-.17-.22-.24-.35-.07-.63-.4.43-.33.16-.67.59l0-.24c-.13,0-.32.32-.4.13-.27-.44-1.35-.06-2.06-.47.14.68-.32-.31-.35.22,0-.16-.14-.25,0-.39-.36.16-.54-.26-.78.19,0-.16.07-.24,0-.34s-.12.15-.15,0,.05-.14.1-.21a.62.62,0,0,0-.44.33,1.62,1.62,0,0,0-.06.67c-.27-.22-.43-.19-.5.11-.13-.15-.34-.31,0-.36-.16,0-1.24-.23-1,.15a.2.2,0,0,0-.28,0,4.6,4.6,0,0,0-.82,0l.17.06c.1.16.11.22.06.24s-.11.12-.08.34l0-.05c-.33.44.16.37-.22.83l.28.11c.31.2.22.27.08.38s-.32.31-.2.53l.16-.1c.1.13-.1.21-.35.34a1.6,1.6,0,0,0-.55.42s-.09,0-.13-.16c-.35.52.37.08.46.43-.2,0-.51-.08-.54.13s.64.63.26.92c.15-.06.31-.13.42,0s-.58.62-.09.82a.24.24,0,0,1-.12,0c.12.18.2.57.47.68-.49.1-.37.28-.24.68s.26.59-.19.73l0,.77-.09,0c-.06.55.15.6.37.59-.06.15-.15.14-.19.17a2.73,2.73,0,0,0-.1.76,3.3,3.3,0,0,0,1.05-.4l-.17.3c.15-.09.31,0,.6.12a1.62,1.62,0,0,0,1.11,0,.29.29,0,0,1-.12.13c1-.34,1.58.81,1.83-.25l.36-.26c-.47-.08.07-.46-.12-.64.18-.06.48.32.25.38l0-.06c-.09.56.58.2.57.58.93,0,1.83.28,2.7.3l-.1-.43.3,0c.08.1.11.34-.11.32.12.25.36-.2.37-.29.42.17-.17.5,0,.51l.18,0,0-.05c.14-.18.16-.37.42-.35s.08.27.15.29,0,0,.09,0l.39,0-.16-.34c.17-.17.36,0,.19-.37.26.59,1.42.21,1.58.4a.79.79,0,0,1,.76-.22c-.07-.07-.12-.45.13-.4-.09.78.46.34.66.91-.18-.38.72-.1.43-.63.21.06,0,.29.17.48.5-.31,1.1.2,1.71.09,0-.1-.09-.26,0-.41l.32.52c.12-.05.11-.6.34-.24,0-.09-.08-.22,0-.25,1.2.5,2.45-.42,3.68.53-.17-.2-.06-.22.07-.23-.09,0,0-.25,0-.39l.51.39c.1-.39.55,0,.6-.4l-.16.07c.22-.44-.3-1-.27-1.54-.24.5-.63-.74-1,0-.09-.11.08-.18,0-.31-.1.24-.22.29-.45.18l0-.06c-.63.06-.9-.18-1.61-.34l.05.28c-.15,0-.18-.12-.25-.19-.18.42.43,0,.27.49-.2-.57-1.08,0-1.21-.65-.24,0,.07.32-.17.31l-.06-.17-.06.22c-.15,0-.23-.25-.24-.4,0,0,.11,0,.15-.05-.2-.21-.56.07-.63,0l.23.11c-.64.16-1.42-.07-2,.29l.05.13c-.47.24-.38-.15-.9,0l0,0a.44.44,0,0,1-.38.18c.13-.16-.25-.3-.08-.47-.51.26-.25.2-.59.69L22.13,9c-.12.2-.13.31-.39.36.22-.19-.16-.33.08-.58-.55-.48-.81.48-1.06-.21-.25.6.47.33.33.46.12.2-.2.45-.37.39s-.3-.77-.73-.76c0,0,0,0,.09,0-.17-.15-.32.21-.52,0-.12.36-.26,0-.3.44l.4-.1c-.22.12-.44.66-.81.4A.77.77,0,0,1,19.07,9c-.11-.14-.21.09-.33,0,0-.47.49-.1.73-.46-.11-.19-.46.34-.33-.16-.18.64-.43-.08-.73.41l0-.28c-.05,0-.14.17-.23.17l.16-.37c-.24.31-.46-.27-.69-.1.48,0,.11.34.31.54-.59.38-.34-.73-1-.59.09,0,.33.16.19.29a.84.84,0,0,1-.37-.31c-.44.06.07.29-.12.46-.15-.34-.21.14-.41.25V8.55c-.5-.18-.13.59-.58.38l.19-.4-.23.1,0-.32c-.25.24-.33.18-.58.09.06.2,0,.51-.25.52-.16-.17.08-.27-.23-.23.07-.18.14-.4.28-.14,0-.09.07-.18.09-.27-.17-.19-.41,0-.53,0a.21.21,0,0,1,.13.07,4.18,4.18,0,0,0-.43.39.41.41,0,0,1,0-.27s-.07.16-.14.18A4.71,4.71,0,0,1,14.17,8a.87.87,0,0,1-.15.26,1.36,1.36,0,0,1,.06-.36c0-.14-.33.45-.35.27a.46.46,0,0,1-.12.12s0-.16,0-.17,0,0-.14,0c.14-.14.27-.26.41-.38-.09,0-.52.49-.68.43s.36-.27.47-.38c-.21.11-.63.12-.29-.11C13.42,7.76,13.36,7.8,13.39,7.83Zm-.18-2.91c.06.07.24.2.08.25C13,5.09,13.12,5,13.21,4.92Zm1-2.36c0,.09-.09,0-.16-.06S14.12,2.49,14.18,2.56ZM28.7.58v0C28.54.49,28.59.53,28.7.58Zm.3.13a.13.13,0,0,0,0-.12c0,.07-.09.08-.17.06S28.91.77,29,.71ZM20,11,20,10.88C20.12,10.8,20.08,10.87,20,11Z"/><path class="cls-1" d="M13.85,3l-.06-.16A.22.22,0,0,0,13.85,3Z"/><polygon class="cls-1" points="13.73 8.19 13.73 8.2 13.77 8.15 13.73 8.19"/><path class="cls-1" d="M24.23,3.11A.39.39,0,0,1,24.11,3,.13.13,0,0,0,24.23,3.11Z"/><path class="cls-1" d="M31.51.23,31.13.3a.31.31,0,0,1,.27.09C31.42.33,31.4.23,31.51.23Z"/><path class="cls-1" d="M31.73,2.57s0,.06,0,.06l.14-.1C31.89,2.4,31.78,2.4,31.73,2.57Z"/><path class="cls-1" d="M31.28,1.17c-.12.24.08.16.29.11,0,0,0,0,0,0C31.83,1,31.54,1.06,31.28,1.17Z"/><path class="cls-1" d="M31.62,1.27a.48.48,0,0,1,.17,0C31.92,1.13,31.74,1.24,31.62,1.27Z"/><path class="cls-1" d="M29.39.55c.07.06,0-.31.08-.21C29.54,0,29,.71,29.39.55Z"/><polygon class="cls-1" points="30.93 1.96 31.06 1.66 30.84 1.9 30.93 1.96"/><path class="cls-1" d="M29.87,1.74l.22.08a.15.15,0,0,1,.09-.1C30,1.71,29.88,1.65,29.87,1.74Z"/><path class="cls-1" d="M30.18,1.72a.28.28,0,0,0,.22-.05A.52.52,0,0,0,30.18,1.72Z"/><polygon class="cls-1" points="30.58 2.04 30.55 1.98 30.4 1.96 30.58 2.04"/><path class="cls-1" d="M27.47,1.68l-.25.09c0,.1.05.16.14.12S27.5,1.78,27.47,1.68Z"/><path class="cls-1" d="M28.19,2.49a.49.49,0,0,1-.1-.23v.37Z"/><path class="cls-1" d="M27.49,2.57c0,.11-.35.3,0,.27C27.47,2.74,27.71,2.66,27.49,2.57Z"/><polygon class="cls-1" points="23.86 2.11 23.92 2.11 23.91 1.51 23.86 2.11"/><path class="cls-1" d="M20.66,3.55c.29.14.07-.37.33-.19.07-.15-.21-.15-.14-.27C20.68,3.24,20.58,3.15,20.66,3.55Z"/><path class="cls-1" d="M20.85,3.09A.76.76,0,0,1,20.94,3,.19.19,0,0,0,20.85,3.09Z"/><polygon class="cls-1" points="31.25 11.26 31.43 11.38 31.31 11.18 31.25 11.26"/><path class="cls-1" d="M31.6,10.81l0,.38.11-.34S31.63,10.9,31.6,10.81Z"/><path class="cls-1" d="M14,4.41h-.09c-.1,0-.11.07-.12.15Z"/><polygon class="cls-1" points="13.69 6.9 13.7 6.86 13.36 6.94 13.69 6.9"/><path class="cls-1" d="M14.13,7.58l0,0C14.15,7.56,13.7,7.86,14.13,7.58Z"/></g></g></svg>