<?xml version="1.0" encoding="utf-8"?>
<!-- Generator: Adobe Illustrator 22.1.0, SVG Export Plug-In . SVG Version: 6.00 Build 0)  -->
<svg version="1.1" xmlns="http://www.w3.org/2000/svg" xmlns:xlink="http://www.w3.org/1999/xlink" x="0px" y="0px"
	 viewBox="0 0 16 50" style="enable-background:new 0 0 16 50;" xml:space="preserve">
<style type="text/css">
	.st0{fill:#FFFFFF;}
</style>
<g id="Calque_2">
</g>
<g id="Calque_1">
	<g>
		<line class="st0" x1="8.3" y1="47.3" x2="8.3" y2="2.3"/>
		<g>
			<g>
				<g>
					<g>
						<path class="st0" d="M4,2.4c0.1-0.1-0.7,0-0.8-0.1C3.4,2.4,4.2,2.3,4,2.4z"/>
						<polygon class="st0" points="5.7,3.4 5.4,3.4 6.1,3.6 						"/>
						<path class="st0" d="M5.7,4.5c1.2-0.1-0.2-0.4,0.2-0.6l0.3,0l-1-0.1C5.4,4,6,4.3,5.7,4.5z"/>
						<path class="st0" d="M3,5c0.5,0,0.4,0.1,0.2-0.1c-0.1,0-0.1,0-0.1,0C3,4.9,3,5,3,5z"/>
						<path class="st0" d="M3,4.9C3,4.8,2.6,5,3,4.9L3,4.9z"/>
						<path class="st0" d="M3.3,5.4L2.9,5.3c-0.3,0-0.4,0.2-0.6,0.1C2.5,5.5,2.8,5.5,3.3,5.4z"/>
						<path class="st0" d="M4.2,5.5L4,5.5C3.9,5.5,3.9,5.5,4.2,5.5z"/>
						<path class="st0" d="M3.6,5.3L4,5.5c0.2,0,0.6,0-0.1-0.1C4.2,5.4,3.9,5.4,3.6,5.3z"/>
						<path class="st0" d="M3.8,5.2c0.3-0.1,0.4-0.2,0.9,0C4.5,4.9,3.6,5,3.8,5.2z"/>
						<path class="st0" d="M7,4.5l0.4-0.1L6.9,4.3C7.1,4.4,6.6,4.5,7,4.5z"/>
						<path class="st0" d="M2.6,6.3c0.3,0,0.7,0,1-0.1L3.4,6.1C3.2,6.2,3,6.3,2.6,6.3z"/>
						<path class="st0" d="M3.7,6.2l0.5,0.2C4.2,6.3,4,6.2,3.7,6.2z"/>
						<polygon class="st0" points="5.6,5.6 4.6,5.3 5.6,5.6 						"/>
						<polygon class="st0" points="2.6,6.9 2,6.8 2.9,7 						"/>
						<path class="st0" d="M2.7,7.3c-0.5-0.1-0.9,0.1-1.2,0c0.1,0.1,0.5,0.2,0.9,0.3C2.2,7.5,2.3,7.4,2.7,7.3z"/>
						<path class="st0" d="M3,7.7c-0.1,0-0.3-0.1-0.6-0.1C2.6,7.7,2.8,7.7,3,7.7z"/>
						<path class="st0" d="M4,6.7c-0.2,0-0.6,0-0.8,0.1L4,6.7C4,6.7,4,6.7,4,6.7z"/>
						<path class="st0" d="M4,6.7L4,6.7C4,6.8,4,6.8,4,6.9C4,6.8,4,6.8,4,6.7z"/>
						<path class="st0" d="M4,6.7C4,6.7,4,6.7,4,6.7C4.1,6.7,4.1,6.7,4,6.7z"/>
						<path class="st0" d="M4.9,6c0.4,0.1,0.9,0.3,1.5,0.1C5.9,6,5.5,6.1,4.9,6z"/>
						<path class="st0" d="M5,6.6l0.2-0.2c-0.2,0-0.5,0-0.7,0L5,6.6z"/>
						<polygon class="st0" points="5.2,6.7 5,6.6 4.9,6.6 						"/>
						<path class="st0" d="M3.7,7.5c0.3,0.1,0.4,0.2,0.4,0.2c0.1-0.1,0.2-0.2,0.2-0.3C4.1,7.4,3.7,7.4,3.7,7.5z"/>
						<path class="st0" d="M3.9,7.1C4,7.1,4,7.1,3.9,7.1C4,7.1,4.1,7.1,3.9,7.1z"/>
						<path class="st0" d="M4.1,8.6c0,0,0.1,0,0.1,0C4.2,8.6,4.2,8.6,4.1,8.6L4.1,8.6z"/>
						<path class="st0" d="M4.5,7.4c0.1-0.1,0-0.1-0.3-0.2c0.1,0.1,0.1,0.1,0.1,0.2C4.5,7.4,4.5,7.4,4.5,7.4z"/>
						<path class="st0" d="M3.4,8c0.2,0,0.3-0.1,0.4-0.1C3.6,7.9,3.2,8,3.4,8z"/>
						<path class="st0" d="M3.8,7.1C3.8,7.1,3.8,7.1,3.8,7.1C3.6,7.2,3.7,7.2,3.8,7.1z"/>
						<path class="st0" d="M3.8,7.1c0.1,0,0.3,0.1,0.5,0.1C4.2,7.2,4.1,7.2,4,7.1C3.9,7.1,3.9,7.1,3.8,7.1z"/>
						<path class="st0" d="M8.9,8.8c-0.7,0-1.3-0.2-0.6-0.4C7.8,8.3,5.5,8.4,4.3,8.6c0.3,0,0.6,0,1,0.2c0.4-0.1,0.9-0.4,1.5-0.2
							c0.4,0.2-0.2,0.2-0.6,0.3C7,8.7,7.4,9.1,8.7,9L8.2,8.8C8.4,8.8,8.7,8.9,8.9,8.8z"/>
						<path class="st0" d="M4.3,8.2L4.3,8.2c-0.2,0-0.5,0.1-1,0.2c0.3,0.1,0.6,0.1,0.8,0.1l0.1-0.3L4.3,8.2z"/>
						<path class="st0" d="M4.3,7.9C5,7.9,5.3,8.1,6.1,8c-0.1-0.2-0.6-0.1-1-0.3C5.4,8.1,4.8,7.6,4.3,7.9c0-0.1-0.1-0.1-0.1-0.2
							C4,7.8,3.9,7.8,3.8,7.9c0,0,0,0,0,0l0,0c0,0,0,0,0,0c0.1,0,0.2,0,0.1,0c0,0,0,0,0,0C4.1,7.9,4.2,7.9,4.3,7.9
							C4.1,8,4.1,7.9,4,7.9c0,0-0.1,0-0.1,0c0,0,0,0,0,0l0.4,0.3C4.4,8.1,4.3,8,4.3,7.9z"/>
						<path class="st0" d="M8,6.3c-0.1,0-0.1,0-0.2,0C7.9,6.3,8,6.3,8,6.3z"/>
						<path class="st0" d="M7.6,6.4c-0.1,0-0.4,0-0.3-0.1c0.2-0.1,0.4,0,0.6,0c-0.2,0-0.5-0.2-0.9,0l0.1,0C6.8,6.4,5.9,6.6,5.8,6.5
							C6.4,6.5,6.9,6.5,7.6,6.4z"/>
						<path class="st0" d="M6.1,7.1l0.4,0.3l0.7-0.1l-0.4,0C6.9,7.1,6.4,7.2,6.1,7.1z"/>
						<polygon class="st0" points="3.8,8.6 3,8.6 4.1,8.7 						"/>
						<polygon class="st0" points="3.9,9 3.2,8.9 3.6,9 						"/>
						<path class="st0" d="M12.4,28.6l0.2,0.1C12.6,28.7,12.5,28.6,12.4,28.6z"/>
						<path class="st0" d="M12.5,28.1l-0.3,0C12.3,28.1,12.5,28.1,12.5,28.1z"/>
						<path class="st0" d="M3.9,17.5c-0.6,0.1-1.6,0.2-0.9,0.2l0.8,0C3.7,17.6,3.8,17.6,3.9,17.5z"/>
						<path class="st0" d="M8.5,23.4c0.1,0,0.2,0,0.2,0c-0.3,0-0.5-0.1-0.7-0.1C8.1,23.3,8.3,23.3,8.5,23.4z"/>
						<path class="st0" d="M11.6,23.5l-0.5,0.2C11.3,23.6,11.4,23.5,11.6,23.5z"/>
						<path class="st0" d="M13.2,31.7l0.8,0.1C14,31.7,13.6,31.8,13.2,31.7z"/>
						<path class="st0" d="M4.1,12.5c-0.3,0.1-0.4,0.2-0.5,0.2C4.1,12.7,4.8,12.6,4.1,12.5z"/>
						<path class="st0" d="M4.4,28.4c0.1,0,0.3,0.1,0.5,0.1C4.7,28.4,4.6,28.4,4.4,28.4z"/>
						<path class="st0" d="M3.7,13.1c0.1,0,0.1,0,0.2-0.1c-0.1-0.1-0.2-0.1-0.2-0.2C3.4,12.9,3.2,13,3.7,13.1z"/>
						<path class="st0" d="M12.6,43C12.6,43.1,12.6,43.1,12.6,43C12.6,43.1,12.6,43.1,12.6,43z"/>
						<path class="st0" d="M5,46.3c0,0,0-0.1-0.1-0.1C4.9,46.2,4.9,46.3,5,46.3z"/>
						<path class="st0" d="M3.5,10.4C3.5,10.3,3.4,10.3,3.5,10.4L3.5,10.4z"/>
						<path class="st0" d="M6.5,10c0.1,0,0.2,0,0.4,0C6.7,10,6.6,10,6.5,10z"/>
						<path class="st0" d="M8.4,13.8C8.4,13.8,8.4,13.8,8.4,13.8C8.5,13.8,8.5,13.8,8.4,13.8z"/>
						<path class="st0" d="M3.9,10.2c-0.1,0-0.2,0.1-0.2,0.1C3.7,10.3,3.8,10.3,3.9,10.2z"/>
						<path class="st0" d="M3.5,10.3C3.5,10.2,3.6,10.2,3.5,10.3C3.5,10.2,3.4,10.2,3.5,10.3z"/>
						<path class="st0" d="M3.6,10.5c0,0,0-0.1,0.1-0.1c-0.1,0-0.1,0-0.1,0C3.5,10.4,3.6,10.4,3.6,10.5z"/>
						<path class="st0" d="M10.6,37C10.6,37,10.5,37,10.6,37C10.8,37.1,10.8,37,10.6,37z"/>
						<path class="st0" d="M11.8,19.4C11.8,19.4,11.8,19.4,11.8,19.4C11.8,19.4,11.8,19.4,11.8,19.4L11.8,19.4z"/>
						<path class="st0" d="M12.4,19.7c-0.9-0.1-0.8-0.2-0.6-0.3l-2.2,0.1L12.4,19.7z"/>
						<path class="st0" d="M12.7,30l0.7-0.2c1.1,0.2,0.7,0.4,1.7,0.2c-2.4,0-0.2-0.7-2.6-0.8l0.5-0.1c0,0,0.1,0,0.1,0.1
							c1.1-0.2-1.7-0.2-1.4-0.5c0.2-0.1,0.5-0.2,0.8-0.1l-0.6-0.2c0-0.1,0.5-0.1,0.4,0L12.1,28l0.1,0c-0.4-0.1-0.9-0.2-1.2-0.2
							c0.3-0.1,0.3,0,0.5,0l-0.6-0.2c0.6-0.1,1.2,0.1,1.1,0.2c2.4-0.2-0.6-0.2,0.8-0.6l0.3,0.2c1.3-0.1,0.9-0.3,1.7-0.5
							c-0.4,0.1-2.1,0.4-2.7,0.2c0.2-0.1,0.3-0.1-0.2-0.3c0.8,0,0.6-0.1,0.6-0.3l1.1,0c-0.3-0.2-0.9-0.1-1.4-0.2
							c0.1-0.2,1-0.2,1.7-0.3c0.2-0.3-1.4,0.2-1.6-0.1c0.4-0.2,0-0.4-0.7-0.7c0.4-0.2,0.7,0,1,0l-0.9-0.1c0,0,0.3,0,0.4,0
							c-0.3-0.1-1.1,0-1.4-0.2c-1.2-0.1,1.8-0.4,0.4-0.6c0.3-0.1,0.7,0,1.1,0c-0.9-0.3-0.7-0.3-1.9-0.5l0.7-0.2
							c-0.8,0.2-1.8,0-2.6-0.2c-0.4,0.1-0.8,0.1-0.9,0.1l-0.6-0.3c0.2,0,0.6,0,1,0c-0.1,0-0.2,0-0.3-0.1c0.4-0.1,1.1-0.1,1.7,0
							c-0.2,0-0.5,0.1-0.7,0.1c0.7,0.1,1.4,0.1,2.1,0.1c-0.1,0-0.2-0.1-0.3-0.1c0.2,0,0.3,0,0.5,0c0.1,0-0.1,0-0.4-0.1l1.2-0.1
							l-0.5,0l0.8-0.4c-1.3-0.3-3.1-0.5-3.6-1c0.9,0.1,1.5,0,2.6,0c-1.1,0.1,0.5,0.3,0.3,0.6c0.1-0.1,0.6-0.1,0.8-0.1L11,22
							c0.9,0,0.7-0.1,1-0.2c-1.7,0.1-1.2-0.3-1.7-0.5c0.6,0,1.2,0,1,0.2c1.3-0.2-2.1-0.3-0.9-0.5c0,0-0.1,0.1,0.2,0.1
							c-0.5-0.1-0.1-0.4,0.4-0.3l0,0c0.2-0.3,0-1-1.5-1c0.2,0,1.8,0,2.1,0.1l-5-0.6c1.3,0.1,4.3-0.1,5,0.1c0.2-0.1,0.4-0.2-0.1-0.3
							c-0.2,0.1-1.8,0.1-2,0.1c1.4-0.2,0.8-0.1,2-0.4c-0.3,0.1-2.3,0-2.2-0.1c0.3,0,2,0,2.2,0l-2-0.3c0.4,0.1,1.7,0,2.2-0.1
							c-0.4,0,0-0.3-0.2-0.4l-0.5,0.1c0.3-0.4-2.8-0.4-2.7-0.7c0.4,0,2.5,0.1,2.7-0.1c-1-0.1-4.8-0.4-5.6-0.7l0.6-0.1l-0.7-0.2
							c1.5,0.1,4.7,0.6,5.9,0.8c0.5-0.1,0.7,0,0.6-0.2c0.5-0.1,0.8,0.1,0.8,0.2l0.3-0.5c-1.2,0-1.2-0.4-2.2-0.3l1.2,0.5
							c-1.2,0-3.3-0.3-3.1-0.6c0.5-0.1,2.1,0.1,2.5,0.1c-0.4,0-0.8-0.3-0.5-0.3L12,16c0.4-0.2-1.6-0.3-0.4-0.5
							c0.1-0.1,1.5-0.2,0.8-0.2c-1.3,0.1-5.5,0.1-6.5,0.1c0.1,0,1.3-0.4,1.9-0.5c1.1-0.1,2.5,0.2,3.4,0.1c-0.3,0-0.7-0.1-0.8-0.1
							c0.3-0.1,1,0,0.8-0.1c-1.2,0,0.1-0.4-1-0.1c-0.3-0.2,0.2-0.2,0.2-0.4c-0.8,0.1-2.6-0.2-3-0.3c0.3,0,0.7,0,0.9,0
							c0.1-0.3,0.6-0.5,0.7-0.9c0.3,0,0.6-0.2,1.2-0.1c-0.2,0-0.6-0.1-0.6-0.2c1-0.2,0.2,0.2,1.4,0.1c-0.7,0-1-0.3-1.4-0.4
							c-1.1,0-0.2,0.3,0.2,0.5c-1.5,0-3-0.2-3.7-0.6c-0.4-0.3,1-0.1,0.7-0.2c0.3-0.5-2.6-0.4-1.5-0.8c0.9-0.2,1.9,0,2.5,0
							c0.4,0.2-0.6,0.3-0.6,0.5l0.4-0.2c0.3,0.1,0.5,0.2,0.3,0.3c0.8-0.1,0.2-0.9,0.9-1.2c-0.3-0.1-0.6-0.2-1-0.1l0.1,0.1
							c-0.8,0.1-1-0.2-1.4-0.1c-0.5-0.2-1.4-0.4-0.9-0.6l1.1,0c-0.3,0-0.6,0.2-0.3,0.2C6,9.9,8,9.6,6.6,9.5L5.8,9.7
							C5.3,9.5,4.1,9.3,4.5,9.1c-1.1,0.1,0.1,0-1.1,0.2c1.5-0.1-0.1,0.5,1.6,0.3c-1.4,0.2-0.6,0.3-1.8,0.5c0.4,0,0.7-0.1,0.5,0.1
							c0.1,0,0.2,0,0.3,0c0,0,0,0,0,0c0,0,0,0,0,0c0.1,0,0.1,0,0,0c0.2,0,0.3-0.1,0.5-0.1c0.8,0.1,0.8,0.4,1.2,0.5
							c-0.2,0.1-0.4,0-0.8,0l0.6,0.1c-0.8,0-1.3,0.3-1.8,0l0,0.2c-0.4,0.1-0.6,0.3-0.3,0.4c-0.2,0.1,0.9,0.3,0.3,0.2l0.5,0.3l-0.2,0
							c-0.1,0.3,1.3,0.7-0.1,1.1c0.2,0.1,0.4,0.2,0.2,0.4l-0.7,0c0.2,0.1-0.7,0.4,0,0.5c-1.8,0.2-0.4,0.7-0.7,1l0.9,0
							c-0.1,0.2,0.2,0.3,0.6,0.6l0.8,0c0.6,0.2-0.6,0.5-0.5,0.8c-0.3,0-0.2-0.1,0-0.1c-1.8,0.4,1.3,0.8,0,1.1c0.3,0.1,0.2,0.1,0,0.2
							c0,0,0,0,0,0c0,0,0,0,0,0c-0.1,0-0.3,0.1-0.4,0.1c0.2,0,0.3-0.1,0.4-0.1c0,0.1,0.1,0.2,0.3,0.2l-0.8,0c0,0,0,0,0,0
							c-0.3,0.1,0.4,0.1,1,0c0.1,0,0.3,0.1,0.5,0.1c-1.4,0.1,0.5,0.2-1,0.3c0.7,0.1,0.5,0.5,2,0.5c-0.2,0-0.3,0-0.3,0
							c-0.2,0.1-0.3,0.2,0.1,0.3l-1.1,0l1.4,0.2c-0.7,0.1-1,0.2-1.9,0.1c1.3,0.3,0.5,0.3,1.7,0.5l-0.7,0c0,0.1,1,0.3,0.4,0.3
							c-1.3,0.2-0.2,1.1-1.4,1.7c2-0.1-0.9,0.3,0.7,0.3c-0.5,0-0.8,0.1-1.2,0c0.5,0.3-0.8,0.4,0.6,0.6c-0.5,0-0.7-0.1-1,0
							c0.1,0,0.4,0.1,0.1,0.1c-0.3,0-0.4,0-0.6-0.1c0.1,0.3,1.6,0.3,3,0.3c-0.7,0.2-0.6,0.2,0.3,0.3c-0.5,0.1-0.9,0.1-1.1,0
							c-0.1,0.1-0.7,0.6,0.4,0.6c-0.3,0-0.1,0.1,0,0.2C6,24.5,5.8,24.5,6,24.8l0.2-0.1c1.3,0.1,0.3,0.2,0.5,0.4l-0.1,0
							c-1,0.4,0.5,0.2-0.6,0.6l0.8,0c1.8,0-1.1,0.4-0.4,0.6l0.5-0.1c0.6,0.1-2.5,0.4-2.7,0.5c-0.2,0-0.3,0-0.4-0.1
							c-1.1,0.3,1.1,0,1.4,0.3c-0.6,0-1.5-0.1-1.6,0.1c-0.5,0.1,1.9,0.5,0.8,0.7c0.5-0.1,0.9-0.1,1.3,0c0.2,0.2-1.7,0.5-0.3,0.7
							c-0.1,0-0.2,0-0.4,0c0.4,0.1,0.6,0.5,1.4,0.5c-2.9,0.1,1.4,0.9-1.3,0.9l0.1,0.4l-0.3,0c-0.2,0.3,0.5,0.4,1.1,0.5
							c-0.2,0.1-0.4,0-0.6,0c-0.5,0.4-0.4,0.4,0.9,0.8l-0.9,0c0.5,0.1-1.4,0.6-0.3,1c-0.1,0-0.3,0-0.4,0c1,0.4-2.4,1.1,0.8,1.2
							l0.8,0.3c0.2-0.4,1.4,0.1,1.9-0.1c0.2,0.2-1,0.4-1.1,0.2l0.2,0c-1.6-0.1-0.6,0.5-1.7,0.5c0.1,0.8-0.8,1.5-0.9,2.2l1.3-0.1
							L5.8,37c-0.3,0.1-1,0.1-0.9-0.1c-0.7,0.1,0.6,0.3,0.9,0.3c-0.5,0.3-1.5-0.1-1.5,0l0.1,0.1l0.1,0c0.5,0.1,1.1,0.1,1,0.3
							c-0.3,0.1-0.8,0.1-0.8,0.1c-0.1,0-0.1,0,0,0.1l-0.1,0.3l1-0.1c0.5,0.1-0.1,0.3,1.1,0.1c-1.8,0.2-0.6,1.2-1.2,1.3
							c0.7,0.2,0.7,0.4,0.6,0.6C6.2,40,7.4,40,7.2,40.2c-2.3-0.1-1,0.4-2.7,0.5c1.1-0.1,0.3,0.6,1.9,0.3c-0.2,0.2-0.9,0-1.4,0.1
							c0.9,0.4-0.6,0.9-0.3,1.4c0.3,0,0.8-0.1,1.2,0l-1.5,0.3C4.5,43,6.1,43,5.1,43.2c0.3,0,0.6-0.1,0.7,0c-1.5,1,1.2,2-1.6,3
							c0.6-0.1,0.7,0,0.7,0.1c0.1-0.1,0.8,0,1.2,0l-1.2,0.4c1.2,0.1,0.1,0.4,1.2,0.5L5.9,47c1.3,0.2,2.9-0.2,4.6-0.2
							c-1.5-0.2,2.2-0.5,0.1-0.8c0.3-0.1,0.5,0.1,0.9,0c-0.7-0.1-0.9-0.2-0.5-0.4l0.2,0c-0.2-0.5,0.5-0.7,1-1.3l-0.8,0
							c0.1-0.1,0.4-0.1,0.6-0.2c-1.3-0.1-0.1,0.3-1.5,0.2c1.7-0.2,0-0.9,1.9-1c0-0.2-1,0.1-0.9-0.1l0.5-0.1l-0.7,0
							c0.1-0.1,0.8-0.2,1.2-0.2c-0.1,0,0.1,0.1,0.2,0.1c0.6-0.2-0.2-0.5,0-0.5l-0.3,0.2c-0.5-0.5,0.2-1.2-0.9-1.7l-0.4,0
							c-0.7-0.4,0.4-0.3,0.1-0.7l0.1,0c-0.4-0.1-0.6-0.2-0.5-0.3c0.5,0.1,0.9-0.2,1.4-0.1c-0.8-0.4-0.6-0.2-2.1-0.5l0.6-0.1
							c-0.6-0.1-0.9-0.1-1.1-0.3c0.6,0.2,1-0.1,1.7,0.1c1.4-0.4-1.4-0.7,0.6-0.9c-1.8-0.2-1,0.4-1.4,0.3c-0.6,0.1-1.3-0.2-1.2-0.3
							c0-0.1,2.3-0.2,2.3-0.6c0,0,0.1,0,0.1,0.1c0.5-0.1-0.6-0.3,0.1-0.4c-1.1-0.1,0.1-0.2-1.3-0.2l0.3,0.3c-0.4-0.2-2-0.4-1.2-0.7
							c0.3,0,0.6,0.1,0.9,0.2c0.4-0.1-0.3-0.2,0.1-0.3c1.4,0,0.3,0.4,1.4,0.6c0.6-0.1-1-0.4,0.5-0.3c-1.9-0.1,0.2-0.3-1.2-0.6l0.8,0
							c-0.1,0-0.5-0.1-0.5-0.2l1.1,0.1c-0.9-0.2,0.8-0.4,0.3-0.6c0,0.4-1,0.1-1.6,0.3c-1.1-0.5,2.2-0.3,1.8-0.8
							c0.1,0.1-0.5,0.3-0.9,0.2c0.2-0.1,0.5-0.2,0.9-0.3c-0.2-0.4-0.9,0.1-1.4-0.1c1-0.1-0.4-0.2-0.7-0.3l0.8,0
							c0.5-0.4-1.8-0.1-1.1-0.5l1.2,0.2l-0.3-0.2l1,0C12,34,12.2,34,12.5,33.8c-0.6,0-1.5,0-1.6-0.2c0.5-0.1,0.8,0.1,0.7-0.2
							c0.5,0.1,1.2,0.1,0.4,0.2c0.3,0,0.5,0.1,0.8,0.1c0.6-0.1,0.1-0.3,0.1-0.4c0,0-0.1,0.1-0.2,0.1L11.6,33c0.3-0.1,0.6,0,0.8,0
							c-0.1-0.1-0.5-0.1-0.6-0.2c0.7,0,1.4,0,1.7,0.2l-0.8-0.4c0.3,0,0.8-0.2,1.1-0.1c0.4-0.2-1.3-0.5-0.8-0.7c-0.1,0-0.3,0-0.4-0.1
							c0.2-0.2,1-0.5,0.1-0.7l1.2-0.2c-0.3-0.2-1.5,0.2-2-0.2c-0.4-0.3,1-0.1,1.4-0.2c-0.6-0.1-1.9-0.4-0.9-0.6
							C12.7,29.9,12.6,29.9,12.7,30z M12.1,27.2c0.2,0.1,0.7,0.2,0.2,0.2C11.4,27.3,11.8,27.3,12.1,27.2z M10.1,23
							c0.3,0,0.1,0.1-0.2,0.2C9.8,23.1,9.9,23,10.1,23z M4.2,11.2C4.2,11.2,4.2,11.2,4.2,11.2C3.9,11.3,4.1,11.3,4.2,11.2z
							 M4.6,10.9c-0.1,0-0.2,0-0.4,0c0.2,0,0.2,0.1,0.2,0.1C4.6,11,4.8,11,4.6,10.9z M4.9,37.8l0.2,0C5.4,37.8,5.2,37.8,4.9,37.8z"
							/>
						<path class="st0" d="M11.2,23.5c-0.1,0-0.3,0-0.5,0C10.9,23.5,11.1,23.5,11.2,23.5z"/>
						<path class="st0" d="M13.1,31.7C13.1,31.7,13.1,31.7,13.1,31.7c0,0,0.1,0,0.1,0L13.1,31.7z"/>
						<path class="st0" d="M11.7,14.8c-0.1,0.1-0.3,0.1-0.4,0.1C11.5,14.9,11.7,14.9,11.7,14.8z"/>
						<path class="st0" d="M3.1,9.6l0.2,0.2c0-0.1,0.1-0.1,0.3-0.1C3.4,9.6,3.2,9.6,3.1,9.6z"/>
						<path class="st0" d="M8.4,8.2c-0.1,0,0,0-0.1-0.1l-0.4,0C7.9,8.2,8.2,8.3,8.4,8.2z"/>
						<path class="st0" d="M5.9,9.4c0.7,0,0.5-0.1,0.3-0.2c0,0,0,0,0,0C5.3,9.2,5.6,9.3,5.9,9.4z"/>
						<path class="st0" d="M6.3,9.2c0,0-0.1-0.1,0-0.1C5.8,9.1,6.2,9.1,6.3,9.2z"/>
						<path class="st0" d="M4.1,10.6c0.2-0.1-0.9,0-0.6-0.1C2.6,10.5,4.6,10.9,4.1,10.6z"/>
						<polygon class="st0" points="8.3,9.4 7.4,9.4 8.1,9.5 						"/>
						<path class="st0" d="M7.6,10.2l0.2-0.2c-0.1,0-0.2,0-0.3,0C7.6,10.1,7.4,10.2,7.6,10.2z"/>
						<path class="st0" d="M7.6,10c0-0.1,0-0.1-0.1-0.1C7.4,9.9,7.5,10,7.6,10z"/>
						<polygon class="st0" points="8.5,9.6 8.4,9.7 8.3,9.8 						"/>
						<path class="st0" d="M7.5,12.2l0.3,0.2c0.3,0,0.5,0,0.4-0.1C7.9,12.2,7.8,12.1,7.5,12.2z"/>
						<path class="st0" d="M9.9,11.6c-0.2,0.1-0.4,0.1-0.7,0.1l1.1,0L9.9,11.6z"/>
						<path class="st0" d="M10.1,12.1c0.3,0,0.9,0.3,0.8,0C10.6,12.2,10.4,12,10.1,12.1z"/>
						<polygon class="st0" points="8.7,15.1 8.7,15 7,15.1 						"/>
						<path class="st0" d="M13,17.7c0.4-0.2-1.1-0.1-0.6-0.3c-0.4-0.1-0.4,0.2-0.8,0.1C12.1,17.7,11.8,17.8,13,17.7z"/>
						<path class="st0" d="M11.6,17.5c-0.1,0-0.2,0-0.3-0.1C11.5,17.5,11.6,17.5,11.6,17.5z"/>
						<polygon class="st0" points="4,46.9 3.6,47 4.2,46.9 						"/>
						<path class="st0" d="M5.3,47.2l-1.1,0l1,0.1C5.2,47.3,5.1,47.2,5.3,47.2z"/>
						<path class="st0" d="M14.4,26.8l-0.3,0c-0.3,0-0.3,0.1-0.4,0.1L14.4,26.8z"/>
						<polygon class="st0" points="13.5,28.8 13.6,28.8 12.5,28.8 						"/>
						<path class="st0" d="M14.9,30.5c0-0.1-0.2-0.2-0.1-0.2C14.9,30.4,13.6,30.5,14.9,30.5z"/>
					</g>
				</g>
			</g>
		</g>
	</g>
</g>
</svg>
