<?xml version="1.0" encoding="utf-8"?>
<!-- Generator: Adobe Illustrator 22.1.0, SVG Export Plug-In . SVG Version: 6.00 Build 0)  -->
<svg version="1.1" id="Calque_1" xmlns="http://www.w3.org/2000/svg" xmlns:xlink="http://www.w3.org/1999/xlink" x="0px" y="0px"
	 viewBox="0 0 32 45" style="enable-background:new 0 0 32 45;" xml:space="preserve">
<style type="text/css">
	.st0{fill:#FFFFFF;}
</style>
<g>
	<line class="st0" x1="15" y1="45" x2="15" y2="0"/>
	<g>
		<g>
			<g>
				<g>
					<path class="st0" d="M10.7,0.1C10.8,0,10.1,0,9.9,0C10.1,0.1,10.9,0,10.7,0.1z"/>
					<polygon class="st0" points="12.4,1.1 12.1,1.1 12.8,1.3 					"/>
					<path class="st0" d="M12.4,2.2c1.2-0.1-0.2-0.4,0.2-0.6l0.3,0l-1-0.1C12.1,1.7,12.7,2,12.4,2.2z"/>
					<path class="st0" d="M9.7,2.7c0.5,0,0.4,0.1,0.2-0.1c-0.1,0-0.1,0-0.1,0C9.7,2.6,9.7,2.7,9.7,2.7z"/>
					<path class="st0" d="M9.7,2.6C9.7,2.5,9.3,2.7,9.7,2.6L9.7,2.6z"/>
					<path class="st0" d="M10,3.1L9.6,3C9.3,3,9.2,3.1,9,3.1C9.2,3.2,9.5,3.2,10,3.1z"/>
					<path class="st0" d="M10.9,3.3l-0.2-0.1C10.6,3.2,10.6,3.2,10.9,3.3z"/>
					<path class="st0" d="M10.3,3l0.4,0.2c0.2,0,0.6,0-0.1-0.1C11,3.1,10.6,3.1,10.3,3z"/>
					<path class="st0" d="M10.5,2.9c0.3-0.1,0.4-0.2,0.9,0C11.2,2.6,10.4,2.7,10.5,2.9z"/>
					<path class="st0" d="M13.7,2.2L14,2.1L13.6,2C13.8,2.1,13.3,2.2,13.7,2.2z"/>
					<path class="st0" d="M9.4,4c0.3,0,0.7,0,1-0.1l-0.3-0.1C9.9,3.9,9.8,4,9.4,4z"/>
					<path class="st0" d="M10.4,3.9l0.5,0.2C10.9,4,10.7,3.9,10.4,3.9z"/>
					<polygon class="st0" points="12.3,3.3 11.3,3 12.3,3.3 					"/>
					<polygon class="st0" points="9.3,4.6 8.7,4.5 9.6,4.7 					"/>
					<path class="st0" d="M9.4,5C8.9,4.9,8.6,5.1,8.3,5c0.1,0.1,0.5,0.2,0.9,0.3C9,5.2,9,5.1,9.4,5z"/>
					<path class="st0" d="M9.8,5.4c-0.1,0-0.3-0.1-0.6-0.1C9.3,5.4,9.5,5.4,9.8,5.4z"/>
					<path class="st0" d="M10.7,4.4c-0.2,0-0.6,0-0.8,0.1L10.7,4.4C10.7,4.4,10.7,4.4,10.7,4.4z"/>
					<path class="st0" d="M10.7,4.4L10.7,4.4c0,0.1-0.1,0.1-0.1,0.1C10.7,4.5,10.7,4.5,10.7,4.4z"/>
					<path class="st0" d="M10.7,4.4C10.7,4.4,10.7,4.4,10.7,4.4C10.8,4.4,10.8,4.4,10.7,4.4z"/>
					<path class="st0" d="M11.6,3.7C12,3.8,12.5,4,13.1,3.8C12.6,3.7,12.3,3.8,11.6,3.7z"/>
					<path class="st0" d="M11.7,4.3l0.2-0.2c-0.2,0-0.5,0-0.7,0L11.7,4.3z"/>
					<polygon class="st0" points="11.9,4.4 11.7,4.3 11.6,4.3 					"/>
					<path class="st0" d="M10.5,5.2c0.3,0.1,0.4,0.2,0.4,0.2c0.1-0.1,0.2-0.2,0.2-0.3C10.8,5.1,10.4,5.1,10.5,5.2z"/>
					<path class="st0" d="M10.7,4.8C10.7,4.8,10.7,4.8,10.7,4.8C10.8,4.8,10.8,4.8,10.7,4.8z"/>
					<path class="st0" d="M10.8,6.3c0,0,0.1,0,0.1,0C10.9,6.3,10.9,6.3,10.8,6.3L10.8,6.3z"/>
					<path class="st0" d="M11.2,5.1c0.1-0.1,0-0.1-0.3-0.2C11,5,11.1,5.1,11.1,5.1C11.2,5.1,11.3,5.1,11.2,5.1z"/>
					<path class="st0" d="M10.1,5.7c0.2,0,0.3-0.1,0.4-0.1C10.3,5.6,9.9,5.7,10.1,5.7z"/>
					<path class="st0" d="M10.5,4.8C10.5,4.8,10.5,4.8,10.5,4.8C10.3,4.9,10.4,4.9,10.5,4.8z"/>
					<path class="st0" d="M10.5,4.8c0.1,0,0.3,0.1,0.5,0.1c-0.1,0-0.1-0.1-0.2-0.1C10.6,4.8,10.6,4.8,10.5,4.8z"/>
					<path class="st0" d="M15.6,6.5c-0.7,0-1.3-0.2-0.6-0.4C14.5,6,12.3,6.1,11,6.3c0.3,0,0.6,0,1,0.2c0.4-0.1,0.9-0.4,1.5-0.2
						c0.4,0.2-0.2,0.2-0.6,0.3c0.9-0.1,1.3,0.3,2.5,0.2L15,6.5C15.1,6.5,15.5,6.6,15.6,6.5z"/>
					<path class="st0" d="M11.1,5.9L11.1,5.9c-0.2,0-0.5,0.1-1,0.2c0.3,0.1,0.6,0.1,0.8,0.1L11,5.9L11.1,5.9z"/>
					<path class="st0" d="M11,5.6c0.8,0.1,1.1,0.2,1.9,0.1c-0.1-0.2-0.6-0.1-1-0.3C12.1,5.8,11.5,5.3,11,5.6c0-0.1-0.1-0.1-0.1-0.2
						c-0.1,0.1-0.2,0.1-0.3,0.2c0,0,0,0,0,0l0,0c0,0,0,0,0,0c0.1,0,0.2,0,0.1,0c0,0,0,0,0,0C10.8,5.6,10.9,5.6,11,5.6
						c-0.2,0.1-0.2,0-0.3,0c0,0-0.1,0-0.1,0c0,0,0,0,0,0L11,5.9C11.1,5.8,11.1,5.7,11,5.6z"/>
					<path class="st0" d="M14.7,4c-0.1,0-0.1,0-0.2,0C14.7,4,14.7,4,14.7,4z"/>
					<path class="st0" d="M14.3,4.1c-0.1,0-0.4,0-0.3-0.1c0.2-0.1,0.4,0,0.6,0c-0.2,0-0.5-0.2-0.9,0l0.1,0c-0.3,0.1-1.2,0.3-1.3,0.3
						C13.1,4.2,13.6,4.2,14.3,4.1z"/>
					<path class="st0" d="M12.8,4.8l0.4,0.3L13.8,5l-0.4,0C13.6,4.8,13.1,4.9,12.8,4.8z"/>
					<polygon class="st0" points="10.5,6.3 9.7,6.3 10.8,6.4 					"/>
					<polygon class="st0" points="10.6,6.7 9.9,6.6 10.3,6.7 					"/>
					<path class="st0" d="M19.1,26.3l0.2,0.1C19.3,26.4,19.2,26.3,19.1,26.3z"/>
					<path class="st0" d="M19.2,25.8l-0.3,0C19,25.8,19.2,25.8,19.2,25.8z"/>
					<path class="st0" d="M10.6,15.2C10,15.3,9,15.5,9.8,15.4l0.8,0C10.4,15.3,10.5,15.3,10.6,15.2z"/>
					<path class="st0" d="M15.2,21.1c0.1,0,0.2,0,0.2,0c-0.3,0-0.5-0.1-0.7-0.1C14.8,21,15,21,15.2,21.1z"/>
					<path class="st0" d="M18.3,21.2l-0.5,0.2C18,21.3,18.2,21.2,18.3,21.2z"/>
					<path class="st0" d="M20,29.4l0.8,0.1C20.7,29.4,20.3,29.5,20,29.4z"/>
					<path class="st0" d="M10.8,10.2c-0.3,0.1-0.4,0.2-0.5,0.2C10.8,10.4,11.5,10.3,10.8,10.2z"/>
					<path class="st0" d="M11.1,26.1c0.1,0,0.3,0.1,0.5,0.1C11.4,26.1,11.3,26.1,11.1,26.1z"/>
					<path class="st0" d="M10.4,10.8c0.1,0,0.1,0,0.2-0.1c-0.1-0.1-0.2-0.1-0.2-0.2C10.1,10.6,9.9,10.7,10.4,10.8z"/>
					<path class="st0" d="M19.3,40.7C19.3,40.8,19.3,40.8,19.3,40.7C19.3,40.8,19.3,40.8,19.3,40.7z"/>
					<path class="st0" d="M11.7,44c0,0,0-0.1-0.1-0.1C11.6,43.9,11.6,44,11.7,44z"/>
					<path class="st0" d="M10.2,8.1C10.2,8,10.2,8,10.2,8.1L10.2,8.1z"/>
					<path class="st0" d="M13.2,7.7c0.1,0,0.2,0,0.4,0C13.4,7.7,13.3,7.7,13.2,7.7z"/>
					<path class="st0" d="M15.1,11.5C15.1,11.5,15.1,11.5,15.1,11.5C15.3,11.5,15.2,11.5,15.1,11.5z"/>
					<path class="st0" d="M10.6,7.9C10.5,8,10.4,8,10.4,8C10.4,8,10.5,8,10.6,7.9z"/>
					<path class="st0" d="M10.2,8C10.3,7.9,10.3,7.9,10.2,8C10.2,7.9,10.1,7.9,10.2,8z"/>
					<path class="st0" d="M10.3,8.2c0,0,0-0.1,0.1-0.1c-0.1,0-0.1,0-0.1,0C10.3,8.1,10.3,8.1,10.3,8.2z"/>
					<path class="st0" d="M17.3,34.7C17.3,34.7,17.3,34.7,17.3,34.7C17.5,34.8,17.5,34.8,17.3,34.7z"/>
					<path class="st0" d="M18.5,17.1C18.5,17.1,18.5,17.1,18.5,17.1C18.5,17.1,18.5,17.1,18.5,17.1L18.5,17.1z"/>
					<path class="st0" d="M19.1,17.4c-0.9-0.1-0.8-0.2-0.6-0.3l-2.2,0.1L19.1,17.4z"/>
					<path class="st0" d="M19.4,27.7l0.7-0.2c1.1,0.2,0.7,0.4,1.7,0.2c-2.4,0-0.2-0.7-2.6-0.8l0.5-0.1c0,0,0.1,0,0.1,0.1
						c1.1-0.2-1.7-0.2-1.4-0.5c0.2-0.1,0.5-0.2,0.8-0.1l-0.6-0.2c0-0.1,0.5-0.1,0.4,0l-0.2-0.4l0.1,0c-0.4-0.1-0.9-0.2-1.2-0.2
						c0.3-0.1,0.3,0,0.5,0l-0.6-0.2c0.6-0.1,1.2,0.1,1.1,0.2c2.4-0.2-0.6-0.2,0.8-0.6l0.3,0.2c1.3-0.1,0.9-0.3,1.7-0.5
						c-0.4,0.1-2.1,0.4-2.7,0.2c0.2-0.1,0.3-0.1-0.2-0.3c0.8,0,0.6-0.1,0.6-0.3l1.1,0c-0.3-0.2-0.9-0.1-1.4-0.2
						c0.1-0.2,1-0.2,1.7-0.3c0.2-0.3-1.4,0.2-1.6-0.1c0.4-0.2,0-0.4-0.7-0.7c0.4-0.2,0.7,0,1,0l-0.9-0.1c0,0,0.3,0,0.4,0
						c-0.3-0.1-1.1,0-1.4-0.2c-1.2-0.1,1.8-0.4,0.4-0.6c0.3-0.1,0.7,0,1.1,0c-0.9-0.3-0.7-0.3-1.9-0.5l0.7-0.2
						c-0.8,0.2-1.8,0-2.6-0.2c-0.4,0.1-0.8,0.1-0.9,0.1l-0.6-0.3c0.2,0,0.6,0,1,0c-0.1,0-0.2,0-0.3-0.1c0.4-0.1,1.1-0.1,1.7,0
						c-0.2,0-0.5,0.1-0.7,0.1c0.7,0.1,1.4,0.1,2.1,0.1c-0.1,0-0.2-0.1-0.3-0.1c0.2,0,0.3,0,0.5,0c0.1,0-0.1,0-0.4-0.1l1.2-0.1
						l-0.5,0l0.8-0.4c-1.3-0.3-3.1-0.5-3.6-1c0.9,0.1,1.5,0,2.6,0c-1.1,0.1,0.5,0.3,0.3,0.6c0.1-0.1,0.6-0.1,0.8-0.1l-1-0.4
						c0.9,0,0.7-0.1,1-0.2c-1.7,0.1-1.2-0.3-1.7-0.5c0.6,0,1.2,0,1,0.2c1.3-0.2-2.1-0.3-0.9-0.5c0,0-0.1,0.1,0.2,0.1
						c-0.5-0.1-0.1-0.4,0.4-0.3l0,0c0.2-0.3,0-1-1.5-1c0.2,0,1.8,0,2.1,0.1l-5-0.6c1.3,0.1,4.3-0.1,5,0.1c0.2-0.1,0.4-0.2-0.1-0.3
						c-0.2,0.1-1.8,0.1-2,0.1c1.4-0.2,0.8-0.1,2-0.4c-0.3,0.1-2.3,0-2.2-0.1c0.3,0,2,0,2.2,0l-2-0.3c0.4,0.1,1.7,0,2.2-0.1
						c-0.4,0,0-0.3-0.2-0.4l-0.5,0.1c0.3-0.4-2.8-0.4-2.7-0.7c0.4,0,2.5,0.1,2.7-0.1c-1-0.1-4.8-0.4-5.6-0.7l0.6-0.1L12.4,14
						c1.5,0.1,4.7,0.6,5.9,0.8c0.5-0.1,0.7,0,0.6-0.2c0.5-0.1,0.8,0.1,0.8,0.2l0.3-0.5C19,14.3,19,13.9,18,14l1.2,0.5
						c-1.2,0-3.3-0.3-3.1-0.6c0.5-0.1,2.1,0.1,2.5,0.1c-0.4,0-0.8-0.3-0.5-0.3l0.6,0.1c0.4-0.2-1.6-0.3-0.4-0.5
						c0.1-0.1,1.5-0.2,0.8-0.2c-1.3,0.1-5.5,0.1-6.5,0.1c0.1,0,1.3-0.4,1.9-0.5c1.1-0.1,2.5,0.2,3.4,0.1c-0.3,0-0.7-0.1-0.8-0.1
						c0.3-0.1,1,0,0.8-0.1c-1.2,0,0.1-0.4-1-0.1c-0.3-0.2,0.2-0.2,0.2-0.4c-0.8,0.1-2.6-0.2-3-0.3c0.3,0,0.7,0,0.9,0
						c0.1-0.3,0.6-0.5,0.7-0.9c0.3,0,0.6-0.2,1.1-0.1c-0.2,0-0.6-0.1-0.6-0.2c1-0.2,0.2,0.2,1.4,0.1c-0.7,0-1-0.3-1.4-0.4
						c-1.1,0-0.2,0.3,0.2,0.5c-1.5,0-3-0.2-3.7-0.6c-0.4-0.3,1-0.1,0.7-0.2C13.8,9.2,11,9.3,12,8.9c0.9-0.2,1.9,0,2.5,0
						C14.9,9.1,14,9.2,14,9.3l0.4-0.2c0.3,0.1,0.5,0.2,0.3,0.3c0.8-0.1,0.2-0.9,0.9-1.2c-0.3-0.1-0.6-0.2-1-0.1l0.1,0.1
						c-0.8,0.1-1-0.2-1.4-0.1c-0.5-0.2-1.4-0.4-0.9-0.6l1.1,0c-0.3,0-0.6,0.2-0.3,0.2c-0.5-0.1,1.5-0.4,0-0.5l-0.7,0.2
						C12,7.2,10.9,7,11.2,6.8c-1.1,0.1,0.1,0-1.1,0.2c1.5-0.1-0.1,0.5,1.6,0.3C10.2,7.5,11,7.6,9.8,7.8c0.4,0,0.7-0.1,0.5,0.1
						c0.1,0,0.2,0,0.3,0c0,0,0,0,0,0c0,0,0,0,0,0c0.1,0,0.1,0,0,0c0.2,0,0.3-0.1,0.5-0.1C12,7.9,12,8.2,12.4,8.3
						c-0.2,0.1-0.4,0-0.8,0l0.6,0.1c-0.8,0-1.3,0.3-1.8,0l0,0.2C10,8.8,9.8,9,10.1,9.1C10,9.2,11,9.4,10.4,9.3l0.5,0.3l-0.2,0
						c-0.1,0.3,1.3,0.7-0.1,1.1c0.2,0.1,0.4,0.2,0.2,0.4l-0.7,0c0.2,0.1-0.7,0.4,0,0.5c-1.8,0.2-0.4,0.7-0.7,1l0.9,0
						c-0.1,0.2,0.2,0.3,0.6,0.6l0.8,0c0.6,0.2-0.6,0.5-0.5,0.8c-0.3,0-0.2-0.1,0-0.1c-1.8,0.4,1.3,0.8,0,1.1c0.3,0.1,0.2,0.1,0,0.2
						c0,0,0,0,0,0c0,0,0,0,0,0c-0.1,0-0.3,0.1-0.4,0.1c0.2,0,0.3-0.1,0.4-0.1c0,0.1,0.1,0.2,0.3,0.2l-0.8,0c0,0,0,0,0,0
						c-0.3,0.1,0.4,0.1,1,0c0.1,0,0.3,0.1,0.5,0.1c-1.4,0.1,0.5,0.2-1,0.3c0.7,0.1,0.5,0.5,2,0.5c-0.2,0-0.3,0-0.3,0
						c-0.2,0.1-0.3,0.2,0.1,0.3l-1.1,0l1.4,0.2c-0.7,0.1-1,0.2-1.9,0.1c1.3,0.3,0.5,0.3,1.7,0.5l-0.7,0c0,0.1,1,0.3,0.4,0.3
						c-1.3,0.2-0.2,1.1-1.4,1.7c2-0.1-0.9,0.3,0.7,0.3c-0.5,0-0.8,0.1-1.2,0c0.5,0.3-0.8,0.4,0.6,0.6c-0.5,0-0.7-0.1-1,0
						c0.1,0,0.4,0.1,0.1,0.1c-0.3,0-0.4,0-0.6-0.1c0.1,0.3,1.6,0.3,3,0.3c-0.7,0.2-0.6,0.2,0.3,0.3c-0.5,0.1-0.9,0.1-1.1,0
						c-0.1,0.1-0.7,0.6,0.4,0.6c-0.3,0-0.1,0.1,0,0.2c-0.1,0.2-0.2,0.3-0.1,0.5l0.2-0.1c1.3,0.1,0.3,0.2,0.5,0.4l-0.1,0
						c-1,0.4,0.5,0.2-0.6,0.6l0.8,0c1.8,0-1.1,0.4-0.4,0.6l0.5-0.1c0.6,0.1-2.5,0.4-2.7,0.5c-0.2,0-0.3,0-0.4-0.1
						c-1.1,0.3,1.1,0,1.4,0.3c-0.6,0-1.5-0.1-1.6,0.1c-0.5,0.1,1.9,0.5,0.8,0.7c0.5-0.1,0.9-0.1,1.3,0c0.2,0.2-1.7,0.5-0.3,0.7
						c-0.1,0-0.2,0-0.4,0c0.4,0.1,0.6,0.5,1.4,0.5c-2.9,0.1,1.4,0.9-1.3,0.9l0.1,0.4l-0.3,0c-0.2,0.3,0.5,0.4,1.1,0.5
						c-0.2,0.1-0.4,0-0.6,0c-0.5,0.4-0.4,0.4,0.9,0.8l-0.9,0c0.5,0.1-1.4,0.6-0.3,1c-0.1,0-0.3,0-0.4,0c1,0.4-2.4,1.1,0.8,1.2
						l0.8,0.3c0.2-0.4,1.4,0.1,1.9-0.1c0.2,0.2-1,0.4-1.1,0.2l0.2,0c-1.6-0.1-0.6,0.5-1.7,0.5c0.1,0.8-0.8,1.5-0.9,2.2l1.3-0.1
						l-0.1,0.2c-0.3,0.1-1,0.1-0.9-0.1c-0.7,0.1,0.6,0.3,0.9,0.3c-0.5,0.3-1.5-0.1-1.5,0L11,35l0.1,0c0.5,0.1,1.1,0.1,1,0.3
						c-0.3,0.1-0.8,0.1-0.8,0.1c-0.1,0-0.1,0,0,0.1l-0.1,0.3l1-0.1c0.5,0.1-0.1,0.3,1.1,0.1c-1.8,0.2-0.6,1.2-1.2,1.3
						c0.7,0.2,0.7,0.4,0.6,0.6c0.2-0.1,1.3-0.1,1.2,0.1c-2.3-0.1-1,0.4-2.7,0.5c1.1-0.1,0.3,0.6,1.9,0.3c-0.2,0.2-0.9,0-1.4,0.1
						c0.9,0.4-0.6,0.9-0.3,1.4c0.3,0,0.8-0.1,1.2,0l-1.5,0.3c0.2,0.1,1.8,0.1,0.7,0.3c0.3,0,0.6-0.1,0.7,0c-1.5,1,1.2,2-1.6,3
						c0.6-0.1,0.7,0,0.7,0.1c0.1-0.1,0.8,0,1.2,0l-1.2,0.4c1.2,0.1,0.1,0.4,1.2,0.5l-0.2-0.1c1.3,0.2,2.9-0.2,4.6-0.2
						c-1.5-0.2,2.2-0.5,0.1-0.8c0.3-0.1,0.5,0.1,0.9,0c-0.7-0.1-0.9-0.2-0.5-0.4l0.2,0c-0.2-0.5,0.5-0.7,1-1.3L18,42
						c0.1-0.1,0.4-0.1,0.6-0.2c-1.3-0.1-0.1,0.3-1.5,0.2c1.7-0.2,0-0.9,1.9-1c0-0.2-1,0.1-0.9-0.1l0.5-0.1l-0.7,0
						c0.1-0.1,0.8-0.2,1.2-0.2c-0.1,0,0.1,0.1,0.2,0.1c0.6-0.2-0.2-0.5,0-0.5L19,40.4c-0.5-0.5,0.2-1.2-0.9-1.7l-0.4,0
						c-0.7-0.4,0.4-0.3,0.1-0.7l0.1,0c-0.4-0.1-0.6-0.2-0.5-0.3c0.5,0.1,0.9-0.2,1.4-0.1c-0.8-0.4-0.6-0.2-2.1-0.5l0.6-0.1
						c-0.6-0.1-0.9-0.1-1.1-0.3c0.6,0.2,1-0.1,1.7,0.1c1.4-0.4-1.4-0.7,0.6-0.9c-1.8-0.2-1,0.4-1.4,0.3c-0.6,0.1-1.3-0.2-1.2-0.3
						c0-0.1,2.3-0.2,2.3-0.6c0,0,0.1,0,0.1,0.1c0.5-0.1-0.6-0.3,0.1-0.4c-1.1-0.1,0.1-0.2-1.3-0.2l0.3,0.3c-0.4-0.2-2-0.4-1.2-0.7
						c0.3,0,0.6,0.1,0.9,0.2c0.4-0.1-0.3-0.2,0.1-0.3c1.4,0,0.3,0.4,1.4,0.6c0.6-0.1-1-0.4,0.5-0.3c-1.9-0.1,0.2-0.3-1.2-0.6l0.8,0
						c-0.1,0-0.5-0.1-0.5-0.2l1.1,0.1c-0.9-0.2,0.8-0.4,0.3-0.6c0,0.4-1,0.1-1.6,0.3c-1.1-0.5,2.2-0.3,1.8-0.8
						c0.1,0.1-0.5,0.3-0.9,0.2c0.2-0.1,0.5-0.2,0.9-0.3c-0.2-0.4-0.9,0.1-1.4-0.1c1-0.1-0.4-0.2-0.7-0.3l0.8,0
						c0.5-0.4-1.8-0.1-1.1-0.5l1.2,0.2l-0.3-0.2l1,0c-0.7-0.2-0.5-0.3-0.3-0.5c-0.6,0-1.5,0-1.6-0.2c0.5-0.1,0.8,0.1,0.7-0.2
						c0.5,0.1,1.2,0.1,0.4,0.2c0.3,0,0.5,0.1,0.8,0.1c0.6-0.1,0.1-0.3,0.1-0.4c0,0-0.1,0.1-0.2,0.1l-1.2-0.4c0.3-0.1,0.6,0,0.8,0
						c-0.1-0.1-0.5-0.1-0.6-0.2c0.7,0,1.4,0,1.7,0.2l-0.8-0.4c0.3,0,0.8-0.2,1.1-0.1c0.4-0.2-1.3-0.5-0.8-0.7c-0.1,0-0.3,0-0.4-0.1
						c0.2-0.2,1-0.5,0.1-0.7l1.2-0.2c-0.3-0.2-1.5,0.2-2-0.2c-0.4-0.3,1-0.1,1.4-0.2c-0.6-0.1-1.9-0.4-0.9-0.6
						C19.5,27.6,19.3,27.6,19.4,27.7z M18.8,24.9c0.2,0.1,0.7,0.2,0.2,0.2C18.1,25,18.5,25,18.8,24.9z M16.8,20.7
						c0.3,0,0.1,0.1-0.2,0.2C16.5,20.8,16.6,20.7,16.8,20.7z M10.9,8.9C10.9,8.9,10.9,8.9,10.9,8.9C10.6,9,10.8,9,10.9,8.9z
						 M11.3,8.6c-0.1,0-0.2,0-0.4,0c0.2,0,0.2,0.1,0.2,0.1C11.3,8.7,11.5,8.7,11.3,8.6z M11.6,35.5l0.2,0
						C12.1,35.5,11.9,35.5,11.6,35.5z"/>
					<path class="st0" d="M17.9,21.2c-0.1,0-0.3,0-0.5,0C17.6,21.2,17.8,21.2,17.9,21.2z"/>
					<path class="st0" d="M19.8,29.4C19.8,29.4,19.8,29.4,19.8,29.4c0,0,0.1,0,0.1,0L19.8,29.4z"/>
					<path class="st0" d="M18.4,12.5c-0.1,0.1-0.3,0.1-0.4,0.1C18.2,12.6,18.4,12.6,18.4,12.5z"/>
					<path class="st0" d="M9.9,7.3l0.2,0.2c0-0.1,0.1-0.1,0.3-0.1C10.2,7.3,9.9,7.3,9.9,7.3z"/>
					<path class="st0" d="M15.1,5.9c-0.1,0,0,0-0.1-0.1l-0.4,0C14.6,5.9,14.9,6,15.1,5.9z"/>
					<path class="st0" d="M12.7,7.1c0.7,0,0.5-0.1,0.3-0.2c0,0,0,0,0,0C12,6.9,12.3,7,12.7,7.1z"/>
					<path class="st0" d="M13,6.9c0,0-0.1-0.1,0-0.1C12.6,6.8,12.9,6.8,13,6.9z"/>
					<path class="st0" d="M10.8,8.3c0.2-0.1-0.9,0-0.6-0.1C9.3,8.2,11.3,8.6,10.8,8.3z"/>
					<polygon class="st0" points="15,7.1 14.1,7.1 14.8,7.2 					"/>
					<path class="st0" d="M14.4,7.9l0.2-0.2c-0.1,0-0.2,0-0.3,0C14.3,7.8,14.1,7.9,14.4,7.9z"/>
					<path class="st0" d="M14.3,7.7c0-0.1,0-0.1-0.1-0.1C14.2,7.6,14.2,7.7,14.3,7.7z"/>
					<polygon class="st0" points="15.3,7.3 15.1,7.4 15,7.5 					"/>
					<path class="st0" d="M14.2,9.9l0.3,0.2c0.3,0,0.5,0,0.4-0.1C14.6,9.9,14.5,9.8,14.2,9.9z"/>
					<path class="st0" d="M16.6,9.3c-0.2,0.1-0.4,0.1-0.7,0.1l1.1,0L16.6,9.3z"/>
					<path class="st0" d="M16.8,9.8c0.3,0,0.9,0.3,0.8,0C17.3,9.9,17.1,9.7,16.8,9.8z"/>
					<polygon class="st0" points="15.5,12.8 15.4,12.7 13.7,12.8 					"/>
					<path class="st0" d="M19.7,15.4c0.4-0.2-1.1-0.1-0.6-0.3c-0.4-0.1-0.4,0.2-0.8,0.1C18.8,15.4,18.5,15.5,19.7,15.4z"/>
					<path class="st0" d="M18.4,15.2c-0.1,0-0.2,0-0.3-0.1C18.2,15.2,18.3,15.2,18.4,15.2z"/>
					<polygon class="st0" points="10.7,44.6 10.3,44.7 10.9,44.6 					"/>
					<path class="st0" d="M12,44.9l-1.1,0l1,0.1C11.9,45,11.8,44.9,12,44.9z"/>
					<path class="st0" d="M21.1,24.5l-0.3,0c-0.3,0-0.3,0.1-0.4,0.1L21.1,24.5z"/>
					<polygon class="st0" points="20.3,26.5 20.3,26.5 19.3,26.5 					"/>
					<path class="st0" d="M21.6,28.2c0-0.1-0.2-0.2-0.1-0.2C21.6,28.1,20.3,28.2,21.6,28.2z"/>
				</g>
			</g>
		</g>
	</g>
</g>
<g>
	<line class="st0" x1="3.6" y1="37.5" x2="31.7" y2="9.5"/>
	<g>
		<g>
			<g>
				<g>
					<path class="st0" d="M28.8,6.7c0.1,0-0.4-0.5-0.5-0.6C28.4,6.3,28.9,6.8,28.8,6.7z"/>
					<polygon class="st0" points="29.2,8.5 29,8.3 29.4,8.8 					"/>
					<path class="st0" d="M28.6,9.1c0.9,0.8,0.1-0.4,0.5-0.2l0.2,0.2l-0.6-0.7C28.7,8.6,28.9,9.2,28.6,9.1z"/>
					<path class="st0" d="M26.5,7.6c0.3,0.3,0.2,0.4,0.2,0C26.6,7.6,26.6,7.6,26.5,7.6C26.5,7.6,26.5,7.6,26.5,7.6z"/>
					<path class="st0" d="M26.5,7.6C26.6,7.5,26.2,7.4,26.5,7.6L26.5,7.6z"/>
					<path class="st0" d="M26.4,8.1l-0.2-0.4c-0.2-0.2-0.3-0.1-0.4-0.3C25.8,7.7,26,7.8,26.4,8.1z"/>
					<path class="st0" d="M26.9,8.8l-0.1-0.2C26.8,8.5,26.7,8.5,26.9,8.8z"/>
					<path class="st0" d="M26.7,8.3l0.2,0.4c0.1,0.1,0.4,0.4,0-0.1C27,8.7,26.8,8.5,26.7,8.3z"/>
					<path class="st0" d="M26.9,8.3c0.2,0.1,0.4,0.2,0.6,0.6C27.5,8.6,26.9,8,26.9,8.3z"/>
					<path class="st0" d="M29.4,10l0.3,0.2l-0.2-0.3C29.6,10,29.1,9.7,29.4,10z"/>
					<path class="st0" d="M25.4,8.2c0.2,0.2,0.5,0.4,0.7,0.7L26,8.6C25.9,8.5,25.7,8.5,25.4,8.2z"/>
					<path class="st0" d="M26.2,8.9l0.2,0.4C26.5,9.2,26.4,9.1,26.2,8.9z"/>
					<polygon class="st0" points="27.8,9.7 27.4,8.9 27.8,9.8 					"/>
					<polygon class="st0" points="25,8.6 24.7,8.1 25.2,8.8 					"/>
					<path class="st0" d="M24.9,8.9c-0.3-0.4-0.6-0.5-0.8-0.8c0,0.1,0.2,0.5,0.4,0.8C24.4,8.7,24.5,8.7,24.9,8.9z"/>
					<path class="st0" d="M24.8,9.4c-0.1-0.1-0.2-0.3-0.3-0.5C24.5,9,24.6,9.2,24.8,9.4z"/>
					<path class="st0" d="M26.1,9.4C26,9.3,25.7,9,25.5,8.9L26.1,9.4C26.1,9.4,26.1,9.4,26.1,9.4z"/>
					<path class="st0" d="M26.1,9.4L26.1,9.4c-0.1,0-0.1,0-0.1,0C26,9.4,26,9.4,26.1,9.4z"/>
					<path class="st0" d="M26.1,9.3C26.1,9.3,26.1,9.4,26.1,9.3C26.2,9.4,26.2,9.4,26.1,9.3z"/>
					<path class="st0" d="M27.1,9.5c0.2,0.3,0.4,0.8,0.9,1.1C27.8,10.2,27.5,10,27.1,9.5z"/>
					<path class="st0" d="M26.8,9.9l0.2,0c-0.1-0.1-0.3-0.3-0.5-0.5L26.8,9.9z"/>
					<polygon class="st0" points="26.9,10.1 26.8,9.9 26.7,9.9 					"/>
					<path class="st0" d="M25.4,9.7c0.2,0.3,0.1,0.3,0.1,0.4c0.2,0,0.3,0,0.3,0C25.7,9.9,25.5,9.6,25.4,9.7z"/>
					<path class="st0" d="M25.8,9.6C25.8,9.6,25.8,9.6,25.8,9.6C25.9,9.7,25.9,9.7,25.8,9.6z"/>
					<path class="st0" d="M25,10.6C25,10.6,25.1,10.7,25,10.6C25.1,10.7,25,10.6,25,10.6L25,10.6z"/>
					<path class="st0" d="M26,10.1c0.1,0.1,0-0.1-0.1-0.3c0,0.1,0,0.2,0,0.2C25.9,10.1,26,10.2,26,10.1z"/>
					<path class="st0" d="M24.9,9.8c0.1,0.1,0.2,0.1,0.4,0.2C25,9.8,24.7,9.6,24.9,9.8z"/>
					<path class="st0" d="M25.7,9.5C25.7,9.5,25.6,9.5,25.7,9.5C25.5,9.4,25.6,9.4,25.7,9.5z"/>
					<path class="st0" d="M25.7,9.5c0,0.1,0.2,0.2,0.2,0.4c0-0.1,0-0.1-0.1-0.2C25.8,9.6,25.7,9.5,25.7,9.5z"/>
					<path class="st0" d="M28,14c-0.5-0.5-0.8-1-0.2-0.6c-0.2-0.4-1.8-1.9-2.8-2.6c0.2,0.2,0.4,0.4,0.6,0.8c0.3,0.2,0.8,0.4,1.1,0.9
						c0.1,0.4-0.3-0.1-0.6-0.2c0.6,0.5,0.7,1,1.5,1.8l-0.2-0.4C27.7,13.6,27.9,13.9,28,14z"/>
					<path class="st0" d="M25.3,10.6L25.3,10.6c-0.1-0.1-0.4-0.3-0.8-0.6c0.2,0.3,0.3,0.5,0.5,0.6L25.3,10.6L25.3,10.6z"/>
					<path class="st0" d="M25.5,10.3c0.5,0.5,0.6,0.8,1.2,1.3c0.1-0.2-0.3-0.5-0.5-0.8C26.1,11.1,26,10.5,25.5,10.3
						c0-0.1,0-0.1,0-0.2c-0.1,0-0.2-0.1-0.3-0.1c0,0,0,0,0,0l0,0c0,0,0,0,0,0c0.1,0.1,0.1,0.1,0.1,0.1c0,0,0,0,0,0
						C25.4,10.1,25.5,10.2,25.5,10.3c-0.2,0-0.1-0.1-0.2-0.2c0,0,0-0.1-0.1-0.1c0,0,0,0,0,0l0.1,0.5C25.4,10.5,25.5,10.4,25.5,10.3z
						"/>
					<path class="st0" d="M29,11.8c-0.1,0-0.1-0.1-0.1-0.1C29,11.7,29,11.8,29,11.8z"/>
					<path class="st0" d="M28.6,11.5c-0.1-0.1-0.2-0.3-0.1-0.3c0.2,0.1,0.2,0.2,0.4,0.4c-0.1-0.2-0.3-0.5-0.6-0.6l0.1,0.1
						c-0.3-0.1-1-0.6-1-0.7C27.8,10.9,28.2,11.2,28.6,11.5z"/>
					<path class="st0" d="M27.2,11l0.1,0.4l0.5,0.3l-0.3-0.3C27.7,11.6,27.4,11.3,27.2,11z"/>
					<polygon class="st0" points="24.7,10.4 24.2,9.8 24.9,10.7 					"/>
					<polygon class="st0" points="24.6,10.7 24.1,10.2 24.3,10.5 					"/>
					<path class="st0" d="M18,28.6l0.1,0.2C18.1,28.8,18,28.7,18,28.6z"/>
					<path class="st0" d="M18.4,28.3l-0.2-0.2C18.3,28.2,18.4,28.3,18.4,28.3z"/>
					<path class="st0" d="M19.3,16.1c-0.5-0.4-1.2-0.9-0.7-0.4l0.5,0.5C19.1,16,19.2,16,19.3,16.1z"/>
					<path class="st0" d="M18.6,22.7c0.1,0,0.1,0.1,0.2,0.1c-0.2-0.2-0.3-0.4-0.4-0.5C18.5,22.5,18.5,22.6,18.6,22.7z"/>
					<path class="st0" d="M20.7,24.9l-0.4-0.2C20.4,24.7,20.5,24.8,20.7,24.9z"/>
					<path class="st0" d="M16.6,31.1l0.5,0.6C17.1,31.6,16.8,31.4,16.6,31.1z"/>
					<path class="st0" d="M22.5,13.1c-0.3-0.1-0.4-0.2-0.5-0.1C22.4,13.2,22.9,13.5,22.5,13.1z"/>
					<path class="st0" d="M12.8,23.2c0.1,0.1,0.2,0.2,0.3,0.3C13,23.4,12.9,23.3,12.8,23.2z"/>
					<path class="st0" d="M21.9,13.1c0.1,0,0.1,0.1,0.2,0.1c0-0.1-0.1-0.2,0-0.3C21.8,12.8,21.6,12.7,21.9,13.1z"/>
					<path class="st0" d="M9.1,37.8C9.1,37.7,9.1,37.7,9.1,37.8C9.1,37.8,9.1,37.8,9.1,37.8z"/>
					<path class="st0" d="M2,34.7c0-0.1,0-0.1,0-0.1C2,34.6,2,34.6,2,34.7z"/>
					<path class="st0" d="M23.5,11.3C23.5,11.3,23.4,11.3,23.5,11.3L23.5,11.3z"/>
					<path class="st0" d="M25.7,13.1c0,0.1,0.1,0.1,0.2,0.3C25.8,13.2,25.7,13.2,25.7,13.1z"/>
					<path class="st0" d="M24.6,16.7C24.6,16.7,24.6,16.7,24.6,16.7C24.7,16.8,24.7,16.8,24.6,16.7z"/>
					<path class="st0" d="M23.8,11.5c-0.1,0-0.2-0.1-0.2-0.1C23.6,11.4,23.7,11.5,23.8,11.5z"/>
					<path class="st0" d="M23.5,11.3C23.6,11.3,23.6,11.3,23.5,11.3C23.5,11.2,23.5,11.1,23.5,11.3z"/>
					<path class="st0" d="M23.4,11.4c0,0,0.1,0,0.1,0C23.5,11.4,23.5,11.4,23.4,11.4C23.5,11.4,23.5,11.4,23.4,11.4z"/>
					<path class="st0" d="M11.6,32.6C11.5,32.6,11.5,32.6,11.6,32.6C11.7,32.8,11.7,32.8,11.6,32.6z"/>
					<path class="st0" d="M23.3,22.5C23.3,22.5,23.3,22.5,23.3,22.5C23.3,22.5,23.3,22.5,23.3,22.5L23.3,22.5z"/>
					<path class="st0" d="M23.5,23c-0.6-0.7-0.4-0.7-0.3-0.6l-1.5-1.4L23.5,23z"/>
					<path class="st0" d="M17.3,29.6l0.6,0.3c0.6,0.9,0.2,0.7,1,1.3c-1.6-1.6,0.3-0.6-1.3-2.2l0.4,0.3c0,0,0.1,0.1,0,0.1
						c0.9,0.6-1-1.3-0.6-1.2c0.2,0.1,0.5,0.2,0.6,0.5l-0.2-0.5c0.1,0,0.3,0.3,0.3,0.3l0.1-0.4l0,0c-0.2-0.3-0.5-0.7-0.7-0.9
						c0.3,0.2,0.1,0.2,0.3,0.4L17.6,27c0.5,0.4,0.8,0.9,0.6,0.9c1.7,1.5-0.3-0.5,0.9,0.2l0.1,0.3c1,0.8,0.7,0.4,1.4,0.8
						c-0.3-0.3-1.7-1.1-1.9-1.7c0.2,0.1,0.3,0.1,0-0.3c0.6,0.6,0.5,0.4,0.6,0.2l0.7,0.7c-0.1-0.3-0.5-0.7-0.8-1.1
						c0.2,0,0.8,0.5,1.3,1c0.3-0.1-1-0.8-1-1.1c0.4,0.1,0.2-0.3,0-0.9c0.4,0.2,0.4,0.5,0.7,0.6l-0.5-0.7c0,0,0.2,0.2,0.3,0.3
						c-0.2-0.3-0.7-0.7-0.8-1.1c-0.8-0.8,1.4,1,0.7-0.1c0.2,0.2,0.4,0.5,0.7,0.7c-0.4-0.8-0.3-0.6-0.9-1.6l0.6,0.3
						c-0.7-0.5-1.2-1.2-1.6-1.9c-0.3-0.2-0.6-0.4-0.7-0.5l-0.2-0.6c0.1,0.1,0.4,0.4,0.7,0.7c0-0.1-0.1-0.1-0.1-0.2
						c0.3,0.2,0.7,0.7,1.1,1.1c-0.2-0.1-0.3-0.3-0.5-0.4c0.4,0.5,0.9,1,1.3,1.5C20,24.2,20,24.1,20,24.1c0.1,0.1,0.2,0.3,0.3,0.3
						c0.1,0.1-0.1-0.1-0.2-0.3l0.9,0.8l-0.3-0.3l0.8,0.3c-0.7-1-1.7-2.4-1.8-3c0.5,0.7,1,1,1.7,1.7c-0.8-0.7,0.1,0.5-0.2,0.5
						c0.2,0,0.5,0.4,0.6,0.5l-0.4-0.9c0.6,0.6,0.5,0.4,0.8,0.6c-1.2-1.1-0.6-1-0.8-1.4c0.4,0.4,0.8,0.8,0.5,0.8
						c1,0.7-1.2-1.5-0.3-0.9c0,0-0.1,0,0.1,0.2c-0.3-0.4,0.2-0.3,0.5,0.1l0,0c0.3-0.1,0.6-0.6-0.3-1.6c0.1,0.1,1.2,1.2,1.4,1.4
						L20,19c0.8,0.9,3,2.8,3.3,3.4c0.2,0.1,0.4,0.2,0.2-0.2c-0.2-0.1-1.3-1.1-1.3-1.3c1.1,0.8,0.6,0.4,1.5,1.1
						c-0.2-0.1-1.5-1.5-1.4-1.6c0.2,0.2,1.3,1.3,1.4,1.5l-1.1-1.5c0.2,0.3,1.1,1.1,1.5,1.4c-0.3-0.2,0.2-0.1,0.1-0.3l-0.4-0.2
						c0.4,0-1.6-2.1-1.3-2.2c0.2,0.3,1.6,1.7,1.9,1.8c-0.6-0.7-3-3.4-3.3-4.2l0.4,0.3l-0.3-0.6c0.9,1.1,2.8,3.5,3.4,4.4
						c0.4,0.2,0.5,0.4,0.6,0.3c0.4,0.3,0.5,0.6,0.5,0.7l0.5-0.1c-0.8-0.8-0.6-1-1.2-1.6l0.5,1.1c-0.8-0.8-2-2.4-1.7-2.5
						c0.4,0.3,1.3,1.4,1.6,1.7c-0.2-0.3-0.3-0.7-0.1-0.5l0.3,0.5c0.4,0.2-0.8-1.2,0-0.6c0.1,0,1.1,0.9,0.7,0.4
						c-1-0.8-3.7-3.6-4.4-4.3c0.1,0,1.1,0.6,1.6,1c0.8,0.6,1.5,1.8,2.2,2.3c-0.2-0.2-0.4-0.5-0.5-0.6c0.2,0.1,0.6,0.7,0.7,0.5
						c-0.8-0.8,0.3-0.2-0.6-0.7c-0.1-0.3,0.3,0.1,0.4-0.1c-0.6-0.5-1.6-1.9-1.7-2.2c0.2,0.2,0.5,0.4,0.6,0.6c0.3-0.1,0.8,0.1,1-0.1
						c0.2,0.2,0.5,0.3,0.8,0.7c-0.1-0.2-0.4-0.5-0.3-0.5c0.8,0.6,0,0.2,0.9,1c-0.5-0.5-0.5-0.8-0.7-1.2c-0.7-0.7-0.3,0.1-0.1,0.4
						c-1-1-1.9-2.2-2.1-2.8c-0.1-0.4,0.7,0.6,0.6,0.4c0.5-0.1-1.4-2-0.5-1.5c0.7,0.5,1.2,1.2,1.7,1.7c0.1,0.4-0.6-0.2-0.7-0.1
						l0.4,0.2c0.2,0.3,0.2,0.5,0,0.4c0.6,0.5,0.6-0.4,1.4-0.1c-0.2-0.3-0.3-0.5-0.6-0.8l0,0.2c-0.6-0.4-0.6-0.8-0.9-1
						c-0.3-0.5-0.7-1.1-0.3-1l0.7,0.7c-0.2-0.2-0.5-0.3-0.3-0.1c-0.3-0.4,1.2,0.7,0.3-0.3l-0.6-0.4c-0.3-0.5-0.9-1.3-0.5-1.2
						c-0.8-0.6,0.1,0.1-0.9-0.6c1.1,0.9-0.4,0.3,0.8,1.2c-1-0.9-0.6-0.2-1.5-0.9c0.2,0.2,0.5,0.4,0.3,0.4c0.1,0.1,0.1,0.2,0.2,0.2
						c0,0,0,0,0,0c0,0,0,0,0,0c0,0,0,0,0,0c0.1,0.1,0.3,0.2,0.4,0.3c0.5,0.6,0.3,0.7,0.5,1.1c-0.2,0-0.2-0.3-0.5-0.5l0.3,0.5
						c-0.5-0.5-1-0.7-1.2-1.2l-0.2,0.1c-0.4-0.2-0.6-0.2-0.4,0.1c-0.2,0,0.4,0.7,0.1,0.3l0.1,0.5l-0.1-0.1c-0.3,0.1,0.4,1.3-0.8,0.6
						c0.1,0.2,0.1,0.4-0.1,0.4l-0.5-0.4c0.1,0.2-0.7-0.2-0.3,0.3c-1.3-1.1-0.7,0.2-1.1,0.1l0.6,0.6c-0.1,0.1-0.1,0.3,0,0.7l0.5,0.5
						c0.3,0.5-0.7-0.1-0.8,0.2c-0.2-0.2-0.1-0.2,0.1-0.1c-1.4-1,0.4,1.3-0.7,0.7c0.1,0.2,0,0.2-0.1,0.1c0,0,0,0,0,0c0,0,0,0,0,0
						c-0.1-0.1-0.2-0.1-0.3-0.2c0.1,0.1,0.3,0.2,0.3,0.2c0,0,0,0.2,0.1,0.4l-0.6-0.5c0,0,0,0,0,0c-0.3-0.1,0.2,0.3,0.7,0.7
						c0.1,0.1,0.1,0.3,0.3,0.4c-0.9-0.9,0.2,0.5-0.9-0.4c0.4,0.5,0.1,0.6,1,1.7C20,18.3,20,18.3,20,18.3c-0.2,0-0.4-0.1-0.1,0.2
						l-0.7-0.7l0.8,1.1c-0.5-0.3-0.8-0.6-1.3-1.2c0.6,1,0.2,0.5,0.8,1.5L19,18.7c0,0.1,0.5,0.8,0.1,0.5c-1-0.7-0.8,0.6-2,0.1
						c1.4,1.3-0.8-0.4,0.3,0.6c-0.3-0.3-0.6-0.4-0.8-0.8c0.1,0.5-0.8-0.2,0,0.8c-0.3-0.3-0.4-0.5-0.6-0.7c0.1,0.1,0.2,0.3,0,0.2
						c-0.2-0.2-0.2-0.3-0.4-0.5c-0.1,0.2,0.8,1.2,1.7,2.2c-0.5-0.3-0.5-0.2,0,0.4c-0.3-0.3-0.7-0.5-0.7-0.8c-0.1,0-0.8,0-0.1,0.7
						c-0.2-0.2-0.1,0-0.1,0.1c-0.2,0.1-0.3,0-0.3,0.3l0.2,0.1c0.8,1,0.1,0.3,0.1,0.5l-0.1-0.1c-0.9-0.4,0.2,0.4-0.8-0.1l0.6,0.5
						c1.2,1.2-0.9-0.5-0.6,0.1l0.4,0.3c0.3,0.5-1.9-1.4-2.1-1.5c-0.1-0.1-0.1-0.2-0.2-0.3c-0.9-0.5,0.7,0.8,0.7,1.1
						c-0.4-0.4-1-1-1.1-1c-0.4-0.3,1,1.6,0.1,1c0.3,0.3,0.7,0.5,0.8,0.8c0,0.2-1.5-0.8-0.6,0.2c-0.1-0.1-0.2-0.1-0.3-0.2
						c0.2,0.3,0.1,0.7,0.6,1.3c-2-1.8,0.4,1.5-1.4-0.3l-0.2,0.4l-0.2-0.2c-0.3,0.1,0.1,0.5,0.4,1c-0.2-0.1-0.3-0.3-0.4-0.4
						c-0.6-0.1-0.6,0,0.1,1.1l-0.6-0.6c0.3,0.4-1.3-0.5-0.8,0.4c-0.1-0.1-0.2-0.2-0.2-0.3c0.4,1-2.3-0.9-0.3,1.3l0.3,0.7
						c0.4-0.1,0.9,0.9,1.3,1.2c0,0.2-0.9-0.4-0.9-0.6l0.1,0.1c-1-1.1-0.7-0.1-1.4-0.8c-0.4,0.5-1.5,0.4-2,0.8l0.9,0.8l-0.2,0.1
						c-0.2-0.2-0.7-0.6-0.6-0.7c-0.5-0.4,0.2,0.6,0.4,0.8c-0.6-0.1-0.9-1.1-1-1l0,0.2l0.1,0.1c0.3,0.4,0.6,0.8,0.5,0.9
						c-0.3-0.1-0.6-0.5-0.6-0.5c-0.1-0.1-0.1-0.1-0.1,0l-0.3,0.1l0.7,0.6c0.2,0.4-0.2,0.1,0.6,0.8c-1.3-1-1.1,0.3-1.6,0
						c0.4,0.6,0.2,0.7,0,0.8c0.2,0.1,1,0.8,0.7,0.9c-1.5-1.6-0.9-0.4-2.1-1.5c0.8,0.7-0.2,0.5,1,1.5c-0.2,0-0.6-0.6-1-0.9
						c0.4,0.9-0.9,0.2-1.1,0.7c0.2,0.2,0.6,0.5,0.8,0.8l-1.2-0.9c0,0.2,1.1,1.2,0.3,0.6c0.2,0.2,0.5,0.4,0.5,0.5
						c-1.6-0.4-0.4,2.1-2.9,0.8c0.5,0.3,0.5,0.4,0.4,0.5c0.1,0.1,0.5,0.5,0.8,0.8l-1-0.5c0.7,0.8-0.2,0.3,0.5,1.1l0-0.2
						c0.8,1,2.1,1.8,3.2,2.9c-0.9-1.1,1.8,1.1,0.6-0.5c0.3,0.2,0.3,0.4,0.6,0.6c-0.4-0.5-0.5-0.7-0.1-0.6l0.1,0.1
						c0.2-0.4,0.8-0.1,1.5-0.1l-0.6-0.5c0.2,0,0.3,0.2,0.5,0.3c-0.7-0.9-0.3,0.2-1.1-0.8c1.2,1,0.6-0.5,1.9,0.7
						c0.1-0.1-0.7-0.6-0.5-0.7l0.4,0.3l-0.4-0.5c0.2,0,0.6,0.4,0.9,0.7c-0.1,0,0,0.1,0,0.2c0.5,0.3,0.1-0.4,0.3-0.3l-0.3-0.1
						c0-0.6,0.8-0.6,0.5-1.6l-0.3-0.2c-0.2-0.7,0.5,0.1,0.5-0.4l0.1,0.1c-0.2-0.3-0.3-0.5-0.2-0.6c0.2,0.4,0.7,0.5,1,0.9
						c-0.3-0.8-0.3-0.5-1.1-1.7l0.5,0.4c-0.3-0.4-0.5-0.7-0.5-0.9c0.3,0.5,0.7,0.6,1.1,1.2c1.2,0.7-0.5-1.4,1-0.1
						c-1.1-1.3-0.9-0.4-1.1-0.7c-0.4-0.3-0.8-1-0.6-1c0.1-0.1,1.7,1.4,1.9,1.1c0,0,0.1,0.1,0,0.1c0.4,0.2-0.2-0.6,0.3-0.2
						c-0.7-0.8,0.2-0.1-0.7-1l0,0.4c-0.1-0.4-1.1-1.5-0.4-1.2c0.2,0.2,0.4,0.5,0.5,0.7c0.3,0.2-0.1-0.3,0.3-0.1
						c0.9,0.9,0,0.4,0.5,1.3c0.4,0.3-0.4-0.9,0.5,0.2c-1.2-1.4,0.4-0.1-0.4-1.2l0.5,0.6c-0.1-0.1-0.3-0.4-0.2-0.4l0.6,0.8
						c-0.5-0.7,0.8,0.3,0.6-0.1c-0.2,0.3-0.7-0.6-1.2-0.9c-0.4-1,1.6,1.3,1.7,0.7c0,0.1-0.5-0.2-0.7-0.5c0.2,0,0.5,0.2,0.8,0.4
						c0.1-0.3-0.6-0.5-0.8-1c0.7,0.6-0.2-0.4-0.3-0.7l0.6,0.6c0.6,0.1-1.1-1.2-0.4-1l0.7,0.9l-0.1-0.3l0.6,0.7
						c-0.3-0.6-0.2-0.5,0.1-0.5c-0.4-0.4-1-1-0.9-1.2c0.4,0.3,0.5,0.6,0.6,0.3c0.3,0.4,0.7,0.9,0.1,0.4c0.2,0.2,0.3,0.4,0.5,0.6
						c0.5,0.3,0.3-0.1,0.3-0.2c0,0-0.1,0-0.2-0.1l-0.5-1c0.2,0.2,0.4,0.4,0.5,0.6c0-0.1-0.2-0.4-0.2-0.5c0.4,0.5,0.9,0.9,1,1.2
						l-0.3-0.7c0.2,0.2,0.7,0.4,0.8,0.6c0.4,0.1-0.6-1.2-0.1-1c-0.1-0.1-0.1-0.2-0.2-0.3c0.3,0,0.9,0.4,0.5-0.4l0.9,0.7
						c0-0.3-1.2-0.9-1.2-1.4c-0.1-0.4,0.8,0.6,1,0.8c-0.3-0.5-1-1.5-0.2-1C17.4,29.6,17.3,29.5,17.3,29.6z M18.7,27.5
						c0.1,0.2,0.4,0.6,0,0.3C18.1,27.1,18.4,27.4,18.7,27.5z M20,23.6c0.2,0.2,0,0.2-0.2,0C19.7,23.5,19.8,23.4,20,23.6z M23.4,12.3
						C23.4,12.3,23.4,12.3,23.4,12.3C23.2,12.2,23.3,12.2,23.4,12.3z M23.8,12.4c-0.1-0.1-0.1-0.2-0.2-0.2c0.1,0.2,0.1,0.2,0,0.2
						C23.8,12.5,23.9,12.6,23.8,12.4z M7.3,29.4l0.2,0.1C7.6,29.7,7.4,29.5,7.3,29.4z"/>
					<path class="st0" d="M20.4,24.6c-0.1-0.1-0.2-0.2-0.3-0.3C20.2,24.4,20.3,24.5,20.4,24.6z"/>
					<path class="st0" d="M16.5,31C16.5,31,16.5,31,16.5,31c0,0,0.1,0.1,0.1,0.1L16.5,31z"/>
					<path class="st0" d="M26.2,19.5c-0.1,0-0.2-0.1-0.4-0.2C25.9,19.5,26.1,19.6,26.2,19.5z"/>
					<path class="st0" d="M23.7,10.6l0,0.2c0-0.1,0.2,0,0.3,0.1C23.9,10.8,23.7,10.6,23.7,10.6z"/>
					<path class="st0" d="M28,13.2c-0.1-0.1,0,0,0-0.1l-0.3-0.3C27.7,12.9,27.9,13.2,28,13.2z"/>
					<path class="st0" d="M25.7,12.4c0.5,0.5,0.4,0.2,0.4,0.1c0,0,0,0,0,0C25.4,11.8,25.5,12.1,25.7,12.4z"/>
					<path class="st0" d="M26,12.4C26,12.4,26,12.3,26,12.4C25.8,12.1,26,12.3,26,12.4z"/>
					<path class="st0" d="M23.7,11.9c0.2,0.1-0.6-0.6-0.4-0.4C22.8,10.8,23.9,12.4,23.7,11.9z"/>
					<polygon class="st0" points="27.3,13.9 26.7,13.3 27.1,13.8 					"/>
					<path class="st0" d="M26.3,14l0.3,0c-0.1-0.1-0.1-0.2-0.2-0.2C26.3,13.9,26.1,13.8,26.3,14z"/>
					<path class="st0" d="M26.4,13.8c0,0,0.1-0.1,0-0.2C26.4,13.6,26.4,13.7,26.4,13.8z"/>
					<polygon class="st0" points="27.3,14.2 27.1,14.1 27,14.1 					"/>
					<path class="st0" d="M25,15.1l0,0.3c0.2,0.2,0.3,0.3,0.3,0.2C25.2,15.4,25.2,15.3,25,15.1z"/>
					<path class="st0" d="M26.9,16.3c-0.2-0.1-0.3-0.2-0.5-0.4l0.7,0.7L26.9,16.3z"/>
					<path class="st0" d="M26.7,16.8c0.2,0.2,0.4,0.8,0.5,0.6C27.1,17.2,27,16.9,26.7,16.8z"/>
					<polygon class="st0" points="24,17.8 24,17.7 22.8,16.5 					"/>
					<path class="st0" d="M25.2,22.2c0.4,0.1-0.7-0.8-0.2-0.5c-0.2-0.3-0.4-0.2-0.6-0.5C24.6,21.6,24.4,21.5,25.2,22.2z"/>
					<path class="st0" d="M24.4,21.2c0-0.1-0.1-0.1-0.1-0.2C24.3,21.1,24.4,21.1,24.4,21.2z"/>
					<polygon class="st0" points="1,34.4 0.7,34.3 1.1,34.6 					"/>
					<path class="st0" d="M1.7,35.5l-0.8-0.7l0.6,0.7C1.6,35.4,1.5,35.3,1.7,35.5z"/>
					<path class="st0" d="M20.5,28.8l-0.2-0.2c-0.2-0.2-0.2-0.2-0.3-0.2L20.5,28.8z"/>
					<polygon class="st0" points="18.6,29.5 18.7,29.5 17.9,28.9 					"/>
					<path class="st0" d="M18.4,31.4c0.1,0,0-0.2,0-0.2C18.5,31.4,17.6,30.6,18.4,31.4z"/>
				</g>
			</g>
		</g>
	</g>
</g>
</svg>
